<svg width="428" height="597" viewBox="0 0 428 597" fill="none" xmlns="http://www.w3.org/2000/svg">
<path d="M478 367.682L302.306 367.682L302.306 596L94.7247 596M478 346.444L271.669 346.444L271.669 571.638L31.2623 571.638M75.0295 546.339L244.158 546.339L244.158 323.018L478 323.018M478 299.593L167.878 299.593M478 275.231L244.158 275.231L244.158 46.601L75.0294 46.601M31.2623 22.2388L271.669 22.2388L271.669 253.055L478 253.055M478 231.504L302.306 231.504L302.306 0.999989L94.7247 0.999998M221.649 275.231L221.649 70.9632L1.13226e-05 70.9633M221.649 323.018L221.649 523.85L3.11189e-05 523.85" stroke="#6E58F1" stroke-opacity="0.1" stroke-width="1.41269"/>
</svg>
