<svg width="418" height="597" viewBox="0 0 418 597" fill="none" xmlns="http://www.w3.org/2000/svg">
<path d="M-60 367.682L115.694 367.682L115.694 596L323.275 596M-60 346.444L146.331 346.444L146.331 571.638L386.738 571.638M342.971 546.339L173.842 546.339L173.842 323.018L-60 323.018M-60 299.593L250.122 299.593M-60 275.231L173.842 275.231L173.842 46.601L342.971 46.601M386.738 22.2388L146.331 22.2388L146.331 253.055L-60 253.055M-60 231.504L115.694 231.504L115.694 0.999989L323.275 0.999998M196.351 275.231L196.351 70.9632L418 70.9633M196.351 323.018L196.351 523.85L418 523.85" stroke="#6E58F1" stroke-opacity="0.1" stroke-width="1.41269"/>
</svg>
