<svg width="162" height="165" viewBox="0 0 162 165" fill="none" xmlns="http://www.w3.org/2000/svg">
<path d="M0 20.7625C0 9.29571 9.1267 0 20.385 0L141.615 0C152.873 0 162 9.29571 162 20.7625L162 144.238C162 155.704 152.873 165 141.615 165L20.385 165C9.1267 165 0 155.704 0 144.238L0 20.7625Z" fill="#6E58F1"/>
<path d="M23.4043 69.818C23.4043 55.5855 34.689 44.0476 48.6099 44.0476H50.0592C55.9478 44.0476 60.7215 48.9282 60.7215 54.9484V84.6875C60.7215 90.7077 55.9478 95.5883 50.0592 95.5883H48.6095C34.689 95.5883 23.4043 84.0508 23.4043 69.818Z" fill="white"/>
<path d="M66.4419 48.5546C66.4419 45.7908 68.0296 43.2847 70.4966 42.1547L107.188 25.3463C111.726 23.2674 116.853 26.6623 116.853 31.7466L116.853 108.359C116.853 113.476 111.666 116.87 107.121 114.728L70.4292 97.4325C67.9985 96.2868 66.4419 93.8002 66.4419 91.0635V87.5169C66.4419 84.5986 68.2089 81.9859 70.879 80.9555L91.3295 73.0633C94.2878 71.9218 94.2878 67.6435 91.3295 66.5016L70.879 58.6098C68.2089 57.5791 66.4419 54.9663 66.4419 52.0484V48.5546Z" fill="white"/>
<path d="M138.609 75.8956V74.3335C138.609 65.7079 131.77 58.7152 123.333 58.7152C122.911 58.7152 122.569 59.0649 122.569 59.4962V90.7329C122.569 91.1642 122.911 91.5139 123.333 91.5139C131.77 91.5139 138.609 84.5212 138.609 75.8956Z" fill="white"/>
<path d="M47.4866 105.137C47.4866 103.814 48.5883 102.741 49.9471 102.741L63.9552 102.741C65.3143 102.741 66.4157 103.814 66.4157 105.137V128.787C66.4157 133.877 62.1784 138.003 56.9513 138.003C51.7242 138.003 47.4866 133.877 47.4866 128.787V105.137Z" fill="white"/>
</svg>
