<svg width="24" height="24" viewBox="0 0 24 24" fill="none" xmlns="http://www.w3.org/2000/svg">
<g clip-path="url(#clip0_83_896)">
<path d="M5.6982 14.8387C5.6982 16.1087 4.66241 17.1461 3.39219 17.1461C2.12197 17.1461 1.08496 16.1087 1.08496 14.8387C1.08496 13.5686 2.12231 12.5312 3.39236 12.5312H5.69838L5.6982 14.8387ZM6.86065 14.8387C6.86065 13.5686 7.89801 12.5313 9.16805 12.5313C10.4381 12.5313 11.4755 13.5684 11.4755 14.8387L11.4755 20.6145C11.4755 21.8846 10.4383 22.9219 9.16805 22.9219C7.89801 22.9219 6.86065 21.8846 6.86065 20.6145L6.86065 14.8387Z" fill="#DE1C59"/>
<path d="M9.16805 5.57467C7.89801 5.57467 6.86065 4.53888 6.86065 3.26865C6.86065 1.99843 7.89801 0.961426 9.16805 0.961426C10.4381 0.961426 11.4755 1.99878 11.4755 3.26883V5.57484L9.16805 5.57467ZM9.16805 6.73712C10.4381 6.73712 11.4755 7.77447 11.4755 9.04452C11.4755 10.3146 10.4383 11.3519 9.16805 11.3519L3.39219 11.3519C2.12214 11.3519 1.08496 10.3147 1.08496 9.04452C1.08496 7.77447 2.12231 6.73712 3.39236 6.73712L9.16805 6.73712Z" fill="#35C5F0"/>
<path d="M18.4316 9.04452C18.4316 7.77447 19.4673 6.73712 20.7376 6.73712C22.0078 6.73712 23.045 7.77447 23.045 9.04452C23.045 10.3146 22.0076 11.3519 20.7376 11.3519H18.4316V9.04452ZM17.2691 9.04452C17.2691 10.3146 16.2317 11.3519 14.9617 11.3519C13.6916 11.3519 12.6543 10.3147 12.6543 9.04452L12.6543 3.26865C12.6543 1.9986 13.6915 0.961426 14.9617 0.961426C16.2317 0.961426 17.2691 1.99878 17.2691 3.26883V9.04452Z" fill="#2EB57D"/>
<path d="M14.9617 18.3085C16.2317 18.3085 17.2691 19.3443 17.2691 20.6145C17.2691 21.8847 16.2317 22.9219 14.9617 22.9219C13.6916 22.9219 12.6543 21.8846 12.6543 20.6145V18.3085H14.9617ZM14.9617 17.1461C13.6916 17.1461 12.6543 16.1087 12.6543 14.8387C12.6543 13.5686 13.6915 12.5312 14.9617 12.5312L20.7376 12.5313C22.0076 12.5313 23.045 13.5684 23.045 14.8387C23.045 16.1087 22.0076 17.1461 20.7376 17.1461H14.9617Z" fill="#EBB02E"/>
</g>
<defs>
<clipPath id="clip0_83_896">
<rect width="22.1782" height="22.1782" fill="white" transform="translate(0.976074 0.852051)"/>
</clipPath>
</defs>
</svg>
