<svg width="86" height="86" viewBox="0 0 86 86" fill="none" xmlns="http://www.w3.org/2000/svg">
<path d="M71.505 41.1171C71.505 60.1299 47.9982 72.5844 43.6054 74.7458C43.161 74.9644 42.645 74.9644 42.2006 74.7457C37.8078 72.5844 14.301 60.1299 14.301 41.1171C14.301 25.0285 28.1597 14.3027 42.903 14.3027C58.1574 14.3027 71.505 25.0285 71.505 41.1171Z" fill="#6E58F1" fill-opacity="0.25" stroke="#6E58F1" stroke-width="3"/>
<path d="M29.6248 44.1396L42.4618 56.9767C42.6698 57.1847 42.7738 57.2887 42.9031 57.2887C43.0323 57.2887 43.1363 57.1847 43.3444 56.9767L56.1814 44.1396C56.7668 43.5543 57.0594 43.2617 57.2896 42.9762C59.004 40.8503 59.2951 37.9104 58.031 35.4896C57.8612 35.1645 57.6316 34.8202 57.1724 34.1314C56.3328 32.8719 55.9129 32.2421 55.5437 31.8427C52.6978 28.7641 47.7811 28.9334 45.1537 32.2005C44.8129 32.6244 44.4373 33.2816 43.6863 34.5959L43.6863 34.5959L43.1818 35.4787L43.1818 35.4788C43.1339 35.5626 43.1099 35.6046 43.0863 35.6285C42.9855 35.7306 42.8207 35.7306 42.7199 35.6285C42.6963 35.6046 42.6723 35.5626 42.6244 35.4788L42.6244 35.4787L42.1199 34.5959C41.3689 33.2816 40.9933 32.6244 40.6525 32.2005C38.0251 28.9334 33.1084 28.7641 30.2625 31.8427C29.8933 32.2421 29.4734 32.8719 28.6337 34.1314L28.6337 34.1314C28.1746 34.8202 27.945 35.1645 27.7752 35.4896C26.5111 37.9104 26.8022 40.8503 28.5165 42.9762C28.7468 43.2617 29.0394 43.5543 29.6248 44.1396Z" fill="white" stroke="#6E58F1" stroke-width="3"/>
</svg>
