<svg width="480" height="266" viewBox="0 0 480 266" fill="none" xmlns="http://www.w3.org/2000/svg">
<g clip-path="url(#clip0_202_534)">
<g filter="url(#filter0_d_202_534)">
<rect x="56.3264" y="-50" width="367.347" height="37.4844" rx="7.49688" fill="white" shape-rendering="crispEdges"/>
</g>
<g opacity="0.8" filter="url(#filter1_df_202_534)">
<rect x="44.0815" y="0.708984" width="391.837" height="48.9796" rx="9.79592" fill="white" shape-rendering="crispEdges"/>
<path d="M74.9014 18.5493V32.1987H72.3233V18.5493H74.9014ZM80.4043 24.4459V26.4802H74.2264V24.4459H80.4043ZM81.1261 18.5493V20.5836H74.2264V18.5493H81.1261ZM82.0448 27.2302V27.0333C82.0448 26.2896 82.1511 25.6052 82.3636 24.9803C82.5761 24.349 82.8854 23.8022 83.2917 23.3397C83.6979 22.8772 84.1948 22.5179 84.7822 22.2616C85.3697 21.9991 86.0384 21.8679 86.7884 21.8679C87.5509 21.8679 88.2259 21.9991 88.8133 22.2616C89.4071 22.5179 89.907 22.8772 90.3133 23.3397C90.7195 23.8022 91.0289 24.349 91.2414 24.9803C91.4539 25.6052 91.5601 26.2896 91.5601 27.0333V27.2302C91.5601 27.9676 91.4539 28.652 91.2414 29.2832C91.0289 29.9082 90.7195 30.455 90.3133 30.9238C89.907 31.3863 89.4102 31.7456 88.8227 32.0019C88.2352 32.2581 87.5634 32.3862 86.8072 32.3862C86.0572 32.3862 85.3853 32.2581 84.7916 32.0019C84.1979 31.7456 83.6979 31.3863 83.2917 30.9238C82.8854 30.455 82.5761 29.9082 82.3636 29.2832C82.1511 28.652 82.0448 27.9676 82.0448 27.2302ZM84.5197 27.0333V27.2302C84.5197 27.6739 84.5635 28.0895 84.651 28.477C84.7385 28.8645 84.8729 29.2051 85.0541 29.4988C85.2353 29.7926 85.4697 30.0238 85.7572 30.1926C86.0509 30.3551 86.4009 30.4363 86.8072 30.4363C87.2071 30.4363 87.5509 30.3551 87.8384 30.1926C88.1259 30.0238 88.3602 29.7926 88.5415 29.4988C88.729 29.2051 88.8665 28.8645 88.9539 28.477C89.0414 28.0895 89.0852 27.6739 89.0852 27.2302V27.0333C89.0852 26.5958 89.0414 26.1865 88.9539 25.8052C88.8665 25.4177 88.729 25.0771 88.5415 24.7834C88.3602 24.4834 88.1227 24.249 87.829 24.0803C87.5415 23.9053 87.1946 23.8178 86.7884 23.8178C86.3884 23.8178 86.0447 23.9053 85.7572 24.0803C85.4697 24.249 85.2353 24.4834 85.0541 24.7834C84.8729 25.0771 84.7385 25.4177 84.651 25.8052C84.5635 26.1865 84.5197 26.5958 84.5197 27.0333ZM95.9849 17.7993V32.1987H93.5006V17.7993H95.9849ZM100.972 17.7993V32.1987H98.488V17.7993H100.972ZM102.894 27.2302V27.0333C102.894 26.2896 103 25.6052 103.213 24.9803C103.425 24.349 103.735 23.8022 104.141 23.3397C104.547 22.8772 105.044 22.5179 105.631 22.2616C106.219 21.9991 106.888 21.8679 107.638 21.8679C108.4 21.8679 109.075 21.9991 109.663 22.2616C110.256 22.5179 110.756 22.8772 111.162 23.3397C111.569 23.8022 111.878 24.349 112.091 24.9803C112.303 25.6052 112.409 26.2896 112.409 27.0333V27.2302C112.409 27.9676 112.303 28.652 112.091 29.2832C111.878 29.9082 111.569 30.455 111.162 30.9238C110.756 31.3863 110.259 31.7456 109.672 32.0019C109.084 32.2581 108.413 32.3862 107.656 32.3862C106.906 32.3862 106.235 32.2581 105.641 32.0019C105.047 31.7456 104.547 31.3863 104.141 30.9238C103.735 30.455 103.425 29.9082 103.213 29.2832C103 28.652 102.894 27.9676 102.894 27.2302ZM105.369 27.0333V27.2302C105.369 27.6739 105.413 28.0895 105.5 28.477C105.588 28.8645 105.722 29.2051 105.903 29.4988C106.085 29.7926 106.319 30.0238 106.606 30.1926C106.9 30.3551 107.25 30.4363 107.656 30.4363C108.056 30.4363 108.4 30.3551 108.688 30.1926C108.975 30.0238 109.209 29.7926 109.391 29.4988C109.578 29.2051 109.716 28.8645 109.803 28.477C109.891 28.0895 109.934 27.6739 109.934 27.2302V27.0333C109.934 26.5958 109.891 26.1865 109.803 25.8052C109.716 25.4177 109.578 25.0771 109.391 24.7834C109.209 24.4834 108.972 24.249 108.678 24.0803C108.391 23.9053 108.044 23.8178 107.638 23.8178C107.238 23.8178 106.894 23.9053 106.606 24.0803C106.319 24.249 106.085 24.4834 105.903 24.7834C105.722 25.0771 105.588 25.4177 105.5 25.8052C105.413 26.1865 105.369 26.5958 105.369 27.0333ZM117.031 29.7613L119.253 22.0554H120.828L120.359 24.7178L118.118 32.1987H116.759L117.031 29.7613ZM115.803 22.0554L117.472 29.7801L117.622 32.1987H116.056L113.394 22.0554H115.803ZM122.89 29.6676L124.521 22.0554H126.921L124.278 32.1987H122.712L122.89 29.6676ZM121.071 22.0554L123.275 29.6863L123.565 32.1987H122.206L119.947 24.7178L119.487 22.0554H121.071ZM140.946 18.5493H143.524V27.6145C143.524 28.6582 143.299 29.5363 142.849 30.2488C142.399 30.955 141.786 31.4894 141.011 31.8519C140.236 32.2081 139.355 32.3862 138.368 32.3862C137.368 32.3862 136.477 32.2081 135.696 31.8519C134.915 31.4894 134.302 30.955 133.858 30.2488C133.415 29.5363 133.193 28.6582 133.193 27.6145V18.5493H135.771V27.6145C135.771 28.252 135.877 28.7739 136.09 29.1801C136.302 29.5801 136.602 29.8769 136.99 30.0707C137.377 30.2644 137.836 30.3613 138.368 30.3613C138.905 30.3613 139.365 30.2644 139.746 30.0707C140.133 29.8769 140.43 29.5801 140.636 29.1801C140.843 28.7739 140.946 28.252 140.946 27.6145V18.5493ZM148.258 24.0053V36.0986H145.774V22.0554H148.07L148.258 24.0053ZM154.773 27.0239V27.2208C154.773 27.9583 154.686 28.6426 154.511 29.2738C154.342 29.8988 154.092 30.4457 153.761 30.9144C153.43 31.3769 153.017 31.7394 152.523 32.0019C152.036 32.2581 151.473 32.3862 150.836 32.3862C150.211 32.3862 149.667 32.2675 149.205 32.03C148.742 31.7862 148.352 31.4425 148.033 30.9988C147.714 30.555 147.458 30.0394 147.264 29.452C147.077 28.8582 146.936 28.2114 146.842 27.5114V26.8833C146.936 26.1396 147.077 25.4646 147.264 24.8584C147.458 24.2459 147.714 23.7178 148.033 23.2741C148.352 22.8241 148.739 22.4772 149.195 22.2335C149.658 21.9897 150.198 21.8679 150.817 21.8679C151.461 21.8679 152.027 21.9897 152.514 22.2335C153.008 22.4772 153.423 22.8272 153.761 23.2834C154.098 23.7397 154.351 24.2834 154.52 24.9146C154.689 25.5459 154.773 26.249 154.773 27.0239ZM152.289 27.2208V27.0239C152.289 26.5739 152.248 26.1583 152.167 25.7771C152.086 25.3896 151.961 25.0521 151.792 24.7646C151.623 24.4709 151.405 24.2428 151.136 24.0803C150.867 23.9178 150.542 23.8366 150.161 23.8366C149.78 23.8366 149.452 23.8991 149.177 24.024C148.902 24.149 148.677 24.3272 148.502 24.5584C148.327 24.7896 148.189 25.0646 148.089 25.3834C147.995 25.6959 147.933 26.0427 147.902 26.424V27.9801C147.958 28.4426 148.067 28.8582 148.23 29.227C148.392 29.5957 148.63 29.8894 148.942 30.1082C149.261 30.3269 149.673 30.4363 150.18 30.4363C150.561 30.4363 150.886 30.3519 151.155 30.1832C151.423 30.0144 151.642 29.7832 151.811 29.4895C151.98 29.1895 152.102 28.8457 152.177 28.4582C152.252 28.0708 152.289 27.6583 152.289 27.2208Z" fill="#6E58F1"/>
<path d="M325.269 28.76V29.6987H320.917V28.76H325.269ZM321.144 20.9934V29.6987H319.99V20.9934H321.144ZM329.108 29.8183C328.657 29.8183 328.249 29.7426 327.882 29.5911C327.519 29.4357 327.207 29.2184 326.943 28.9394C326.684 28.6604 326.485 28.3295 326.346 27.9469C326.206 27.5642 326.136 27.1457 326.136 26.6913V26.4402C326.136 25.9141 326.214 25.4457 326.369 25.0351C326.525 24.6206 326.736 24.2698 327.003 23.9829C327.27 23.6959 327.573 23.4786 327.912 23.3311C328.251 23.1837 328.602 23.1099 328.964 23.1099C329.427 23.1099 329.825 23.1896 330.16 23.3491C330.499 23.5085 330.776 23.7317 330.991 24.0187C331.206 24.3017 331.366 24.6365 331.47 25.0232C331.573 25.4058 331.625 25.8244 331.625 26.2788V26.775H326.794V25.8722H330.519V25.7885C330.503 25.5015 330.443 25.2225 330.34 24.9514C330.24 24.6804 330.08 24.4572 329.861 24.2818C329.642 24.1064 329.343 24.0187 328.964 24.0187C328.713 24.0187 328.482 24.0725 328.271 24.1802C328.06 24.2838 327.878 24.4392 327.727 24.6465C327.575 24.8538 327.458 25.1069 327.374 25.4058C327.29 25.7048 327.248 26.0496 327.248 26.4402V26.6913C327.248 26.9982 327.29 27.2872 327.374 27.5583C327.462 27.8253 327.587 28.0605 327.751 28.2638C327.918 28.4671 328.119 28.6265 328.354 28.7421C328.594 28.8577 328.865 28.9155 329.168 28.9155C329.558 28.9155 329.889 28.8358 330.16 28.6763C330.431 28.5169 330.668 28.3036 330.872 28.0366L331.541 28.5687C331.402 28.78 331.224 28.9813 331.009 29.1726C330.794 29.3639 330.529 29.5194 330.214 29.6389C329.903 29.7585 329.534 29.8183 329.108 29.8183ZM336.731 28.5926V25.2623C336.731 25.0072 336.679 24.786 336.576 24.5987C336.476 24.4074 336.324 24.2599 336.121 24.1562C335.918 24.0526 335.667 24.0008 335.368 24.0008C335.089 24.0008 334.844 24.0486 334.632 24.1443C334.425 24.2399 334.262 24.3655 334.142 24.521C334.027 24.6764 333.969 24.8438 333.969 25.0232H332.863C332.863 24.792 332.922 24.5628 333.042 24.3356C333.162 24.1084 333.333 23.9031 333.556 23.7198C333.783 23.5324 334.054 23.385 334.369 23.2773C334.688 23.1657 335.043 23.1099 335.434 23.1099C335.904 23.1099 336.318 23.1896 336.677 23.3491C337.04 23.5085 337.323 23.7497 337.526 24.0725C337.733 24.3914 337.837 24.792 337.837 25.2743V28.2877C337.837 28.5029 337.855 28.7321 337.891 28.9753C337.931 29.2184 337.989 29.4277 338.064 29.6031V29.6987H336.91C336.855 29.5712 336.811 29.4018 336.779 29.1905C336.747 28.9753 336.731 28.776 336.731 28.5926ZM336.922 25.7765L336.934 26.5538H335.816C335.501 26.5538 335.22 26.5797 334.973 26.6315C334.726 26.6794 334.519 26.7531 334.351 26.8527C334.184 26.9524 334.056 27.078 333.969 27.2294C333.881 27.3769 333.837 27.5503 333.837 27.7496C333.837 27.9529 333.883 28.1382 333.975 28.3056C334.066 28.473 334.204 28.6066 334.387 28.7062C334.575 28.8019 334.804 28.8497 335.075 28.8497C335.414 28.8497 335.713 28.778 335.972 28.6345C336.231 28.491 336.436 28.3156 336.588 28.1083C336.743 27.9011 336.827 27.6998 336.839 27.5045L337.311 28.0366C337.283 28.204 337.207 28.3893 337.084 28.5926C336.96 28.7959 336.795 28.9912 336.588 29.1786C336.384 29.3619 336.141 29.5154 335.858 29.6389C335.579 29.7585 335.264 29.8183 334.913 29.8183C334.475 29.8183 334.09 29.7326 333.759 29.5612C333.433 29.3898 333.178 29.1606 332.994 28.8736C332.815 28.5827 332.725 28.2578 332.725 27.8991C332.725 27.5523 332.793 27.2474 332.928 26.9843C333.064 26.7172 333.259 26.496 333.514 26.3206C333.769 26.1413 334.076 26.0057 334.435 25.9141C334.794 25.8224 335.194 25.7765 335.637 25.7765H336.922ZM343.655 28.4432V20.5151H344.767V29.6987H343.75L343.655 28.4432ZM339.302 26.5359V26.4103C339.302 25.916 339.362 25.4676 339.481 25.065C339.605 24.6585 339.778 24.3097 340.001 24.0187C340.229 23.7277 340.498 23.5045 340.809 23.3491C341.124 23.1896 341.474 23.1099 341.861 23.1099C342.268 23.1099 342.622 23.1817 342.925 23.3252C343.232 23.4647 343.491 23.67 343.702 23.941C343.918 24.2081 344.087 24.5309 344.211 24.9096C344.334 25.2883 344.42 25.7167 344.468 26.1951V26.7451C344.424 27.2195 344.338 27.646 344.211 28.0246C344.087 28.4033 343.918 28.7262 343.702 28.9932C343.491 29.2603 343.232 29.4656 342.925 29.609C342.618 29.7486 342.26 29.8183 341.849 29.8183C341.47 29.8183 341.124 29.7366 340.809 29.5732C340.498 29.4097 340.229 29.1806 340.001 28.8856C339.778 28.5906 339.605 28.2439 339.481 27.8453C339.362 27.4427 339.302 27.0062 339.302 26.5359ZM340.414 26.4103V26.5359C340.414 26.8587 340.446 27.1617 340.51 27.4447C340.577 27.7277 340.681 27.9768 340.821 28.192C340.96 28.4073 341.137 28.5767 341.353 28.7002C341.568 28.8198 341.825 28.8796 342.124 28.8796C342.491 28.8796 342.792 28.8019 343.027 28.6464C343.266 28.491 343.457 28.2857 343.601 28.0306C343.744 27.7755 343.856 27.4985 343.936 27.1995V25.7586C343.888 25.5394 343.818 25.3281 343.726 25.1248C343.639 24.9176 343.523 24.7342 343.38 24.5748C343.24 24.4113 343.067 24.2818 342.859 24.1861C342.656 24.0905 342.415 24.0426 342.136 24.0426C341.833 24.0426 341.572 24.1064 341.353 24.234C341.137 24.3575 340.96 24.5289 340.821 24.7482C340.681 24.9634 340.577 25.2145 340.51 25.5015C340.446 25.7845 340.414 26.0874 340.414 26.4103ZM356.127 25.364V28.5508C356.019 28.7102 355.848 28.8896 355.613 29.0889C355.377 29.2842 355.053 29.4556 354.638 29.6031C354.227 29.7466 353.697 29.8183 353.048 29.8183C352.517 29.8183 352.029 29.7266 351.583 29.5433C351.14 29.3559 350.756 29.0849 350.429 28.7301C350.106 28.3714 349.855 27.9369 349.675 27.4267C349.5 26.9125 349.412 26.3306 349.412 25.6809V25.0053C349.412 24.3555 349.488 23.7756 349.64 23.2654C349.795 22.7552 350.022 22.3227 350.321 21.9679C350.62 21.6092 350.987 21.3382 351.421 21.1548C351.856 20.9675 352.354 20.8738 352.916 20.8738C353.582 20.8738 354.138 20.9894 354.584 21.2206C355.035 21.4478 355.385 21.7627 355.636 22.1652C355.892 22.5678 356.055 23.0262 356.127 23.5404H354.973C354.921 23.2255 354.817 22.9385 354.662 22.6794C354.51 22.4204 354.293 22.2131 354.01 22.0576C353.727 21.8982 353.362 21.8185 352.916 21.8185C352.513 21.8185 352.165 21.8922 351.87 22.0397C351.575 22.1872 351.332 22.3984 351.14 22.6735C350.949 22.9485 350.805 23.2813 350.71 23.6719C350.618 24.0626 350.572 24.503 350.572 24.9933V25.6809C350.572 26.1831 350.63 26.6315 350.746 27.0261C350.865 27.4207 351.035 27.7576 351.254 28.0366C351.473 28.3116 351.734 28.5209 352.037 28.6644C352.344 28.8079 352.683 28.8796 353.054 28.8796C353.464 28.8796 353.797 28.8457 354.052 28.778C354.307 28.7062 354.506 28.6225 354.65 28.5269C354.793 28.4272 354.903 28.3335 354.979 28.2458V26.2967H352.964V25.364H356.127ZM360.557 29.8183C360.107 29.8183 359.698 29.7426 359.331 29.5911C358.969 29.4357 358.656 29.2184 358.393 28.9394C358.134 28.6604 357.934 28.3295 357.795 27.9469C357.655 27.5642 357.586 27.1457 357.586 26.6913V26.4402C357.586 25.9141 357.663 25.4457 357.819 25.0351C357.974 24.6206 358.185 24.2698 358.453 23.9829C358.72 23.6959 359.023 23.4786 359.361 23.3311C359.7 23.1837 360.051 23.1099 360.414 23.1099C360.876 23.1099 361.275 23.1896 361.609 23.3491C361.948 23.5085 362.225 23.7317 362.441 24.0187C362.656 24.3017 362.815 24.6365 362.919 25.0232C363.022 25.4058 363.074 25.8244 363.074 26.2788V26.775H358.243V25.8722H361.968V25.7885C361.952 25.5015 361.892 25.2225 361.789 24.9514C361.689 24.6804 361.53 24.4572 361.31 24.2818C361.091 24.1064 360.792 24.0187 360.414 24.0187C360.163 24.0187 359.931 24.0725 359.72 24.1802C359.509 24.2838 359.327 24.4392 359.176 24.6465C359.025 24.8538 358.907 25.1069 358.823 25.4058C358.74 25.7048 358.698 26.0496 358.698 26.4402V26.6913C358.698 26.9982 358.74 27.2872 358.823 27.5583C358.911 27.8253 359.036 28.0605 359.2 28.2638C359.367 28.4671 359.569 28.6265 359.804 28.7421C360.043 28.8577 360.314 28.9155 360.617 28.9155C361.008 28.9155 361.338 28.8358 361.609 28.6763C361.88 28.5169 362.118 28.3036 362.321 28.0366L362.991 28.5687C362.851 28.78 362.674 28.9813 362.458 29.1726C362.243 29.3639 361.978 29.5194 361.663 29.6389C361.352 29.7585 360.984 29.8183 360.557 29.8183ZM365.472 24.6106V29.6987H364.366V23.2295H365.412L365.472 24.6106ZM365.209 26.219L364.748 26.201C364.752 25.7586 364.818 25.35 364.946 24.9754C365.073 24.5967 365.253 24.2678 365.484 23.9888C365.715 23.7098 365.99 23.4946 366.309 23.3431C366.632 23.1876 366.988 23.1099 367.379 23.1099C367.698 23.1099 367.985 23.1538 368.24 23.2415C368.495 23.3252 368.712 23.4607 368.892 23.648C369.075 23.8354 369.215 24.0785 369.31 24.3775C369.406 24.6724 369.454 25.0332 369.454 25.4597V29.6987H368.342V25.4477C368.342 25.1089 368.292 24.8378 368.192 24.6346C368.093 24.4273 367.947 24.2778 367.756 24.1861C367.564 24.0905 367.329 24.0426 367.05 24.0426C366.775 24.0426 366.524 24.1004 366.297 24.216C366.074 24.3316 365.88 24.4911 365.717 24.6943C365.558 24.8976 365.432 25.1308 365.34 25.3939C365.253 25.653 365.209 25.928 365.209 26.219ZM373.818 29.8183C373.368 29.8183 372.959 29.7426 372.593 29.5911C372.23 29.4357 371.917 29.2184 371.654 28.9394C371.395 28.6604 371.196 28.3295 371.056 27.9469C370.917 27.5642 370.847 27.1457 370.847 26.6913V26.4402C370.847 25.9141 370.925 25.4457 371.08 25.0351C371.236 24.6206 371.447 24.2698 371.714 23.9829C371.981 23.6959 372.284 23.4786 372.623 23.3311C372.961 23.1837 373.312 23.1099 373.675 23.1099C374.137 23.1099 374.536 23.1896 374.871 23.3491C375.21 23.5085 375.487 23.7317 375.702 24.0187C375.917 24.3017 376.077 24.6365 376.18 25.0232C376.284 25.4058 376.336 25.8244 376.336 26.2788V26.775H371.505V25.8722H375.229V25.7885C375.214 25.5015 375.154 25.2225 375.05 24.9514C374.95 24.6804 374.791 24.4572 374.572 24.2818C374.353 24.1064 374.054 24.0187 373.675 24.0187C373.424 24.0187 373.193 24.0725 372.981 24.1802C372.77 24.2838 372.589 24.4392 372.437 24.6465C372.286 24.8538 372.168 25.1069 372.085 25.4058C372.001 25.7048 371.959 26.0496 371.959 26.4402V26.6913C371.959 26.9982 372.001 27.2872 372.085 27.5583C372.172 27.8253 372.298 28.0605 372.461 28.2638C372.629 28.4671 372.83 28.6265 373.065 28.7421C373.304 28.8577 373.575 28.9155 373.878 28.9155C374.269 28.9155 374.6 28.8358 374.871 28.6763C375.142 28.5169 375.379 28.3036 375.582 28.0366L376.252 28.5687C376.112 28.78 375.935 28.9813 375.72 29.1726C375.505 29.3639 375.239 29.5194 374.925 29.6389C374.614 29.7585 374.245 29.8183 373.818 29.8183ZM378.733 24.2459V29.6987H377.627V23.2295H378.703L378.733 24.2459ZM380.754 23.1936L380.748 24.222C380.656 24.2021 380.569 24.1901 380.485 24.1861C380.405 24.1782 380.314 24.1742 380.21 24.1742C379.955 24.1742 379.73 24.214 379.534 24.2938C379.339 24.3735 379.174 24.4851 379.038 24.6286C378.903 24.7721 378.795 24.9435 378.715 25.1428C378.639 25.3381 378.59 25.5533 378.566 25.7885L378.255 25.9679C378.255 25.5772 378.293 25.2105 378.368 24.8677C378.448 24.5249 378.57 24.222 378.733 23.9589C378.897 23.6919 379.104 23.4846 379.355 23.3371C379.61 23.1857 379.913 23.1099 380.264 23.1099C380.343 23.1099 380.435 23.1199 380.539 23.1398C380.642 23.1558 380.714 23.1737 380.754 23.1936ZM385.352 28.5926V25.2623C385.352 25.0072 385.3 24.786 385.196 24.5987C385.097 24.4074 384.945 24.2599 384.742 24.1562C384.539 24.0526 384.288 24.0008 383.989 24.0008C383.71 24.0008 383.465 24.0486 383.253 24.1443C383.046 24.2399 382.883 24.3655 382.763 24.521C382.647 24.6764 382.59 24.8438 382.59 25.0232H381.483C381.483 24.792 381.543 24.5628 381.663 24.3356C381.782 24.1084 381.954 23.9031 382.177 23.7198C382.404 23.5324 382.675 23.385 382.99 23.2773C383.309 23.1657 383.664 23.1099 384.054 23.1099C384.525 23.1099 384.939 23.1896 385.298 23.3491C385.661 23.5085 385.944 23.7497 386.147 24.0725C386.354 24.3914 386.458 24.792 386.458 25.2743V28.2877C386.458 28.5029 386.476 28.7321 386.512 28.9753C386.552 29.2184 386.609 29.4277 386.685 29.6031V29.6987H385.531C385.475 29.5712 385.432 29.4018 385.4 29.1905C385.368 28.9753 385.352 28.776 385.352 28.5926ZM385.543 25.7765L385.555 26.5538H384.437C384.122 26.5538 383.841 26.5797 383.594 26.6315C383.347 26.6794 383.14 26.7531 382.972 26.8527C382.805 26.9524 382.677 27.078 382.59 27.2294C382.502 27.3769 382.458 27.5503 382.458 27.7496C382.458 27.9529 382.504 28.1382 382.596 28.3056C382.687 28.473 382.825 28.6066 383.008 28.7062C383.195 28.8019 383.425 28.8497 383.696 28.8497C384.034 28.8497 384.333 28.778 384.593 28.6345C384.852 28.491 385.057 28.3156 385.208 28.1083C385.364 27.9011 385.448 27.6998 385.459 27.5045L385.932 28.0366C385.904 28.204 385.828 28.3893 385.705 28.5926C385.581 28.7959 385.416 28.9912 385.208 29.1786C385.005 29.3619 384.762 29.5154 384.479 29.6389C384.2 29.7585 383.885 29.8183 383.534 29.8183C383.096 29.8183 382.711 29.7326 382.38 29.5612C382.053 29.3898 381.798 29.1606 381.615 28.8736C381.436 28.5827 381.346 28.2578 381.346 27.8991C381.346 27.5523 381.414 27.2474 381.549 26.9843C381.685 26.7172 381.88 26.496 382.135 26.3206C382.39 26.1413 382.697 26.0057 383.056 25.9141C383.415 25.8224 383.815 25.7765 384.258 25.7765H385.543ZM390.906 23.2295V24.0785H387.409V23.2295H390.906ZM388.592 21.657H389.699V28.0964C389.699 28.3156 389.732 28.481 389.8 28.5926C389.868 28.7042 389.956 28.778 390.063 28.8138C390.171 28.8497 390.286 28.8677 390.41 28.8677C390.502 28.8677 390.597 28.8597 390.697 28.8437C390.801 28.8238 390.878 28.8079 390.93 28.7959L390.936 29.6987C390.849 29.7266 390.733 29.7525 390.589 29.7765C390.45 29.8044 390.281 29.8183 390.081 29.8183C389.81 29.8183 389.561 29.7645 389.334 29.6569C389.107 29.5493 388.925 29.3699 388.79 29.1188C388.658 28.8637 388.592 28.5209 388.592 28.0904V21.657ZM393.406 23.2295V29.6987H392.293V23.2295H393.406ZM392.21 21.5135C392.21 21.3342 392.264 21.1827 392.371 21.0591C392.483 20.9356 392.646 20.8738 392.861 20.8738C393.073 20.8738 393.234 20.9356 393.346 21.0591C393.461 21.1827 393.519 21.3342 393.519 21.5135C393.519 21.6849 393.461 21.8324 393.346 21.956C393.234 22.0756 393.073 22.1354 392.861 22.1354C392.646 22.1354 392.483 22.0756 392.371 21.956C392.264 21.8324 392.21 21.6849 392.21 21.5135ZM394.888 26.5359V26.3983C394.888 25.932 394.956 25.4995 395.092 25.1009C395.227 24.6983 395.422 24.3496 395.678 24.0546C395.933 23.7557 396.242 23.5245 396.604 23.361C396.967 23.1936 397.374 23.1099 397.824 23.1099C398.278 23.1099 398.687 23.1936 399.05 23.361C399.416 23.5245 399.727 23.7557 399.982 24.0546C400.241 24.3496 400.439 24.6983 400.574 25.1009C400.71 25.4995 400.778 25.932 400.778 26.3983V26.5359C400.778 27.0022 400.71 27.4347 400.574 27.8333C400.439 28.2319 400.241 28.5807 399.982 28.8796C399.727 29.1746 399.418 29.4058 399.056 29.5732C398.697 29.7366 398.29 29.8183 397.836 29.8183C397.382 29.8183 396.973 29.7366 396.61 29.5732C396.248 29.4058 395.937 29.1746 395.678 28.8796C395.422 28.5807 395.227 28.2319 395.092 27.8333C394.956 27.4347 394.888 27.0022 394.888 26.5359ZM395.994 26.3983V26.5359C395.994 26.8587 396.032 27.1637 396.108 27.4506C396.184 27.7336 396.297 27.9848 396.449 28.204C396.604 28.4232 396.798 28.5966 397.029 28.7242C397.26 28.8477 397.529 28.9095 397.836 28.9095C398.139 28.9095 398.404 28.8477 398.631 28.7242C398.862 28.5966 399.054 28.4232 399.205 28.204C399.357 27.9848 399.47 27.7336 399.546 27.4506C399.626 27.1637 399.665 26.8587 399.665 26.5359V26.3983C399.665 26.0795 399.626 25.7785 399.546 25.4955C399.47 25.2085 399.355 24.9554 399.199 24.7362C399.048 24.513 398.856 24.3376 398.625 24.2101C398.398 24.0825 398.131 24.0187 397.824 24.0187C397.521 24.0187 397.254 24.0825 397.023 24.2101C396.796 24.3376 396.604 24.513 396.449 24.7362C396.297 24.9554 396.184 25.2085 396.108 25.4955C396.032 25.7785 395.994 26.0795 395.994 26.3983ZM403.271 24.6106V29.6987H402.165V23.2295H403.211L403.271 24.6106ZM403.008 26.219L402.547 26.201C402.551 25.7586 402.617 25.35 402.745 24.9754C402.872 24.5967 403.052 24.2678 403.283 23.9888C403.514 23.7098 403.789 23.4946 404.108 23.3431C404.431 23.1876 404.787 23.1099 405.178 23.1099C405.497 23.1099 405.784 23.1538 406.039 23.2415C406.294 23.3252 406.511 23.4607 406.691 23.648C406.874 23.8354 407.014 24.0785 407.109 24.3775C407.205 24.6724 407.253 25.0332 407.253 25.4597V29.6987H406.141V25.4477C406.141 25.1089 406.091 24.8378 405.991 24.6346C405.892 24.4273 405.746 24.2778 405.555 24.1861C405.363 24.0905 405.128 24.0426 404.849 24.0426C404.574 24.0426 404.323 24.1004 404.096 24.216C403.873 24.3316 403.679 24.4911 403.516 24.6943C403.356 24.8976 403.231 25.1308 403.139 25.3939C403.052 25.653 403.008 25.928 403.008 26.219Z" fill="#7A7A7A"/>
</g>
<g filter="url(#filter2_df_202_534)">
<rect x="44.0801" y="62.9128" width="391.84" height="39.9837" rx="7.99673" fill="white" shape-rendering="crispEdges"/>
<path d="M74.206 86.2518V87.9048H68.6041V86.2518H74.206ZM69.2393 76.7623V87.9048H67.1348V76.7623H69.2393ZM79.1803 88.0578C78.5528 88.0578 77.9891 87.9558 77.4891 87.7517C76.9891 87.5477 76.5631 87.2645 76.211 86.9023C75.8641 86.5349 75.5963 86.1089 75.4075 85.6242C75.2238 85.1345 75.132 84.609 75.132 84.0478V83.7416C75.132 83.1039 75.2238 82.5248 75.4075 82.0045C75.5912 81.479 75.8514 81.0274 76.1881 80.6499C76.5248 80.2724 76.9279 79.9816 77.3972 79.7775C77.8666 79.5734 78.3844 79.4714 78.9508 79.4714C79.5375 79.4714 80.0553 79.5709 80.5043 79.7698C80.9532 79.9637 81.3282 80.2392 81.6292 80.5963C81.9303 80.9535 82.1573 81.382 82.3104 81.882C82.4634 82.3769 82.5399 82.9253 82.5399 83.5274V84.3768H76.0503V82.984H80.5502V82.831C80.54 82.5095 80.4788 82.2162 80.3665 81.9509C80.2543 81.6805 80.0808 81.4662 79.8461 81.308C79.6115 81.1448 79.3079 81.0632 78.9355 81.0632C78.6344 81.0632 78.3717 81.1295 78.1472 81.2621C77.9278 81.3897 77.7442 81.5733 77.5962 81.8131C77.4534 82.0478 77.3462 82.3284 77.2748 82.6549C77.2034 82.9815 77.1676 83.3437 77.1676 83.7416V84.0478C77.1676 84.3947 77.2136 84.7161 77.3054 85.012C77.4023 85.3079 77.5426 85.5656 77.7263 85.785C77.9151 85.9992 78.1396 86.1676 78.3998 86.29C78.6651 86.4074 78.9661 86.4661 79.3028 86.4661C79.7262 86.4661 80.1089 86.3844 80.4507 86.2212C80.7976 86.0528 81.0987 85.8054 81.3537 85.4788L82.3716 86.5349C82.1981 86.79 81.9634 87.0349 81.6675 87.2696C81.3767 87.5043 81.0247 87.6956 80.6114 87.8436C80.1982 87.9864 79.7211 88.0578 79.1803 88.0578ZM88.4556 86.1446V82.3259C88.4556 82.0453 88.4071 81.8029 88.3102 81.5989C88.2132 81.3948 88.0653 81.2366 87.8663 81.1244C87.6673 81.0121 87.4148 80.956 87.1087 80.956C86.8383 80.956 86.601 81.0019 86.397 81.0938C86.198 81.1856 86.0449 81.3157 85.9378 81.4841C85.8307 81.6473 85.7771 81.8361 85.7771 82.0504H83.7491C83.7491 81.7085 83.8307 81.3846 83.994 81.0785C84.1572 80.7672 84.3894 80.4917 84.6904 80.252C84.9965 80.0071 85.3613 79.8157 85.7847 79.678C86.2133 79.5402 86.6929 79.4714 87.2235 79.4714C87.851 79.4714 88.4097 79.5785 88.8994 79.7928C89.3943 80.002 89.7821 80.3183 90.0627 80.7417C90.3484 81.1652 90.4912 81.6983 90.4912 82.3412V85.9533C90.4912 86.3666 90.5167 86.7211 90.5678 87.0171C90.6239 87.3079 90.7055 87.5604 90.8126 87.7747V87.9048H88.754C88.6571 87.6956 88.5831 87.4303 88.5321 87.1089C88.4811 86.7824 88.4556 86.461 88.4556 86.1446ZM88.7387 82.8616L88.754 84.0631H87.476C87.1597 84.0631 86.8816 84.0962 86.6419 84.1626C86.4021 84.2238 86.2056 84.3156 86.0526 84.4381C85.8995 84.5554 85.7847 84.6982 85.7082 84.8666C85.6317 85.0299 85.5934 85.2161 85.5934 85.4253C85.5934 85.6293 85.6393 85.813 85.7312 85.9763C85.8281 86.1395 85.9659 86.2696 86.1444 86.3666C86.3281 86.4584 86.5424 86.5043 86.7873 86.5043C87.1444 86.5043 87.4556 86.4329 87.7209 86.29C87.9862 86.1421 88.1928 85.9635 88.3408 85.7543C88.4887 85.5452 88.5678 85.3462 88.578 85.1574L89.1596 86.0298C89.0882 86.239 88.9811 86.461 88.8382 86.6956C88.6954 86.9303 88.5117 87.1497 88.2872 87.3538C88.0627 87.5579 87.7923 87.7262 87.476 87.8589C87.1597 87.9915 86.7924 88.0578 86.374 88.0578C85.8383 88.0578 85.3587 87.9507 84.9353 87.7364C84.5118 87.5221 84.1776 87.2288 83.9327 86.8563C83.6879 86.4839 83.5654 86.0605 83.5654 85.586C83.5654 85.1472 83.647 84.7595 83.8103 84.4227C83.9736 84.086 84.2159 83.8029 84.5373 83.5733C84.8587 83.3386 85.2567 83.1626 85.7312 83.0452C86.2107 82.9228 86.7592 82.8616 87.3765 82.8616H88.7387ZM97.2793 86.1446V76.15H99.3149V87.9048H97.4783L97.2793 86.1446ZM91.9606 83.8641V83.7034C91.9606 83.0707 92.032 82.4968 92.1748 81.9815C92.3228 81.4611 92.5371 81.0147 92.8177 80.6422C93.0983 80.2698 93.4376 79.9816 93.8355 79.7775C94.2386 79.5734 94.6952 79.4714 95.2054 79.4714C95.7003 79.4714 96.1314 79.5709 96.4987 79.7698C96.8711 79.9688 97.1875 80.252 97.4476 80.6193C97.7129 80.9866 97.9247 81.4228 98.0828 81.9279C98.241 82.4279 98.3558 82.9789 98.4272 83.5809V84.0171C98.3558 84.6039 98.241 85.1421 98.0828 85.6319C97.9247 86.1217 97.7129 86.5502 97.4476 86.9176C97.1875 87.2798 96.8711 87.5604 96.4987 87.7594C96.1263 87.9584 95.69 88.0578 95.1901 88.0578C94.685 88.0578 94.2309 87.9533 93.8279 87.7441C93.4299 87.5349 93.0906 87.2415 92.81 86.864C92.5345 86.4865 92.3228 86.0426 92.1748 85.5324C92.032 85.0222 91.9606 84.4661 91.9606 83.8641ZM93.9886 83.7034V83.8641C93.9886 84.2212 94.0192 84.5554 94.0804 84.8666C94.1416 85.1778 94.2411 85.4533 94.3789 85.6931C94.5166 85.9278 94.6926 86.1115 94.9069 86.2441C95.1263 86.3768 95.3916 86.4431 95.7028 86.4431C96.1008 86.4431 96.4273 86.3564 96.6824 86.1829C96.9426 86.0043 97.1441 85.762 97.2869 85.4559C97.4298 85.1447 97.5216 84.7952 97.5624 84.4074V83.2059C97.542 82.8998 97.4885 82.6167 97.4017 82.3565C97.3201 82.0963 97.2028 81.8718 97.0497 81.683C96.9017 81.4943 96.7181 81.3463 96.4987 81.2392C96.2793 81.132 96.0191 81.0785 95.7181 81.0785C95.4069 81.0785 95.1416 81.1473 94.9222 81.2851C94.7028 81.4177 94.5243 81.604 94.3865 81.8437C94.2488 82.0835 94.1467 82.3616 94.0804 82.6779C94.0192 82.9942 93.9886 83.336 93.9886 83.7034ZM113.894 82.1422V86.4814C113.73 86.6905 113.473 86.9176 113.121 87.1625C112.774 87.4074 112.32 87.6191 111.758 87.7976C111.197 87.9711 110.508 88.0578 109.692 88.0578C108.983 88.0578 108.335 87.9405 107.748 87.7058C107.162 87.466 106.657 87.1165 106.233 86.6574C105.81 86.1982 105.483 85.637 105.254 84.9738C105.024 84.3105 104.909 83.5529 104.909 82.7009V81.9662C104.909 81.1142 105.016 80.3565 105.231 79.6933C105.45 79.0301 105.761 78.4688 106.164 78.0097C106.572 77.5505 107.06 77.201 107.626 76.9612C108.197 76.7214 108.835 76.6016 109.539 76.6016C110.483 76.6016 111.258 76.7572 111.866 77.0684C112.478 77.3796 112.947 77.8082 113.274 78.3541C113.6 78.8949 113.804 79.5173 113.886 80.2213H111.835C111.779 79.8336 111.667 79.4943 111.498 79.2035C111.33 78.9076 111.09 78.678 110.779 78.5148C110.473 78.3464 110.075 78.2622 109.585 78.2622C109.172 78.2622 108.807 78.3438 108.491 78.5071C108.174 78.6704 107.909 78.9076 107.695 79.2188C107.481 79.53 107.317 79.9152 107.205 80.3744C107.098 80.8336 107.044 81.3591 107.044 81.9509V82.7009C107.044 83.2978 107.106 83.8284 107.228 84.2926C107.35 84.7518 107.526 85.1396 107.756 85.4559C107.991 85.7671 108.279 86.0043 108.621 86.1676C108.968 86.3258 109.361 86.4048 109.799 86.4048C110.197 86.4048 110.526 86.3717 110.787 86.3053C111.052 86.2339 111.264 86.1497 111.422 86.0528C111.58 85.9559 111.702 85.8615 111.789 85.7696V83.6804H109.577V82.1422H113.894ZM119.45 88.0578C118.822 88.0578 118.258 87.9558 117.758 87.7517C117.258 87.5477 116.832 87.2645 116.48 86.9023C116.133 86.5349 115.865 86.1089 115.677 85.6242C115.493 85.1345 115.401 84.609 115.401 84.0478V83.7416C115.401 83.1039 115.493 82.5248 115.677 82.0045C115.86 81.479 116.121 81.0274 116.457 80.6499C116.794 80.2724 117.197 79.9816 117.666 79.7775C118.136 79.5734 118.654 79.4714 119.22 79.4714C119.807 79.4714 120.325 79.5709 120.773 79.7698C121.222 79.9637 121.597 80.2392 121.898 80.5963C122.199 80.9535 122.426 81.382 122.58 81.882C122.733 82.3769 122.809 82.9253 122.809 83.5274V84.3768H116.32V82.984H120.819V82.831C120.809 82.5095 120.748 82.2162 120.636 81.9509C120.523 81.6805 120.35 81.4662 120.115 81.308C119.881 81.1448 119.577 81.0632 119.205 81.0632C118.904 81.0632 118.641 81.1295 118.416 81.2621C118.197 81.3897 118.013 81.5733 117.865 81.8131C117.723 82.0478 117.615 82.3284 117.544 82.6549C117.473 82.9815 117.437 83.3437 117.437 83.7416V84.0478C117.437 84.3947 117.483 84.7161 117.575 85.012C117.672 85.3079 117.812 85.5656 117.995 85.785C118.184 85.9992 118.409 86.1676 118.669 86.29C118.934 86.4074 119.235 86.4661 119.572 86.4661C119.995 86.4661 120.378 86.3844 120.72 86.2212C121.067 86.0528 121.368 85.8054 121.623 85.4788L122.641 86.5349C122.467 86.79 122.233 87.0349 121.937 87.2696C121.646 87.5043 121.294 87.6956 120.881 87.8436C120.467 87.9864 119.99 88.0578 119.45 88.0578ZM126.146 81.3922V87.9048H124.125V79.6244H126.023L126.146 81.3922ZM125.824 83.4661H125.227C125.233 82.8641 125.314 82.3182 125.472 81.8284C125.63 81.3387 125.852 80.9178 126.138 80.5657C126.429 80.2137 126.773 79.9433 127.171 79.7545C127.569 79.5658 128.013 79.4714 128.503 79.4714C128.901 79.4714 129.26 79.5275 129.582 79.6397C129.903 79.752 130.179 79.9305 130.408 80.1754C130.643 80.4203 130.822 80.7417 130.944 81.1397C131.072 81.5325 131.135 82.0172 131.135 82.5937V87.9048H129.1V82.5784C129.1 82.2009 129.044 81.9024 128.931 81.683C128.824 81.4637 128.666 81.308 128.457 81.2162C128.253 81.1244 128 81.0785 127.699 81.0785C127.388 81.0785 127.115 81.1422 126.88 81.2698C126.651 81.3922 126.457 81.5631 126.299 81.7825C126.146 82.0019 126.028 82.2544 125.947 82.5402C125.865 82.8259 125.824 83.1345 125.824 83.4661ZM136.638 88.0578C136.01 88.0578 135.446 87.9558 134.947 87.7517C134.447 87.5477 134.021 87.2645 133.668 86.9023C133.322 86.5349 133.054 86.1089 132.865 85.6242C132.681 85.1345 132.589 84.609 132.589 84.0478V83.7416C132.589 83.1039 132.681 82.5248 132.865 82.0045C133.049 81.479 133.309 81.0274 133.646 80.6499C133.982 80.2724 134.385 79.9816 134.855 79.7775C135.324 79.5734 135.842 79.4714 136.408 79.4714C136.995 79.4714 137.513 79.5709 137.962 79.7698C138.411 79.9637 138.786 80.2392 139.087 80.5963C139.388 80.9535 139.615 81.382 139.768 81.882C139.921 82.3769 139.997 82.9253 139.997 83.5274V84.3768H133.508V82.984H138.008V82.831C137.997 82.5095 137.936 82.2162 137.824 81.9509C137.712 81.6805 137.538 81.4662 137.304 81.308C137.069 81.1448 136.765 81.0632 136.393 81.0632C136.092 81.0632 135.829 81.1295 135.605 81.2621C135.385 81.3897 135.202 81.5733 135.054 81.8131C134.911 82.0478 134.804 82.3284 134.732 82.6549C134.661 82.9815 134.625 83.3437 134.625 83.7416V84.0478C134.625 84.3947 134.671 84.7161 134.763 85.012C134.86 85.3079 135 85.5656 135.184 85.785C135.373 85.9992 135.597 86.1676 135.857 86.29C136.122 86.4074 136.424 86.4661 136.76 86.4661C137.184 86.4661 137.566 86.3844 137.908 86.2212C138.255 86.0528 138.556 85.8054 138.811 85.4788L139.829 86.5349C139.656 86.79 139.421 87.0349 139.125 87.2696C138.834 87.5043 138.482 87.6956 138.069 87.8436C137.656 87.9864 137.179 88.0578 136.638 88.0578ZM143.372 81.3157V87.9048H141.352V79.6244H143.265L143.372 81.3157ZM145.89 79.5709L145.859 81.4534C145.747 81.433 145.62 81.4177 145.477 81.4075C145.339 81.3973 145.209 81.3922 145.087 81.3922C144.775 81.3922 144.502 81.4356 144.268 81.5223C144.033 81.604 143.837 81.7238 143.678 81.882C143.525 82.0402 143.408 82.234 143.326 82.4636C143.245 82.6881 143.199 82.9432 143.189 83.2289L142.752 83.1753C142.752 82.6498 142.806 82.1626 142.913 81.7136C143.02 81.2647 143.176 80.8718 143.38 80.5351C143.584 80.1984 143.839 79.9382 144.145 79.7545C144.456 79.5658 144.814 79.4714 145.217 79.4714C145.329 79.4714 145.449 79.4816 145.576 79.502C145.709 79.5173 145.814 79.5402 145.89 79.5709ZM151.301 86.1446V82.3259C151.301 82.0453 151.252 81.8029 151.155 81.5989C151.058 81.3948 150.91 81.2366 150.711 81.1244C150.512 81.0121 150.26 80.956 149.954 80.956C149.683 80.956 149.446 81.0019 149.242 81.0938C149.043 81.1856 148.89 81.3157 148.783 81.4841C148.676 81.6473 148.622 81.8361 148.622 82.0504H146.594C146.594 81.7085 146.676 81.3846 146.839 81.0785C147.002 80.7672 147.234 80.4917 147.535 80.252C147.842 80.0071 148.206 79.8157 148.63 79.678C149.058 79.5402 149.538 79.4714 150.069 79.4714C150.696 79.4714 151.255 79.5785 151.744 79.7928C152.239 80.002 152.627 80.3183 152.908 80.7417C153.193 81.1652 153.336 81.6983 153.336 82.3412V85.9533C153.336 86.3666 153.362 86.7211 153.413 87.0171C153.469 87.3079 153.551 87.5604 153.658 87.7747V87.9048H151.599C151.502 87.6956 151.428 87.4303 151.377 87.1089C151.326 86.7824 151.301 86.461 151.301 86.1446ZM151.584 82.8616L151.599 84.0631H150.321C150.005 84.0631 149.727 84.0962 149.487 84.1626C149.247 84.2238 149.051 84.3156 148.898 84.4381C148.745 84.5554 148.63 84.6982 148.553 84.8666C148.477 85.0299 148.438 85.2161 148.438 85.4253C148.438 85.6293 148.484 85.813 148.576 85.9763C148.673 86.1395 148.811 86.2696 148.989 86.3666C149.173 86.4584 149.387 86.5043 149.632 86.5043C149.989 86.5043 150.301 86.4329 150.566 86.29C150.831 86.1421 151.038 85.9635 151.186 85.7543C151.334 85.5452 151.413 85.3462 151.423 85.1574L152.005 86.0298C151.933 86.239 151.826 86.461 151.683 86.6956C151.54 86.9303 151.357 87.1497 151.132 87.3538C150.908 87.5579 150.637 87.7262 150.321 87.8589C150.005 87.9915 149.637 88.0578 149.219 88.0578C148.683 88.0578 148.204 87.9507 147.78 87.7364C147.357 87.5221 147.023 87.2288 146.778 86.8563C146.533 86.4839 146.41 86.0605 146.41 85.586C146.41 85.1472 146.492 84.7595 146.655 84.4227C146.819 84.086 147.061 83.8029 147.382 83.5733C147.704 83.3386 148.102 83.1626 148.576 83.0452C149.056 82.9228 149.604 82.8616 150.222 82.8616H151.584ZM159.076 79.6244V81.0785H154.331V79.6244H159.076ZM155.601 77.5888H157.629V85.5171C157.629 85.762 157.663 85.9508 157.729 86.0834C157.795 86.2161 157.895 86.3053 158.027 86.3513C158.16 86.3972 158.318 86.4201 158.502 86.4201C158.635 86.4201 158.757 86.4125 158.869 86.3972C158.981 86.3819 159.076 86.3666 159.152 86.3513L159.16 87.8665C158.992 87.9226 158.8 87.9686 158.586 88.0043C158.377 88.04 158.14 88.0578 157.874 88.0578C157.42 88.0578 157.022 87.9813 156.681 87.8283C156.339 87.6701 156.073 87.4176 155.885 87.0706C155.696 86.7186 155.601 86.2543 155.601 85.6778V77.5888ZM162.566 79.6244V87.9048H160.538V79.6244H162.566ZM160.4 77.4587C160.4 77.1577 160.502 76.9077 160.706 76.7087C160.915 76.5097 161.196 76.4102 161.548 76.4102C161.9 76.4102 162.178 76.5097 162.382 76.7087C162.591 76.9077 162.696 77.1577 162.696 77.4587C162.696 77.7546 162.591 78.002 162.382 78.201C162.178 78.4 161.9 78.4995 161.548 78.4995C161.196 78.4995 160.915 78.4 160.706 78.201C160.502 78.002 160.4 77.7546 160.4 77.4587ZM164.134 83.8488V83.6881C164.134 83.081 164.221 82.5223 164.395 82.0121C164.568 81.4968 164.821 81.0504 165.152 80.6729C165.484 80.2953 165.889 80.002 166.369 79.7928C166.849 79.5785 167.395 79.4714 168.007 79.4714C168.629 79.4714 169.18 79.5785 169.66 79.7928C170.144 80.002 170.553 80.2953 170.884 80.6729C171.216 81.0504 171.468 81.4968 171.642 82.0121C171.815 82.5223 171.902 83.081 171.902 83.6881V83.8488C171.902 84.4508 171.815 85.0095 171.642 85.5248C171.468 86.0349 171.216 86.4814 170.884 86.864C170.553 87.2415 170.147 87.5349 169.667 87.7441C169.188 87.9533 168.639 88.0578 168.022 88.0578C167.41 88.0578 166.861 87.9533 166.377 87.7441C165.892 87.5349 165.484 87.2415 165.152 86.864C164.821 86.4814 164.568 86.0349 164.395 85.5248C164.221 85.0095 164.134 84.4508 164.134 83.8488ZM166.155 83.6881V83.8488C166.155 84.211 166.19 84.5503 166.262 84.8666C166.333 85.1829 166.443 85.461 166.591 85.7008C166.739 85.9406 166.93 86.1293 167.165 86.2671C167.405 86.3997 167.69 86.4661 168.022 86.4661C168.349 86.4661 168.629 86.3997 168.864 86.2671C169.099 86.1293 169.29 85.9406 169.438 85.7008C169.591 85.461 169.703 85.1829 169.775 84.8666C169.846 84.5503 169.882 84.211 169.882 83.8488V83.6881C169.882 83.3309 169.846 82.9968 169.775 82.6856C169.703 82.3692 169.591 82.0912 169.438 81.8514C169.29 81.6065 169.096 81.4152 168.856 81.2774C168.622 81.1346 168.338 81.0632 168.007 81.0632C167.68 81.0632 167.4 81.1346 167.165 81.2774C166.93 81.4152 166.739 81.6065 166.591 81.8514C166.443 82.0912 166.333 82.3692 166.262 82.6856C166.19 82.9968 166.155 83.3309 166.155 83.6881ZM175.353 81.3922V87.9048H173.333V79.6244H175.231L175.353 81.3922ZM175.032 83.4661H174.435C174.44 82.8641 174.522 82.3182 174.68 81.8284C174.838 81.3387 175.06 80.9178 175.346 80.5657C175.637 80.2137 175.981 79.9433 176.379 79.7545C176.777 79.5658 177.221 79.4714 177.711 79.4714C178.108 79.4714 178.468 79.5275 178.79 79.6397C179.111 79.752 179.386 79.9305 179.616 80.1754C179.851 80.4203 180.029 80.7417 180.152 81.1397C180.279 81.5325 180.343 82.0172 180.343 82.5937V87.9048H178.307V82.5784C178.307 82.2009 178.251 81.9024 178.139 81.683C178.032 81.4637 177.874 81.308 177.665 81.2162C177.461 81.1244 177.208 81.0785 176.907 81.0785C176.596 81.0785 176.323 81.1422 176.088 81.2698C175.859 81.3922 175.665 81.5631 175.507 81.7825C175.353 82.0019 175.236 82.2544 175.154 82.5402C175.073 82.8259 175.032 83.1345 175.032 83.4661Z" fill="#6E58F1"/>
<path d="M380.006 82.3662V84.9677C379.918 85.0978 379.778 85.2442 379.586 85.4069C379.394 85.5664 379.129 85.7063 378.79 85.8267C378.455 85.9438 378.023 86.0024 377.492 86.0024C377.059 86.0024 376.661 85.9276 376.296 85.7779C375.935 85.625 375.621 85.4037 375.354 85.1141C375.091 84.8212 374.886 84.4666 374.739 84.0501C374.596 83.6303 374.525 83.1553 374.525 82.6249V82.0733C374.525 81.543 374.586 81.0695 374.71 80.653C374.837 80.2365 375.023 79.8835 375.267 79.5939C375.511 79.301 375.81 79.0798 376.165 78.9301C376.519 78.7772 376.926 78.7007 377.385 78.7007C377.928 78.7007 378.382 78.7951 378.747 78.9838C379.114 79.1693 379.401 79.4263 379.606 79.755C379.814 80.0836 379.947 80.4578 380.006 80.8775H379.064C379.022 80.6205 378.937 80.3862 378.81 80.1747C378.686 79.9632 378.509 79.794 378.278 79.6671C378.047 79.5369 377.749 79.4719 377.385 79.4719C377.056 79.4719 376.771 79.5321 376.531 79.6525C376.29 79.7728 376.091 79.9453 375.935 80.1698C375.779 80.3943 375.662 80.666 375.584 80.9849C375.509 81.3038 375.472 81.6634 375.472 82.0636V82.6249C375.472 83.0349 375.519 83.4009 375.613 83.7231C375.711 84.0452 375.849 84.3201 376.028 84.5479C376.207 84.7724 376.42 84.9433 376.667 85.0604C376.918 85.1775 377.194 85.2361 377.497 85.2361C377.832 85.2361 378.104 85.2085 378.312 85.1531C378.52 85.0946 378.683 85.0262 378.8 84.9481C378.917 84.8668 379.007 84.7903 379.069 84.7187V83.1276H377.424V82.3662H380.006ZM383.623 86.0024C383.255 86.0024 382.921 85.9406 382.622 85.8169C382.326 85.69 382.07 85.5127 381.856 85.2849C381.644 85.0571 381.481 84.7871 381.368 84.4747C381.254 84.1623 381.197 83.8207 381.197 83.4497V83.2447C381.197 82.8152 381.26 82.4329 381.387 82.0977C381.514 81.7593 381.686 81.473 381.904 81.2387C382.122 81.0044 382.37 80.8271 382.646 80.7067C382.923 80.5863 383.209 80.5261 383.505 80.5261C383.883 80.5261 384.208 80.5912 384.482 80.7214C384.758 80.8515 384.984 81.0337 385.16 81.268C385.336 81.499 385.466 81.7724 385.55 82.088C385.635 82.4004 385.677 82.742 385.677 83.113V83.5181H381.734V82.7811H384.774V82.7127C384.761 82.4784 384.713 82.2507 384.628 82.0294C384.547 81.8082 384.416 81.6259 384.237 81.4828C384.059 81.3396 383.814 81.268 383.505 81.268C383.3 81.268 383.112 81.3119 382.939 81.3998C382.767 81.4844 382.619 81.6113 382.495 81.7805C382.371 81.9497 382.275 82.1563 382.207 82.4004C382.139 82.6444 382.105 82.9259 382.105 83.2447V83.4497C382.105 83.7003 382.139 83.9362 382.207 84.1575C382.279 84.3755 382.381 84.5674 382.515 84.7334C382.651 84.8993 382.816 85.0295 383.008 85.1239C383.203 85.2182 383.424 85.2654 383.671 85.2654C383.99 85.2654 384.26 85.2003 384.482 85.0702C384.703 84.94 384.896 84.7659 385.062 84.5479L385.609 84.9823C385.495 85.1548 385.35 85.3191 385.175 85.4753C384.999 85.6315 384.783 85.7584 384.525 85.856C384.272 85.9536 383.971 86.0024 383.623 86.0024ZM387.635 81.4535V85.9048H386.732V80.6237H387.61L387.635 81.4535ZM389.284 80.5945L389.279 81.434C389.205 81.4177 389.133 81.4079 389.065 81.4047C389 81.3982 388.925 81.3949 388.84 81.3949C388.632 81.3949 388.448 81.4274 388.289 81.4925C388.129 81.5576 387.994 81.6487 387.883 81.7659C387.773 81.883 387.685 82.0229 387.62 82.1856C387.558 82.345 387.517 82.5208 387.498 82.7127L387.244 82.8592C387.244 82.5403 387.275 82.2409 387.337 81.9611C387.402 81.6812 387.501 81.434 387.635 81.2192C387.768 81.0012 387.937 80.832 388.142 80.7116C388.35 80.5879 388.598 80.5261 388.884 80.5261C388.949 80.5261 389.024 80.5343 389.109 80.5505C389.193 80.5635 389.252 80.5782 389.284 80.5945ZM391.017 81.6731V85.9048H390.109V80.6237H390.968L391.017 81.6731ZM390.831 83.0641L390.412 83.0495C390.415 82.6883 390.462 82.3548 390.553 82.0489C390.644 81.7398 390.779 81.4714 390.958 81.2436C391.137 81.0158 391.36 80.8401 391.627 80.7165C391.894 80.5896 392.203 80.5261 392.554 80.5261C392.802 80.5261 393.029 80.5619 393.238 80.6335C393.446 80.7018 393.627 80.8108 393.779 80.9605C393.932 81.1102 394.051 81.3022 394.136 81.5365C394.22 81.7707 394.263 82.0538 394.263 82.3857V85.9048H393.36V82.4296C393.36 82.1531 393.313 81.9318 393.218 81.7659C393.127 81.5999 392.997 81.4795 392.828 81.4047C392.659 81.3266 392.46 81.2875 392.232 81.2875C391.965 81.2875 391.743 81.3347 391.564 81.4291C391.385 81.5234 391.241 81.6536 391.134 81.8195C391.027 81.9855 390.949 82.1758 390.9 82.3906C390.854 82.6021 390.831 82.8266 390.831 83.0641ZM394.253 82.5663L393.648 82.7518C393.651 82.4622 393.698 82.184 393.789 81.9172C393.884 81.6503 394.019 81.4128 394.194 81.2046C394.373 80.9963 394.593 80.832 394.853 80.7116C395.114 80.5879 395.411 80.5261 395.746 80.5261C396.03 80.5261 396.28 80.5635 396.498 80.6384C396.719 80.7132 396.905 80.8287 397.055 80.9849C397.207 81.1379 397.323 81.3347 397.401 81.5755C397.479 81.8163 397.518 82.1026 397.518 82.4345V85.9048H396.61V82.4248C396.61 82.1287 396.563 81.8993 396.469 81.7366C396.378 81.5706 396.248 81.4551 396.078 81.39C395.912 81.3217 395.714 81.2875 395.483 81.2875C395.284 81.2875 395.109 81.3217 394.956 81.39C394.803 81.4584 394.674 81.5527 394.57 81.6731C394.466 81.7903 394.386 81.9253 394.331 82.0782C394.279 82.2312 394.253 82.3938 394.253 82.5663ZM401.999 85.0018V82.2832C401.999 82.075 401.956 81.8944 401.872 81.7414C401.791 81.5853 401.667 81.4649 401.501 81.3803C401.335 81.2957 401.13 81.2534 400.886 81.2534C400.658 81.2534 400.458 81.2924 400.286 81.3705C400.116 81.4486 399.983 81.5511 399.885 81.678C399.791 81.8049 399.744 81.9416 399.744 82.088H398.841C398.841 81.8993 398.89 81.7122 398.987 81.5267C399.085 81.3412 399.225 81.1736 399.407 81.024C399.593 80.871 399.814 80.7506 400.071 80.6628C400.331 80.5717 400.621 80.5261 400.94 80.5261C401.324 80.5261 401.662 80.5912 401.955 80.7214C402.251 80.8515 402.482 81.0484 402.648 81.3119C402.817 81.5722 402.902 81.8993 402.902 82.293V84.7529C402.902 84.9286 402.916 85.1157 402.946 85.3142C402.978 85.5127 403.025 85.6835 403.087 85.8267V85.9048H402.145C402.1 85.8007 402.064 85.6624 402.038 85.4899C402.012 85.3142 401.999 85.1515 401.999 85.0018ZM402.155 82.703L402.165 83.3375H401.252C400.995 83.3375 400.766 83.3586 400.564 83.4009C400.362 83.44 400.193 83.5002 400.056 83.5815C399.92 83.6629 399.815 83.7654 399.744 83.889C399.672 84.0094 399.636 84.1509 399.636 84.3136C399.636 84.4796 399.674 84.6309 399.749 84.7676C399.824 84.9042 399.936 85.0132 400.086 85.0946C400.238 85.1727 400.426 85.2117 400.647 85.2117C400.923 85.2117 401.167 85.1531 401.379 85.036C401.59 84.9189 401.758 84.7757 401.882 84.6065C402.009 84.4373 402.077 84.273 402.087 84.1135L402.472 84.5479C402.449 84.6846 402.388 84.8359 402.287 85.0018C402.186 85.1678 402.051 85.3272 401.882 85.4802C401.716 85.6298 401.517 85.7551 401.286 85.856C401.058 85.9536 400.801 86.0024 400.515 86.0024C400.157 86.0024 399.843 85.9324 399.573 85.7925C399.306 85.6526 399.098 85.4655 398.948 85.2312C398.802 84.9937 398.729 84.7285 398.729 84.4357C398.729 84.1526 398.784 83.9036 398.895 83.6889C399.005 83.4709 399.165 83.2903 399.373 83.1471C399.581 83.0007 399.832 82.8901 400.125 82.8152C400.417 82.7404 400.744 82.703 401.106 82.703H402.155ZM405.225 81.7512V85.9048H404.322V80.6237H405.176L405.225 81.7512ZM405.01 83.0641L404.634 83.0495C404.638 82.6883 404.691 82.3548 404.796 82.0489C404.9 81.7398 405.046 81.4714 405.235 81.2436C405.424 81.0158 405.648 80.8401 405.908 80.7165C406.172 80.5896 406.463 80.5261 406.782 80.5261C407.042 80.5261 407.277 80.5619 407.485 80.6335C407.693 80.7018 407.87 80.8125 408.017 80.9654C408.167 81.1183 408.28 81.3168 408.359 81.5609C408.437 81.8016 408.476 82.0961 408.476 82.4443V85.9048H407.568V82.4345C407.568 82.1579 407.527 81.9367 407.446 81.7707C407.364 81.6015 407.246 81.4795 407.089 81.4047C406.933 81.3266 406.741 81.2875 406.514 81.2875C406.289 81.2875 406.084 81.3347 405.899 81.4291C405.716 81.5234 405.559 81.6536 405.425 81.8195C405.295 81.9855 405.192 82.1758 405.118 82.3906C405.046 82.6021 405.01 82.8266 405.01 83.0641ZM411.331 85.3581L412.8 80.6237H413.766L411.648 86.7199C411.599 86.85 411.534 86.99 411.453 87.1396C411.375 87.2926 411.274 87.4374 411.15 87.574C411.027 87.7107 410.877 87.8213 410.701 87.9059C410.529 87.9938 410.322 88.0377 410.081 88.0377C410.01 88.0377 409.919 88.0279 409.808 88.0084C409.697 87.9889 409.619 87.9726 409.574 87.9596L409.569 87.2275C409.595 87.2307 409.636 87.234 409.691 87.2372C409.75 87.2438 409.79 87.247 409.813 87.247C410.018 87.247 410.192 87.2194 410.335 87.164C410.478 87.112 410.599 87.0225 410.696 86.8956C410.797 86.7719 410.884 86.6011 410.955 86.3831L411.331 85.3581ZM410.252 80.6237L411.624 84.7236L411.858 85.6754L411.209 86.0073L409.266 80.6237H410.252Z" fill="#7A7A7A"/>
</g>
<g filter="url(#filter3_d_202_534)">
<rect y="116.121" width="480" height="48.9796" rx="9.79592" fill="white" shape-rendering="crispEdges"/>
<path d="M33.4916 142.633H29.9761V140.608H33.4916C34.0666 140.608 34.5322 140.514 34.8884 140.327C35.2509 140.133 35.5165 139.871 35.6853 139.539C35.854 139.202 35.9384 138.817 35.9384 138.386C35.9384 137.967 35.854 137.577 35.6853 137.214C35.5165 136.852 35.2509 136.558 34.8884 136.333C34.5322 136.108 34.0666 135.996 33.4916 135.996H30.8198V147.611H28.2418V133.961H33.4916C34.5541 133.961 35.4603 134.152 36.2102 134.533C36.9665 134.908 37.5414 135.43 37.9352 136.099C38.3352 136.761 38.5351 137.517 38.5351 138.367C38.5351 139.249 38.3352 140.008 37.9352 140.645C37.5414 141.283 36.9665 141.774 36.2102 142.117C35.4603 142.461 34.5541 142.633 33.4916 142.633ZM42.9975 137.467V147.611H40.5132V137.467H42.9975ZM40.3445 134.814C40.3445 134.446 40.4694 134.139 40.7194 133.896C40.9757 133.652 41.3194 133.53 41.7507 133.53C42.1819 133.53 42.5225 133.652 42.7725 133.896C43.0287 134.139 43.1568 134.446 43.1568 134.814C43.1568 135.177 43.0287 135.48 42.7725 135.724C42.5225 135.968 42.1819 136.089 41.7507 136.089C41.3194 136.089 40.9757 135.968 40.7194 135.724C40.4694 135.48 40.3445 135.177 40.3445 134.814ZM50.1597 137.467V139.249H44.3474V137.467H50.1597ZM45.9036 134.974H48.3879V144.686C48.3879 144.986 48.4285 145.217 48.5098 145.38C48.591 145.542 48.7129 145.652 48.8754 145.708C49.0379 145.764 49.2316 145.792 49.4566 145.792C49.6191 145.792 49.7691 145.783 49.9066 145.764C50.0441 145.745 50.1597 145.727 50.2534 145.708L50.2628 147.564C50.0566 147.633 49.8222 147.689 49.5597 147.733C49.3035 147.776 49.0129 147.798 48.6879 147.798C48.1317 147.798 47.6442 147.705 47.2254 147.517C46.8067 147.323 46.4817 147.014 46.2505 146.589C46.0192 146.158 45.9036 145.589 45.9036 144.883V134.974ZM55.972 145.848C56.322 145.848 56.6345 145.78 56.9094 145.642C57.1844 145.505 57.4032 145.311 57.5657 145.061C57.7344 144.811 57.825 144.52 57.8375 144.189H60.1718C60.1593 144.877 59.9656 145.492 59.5906 146.036C59.2156 146.58 58.7156 147.011 58.0906 147.33C57.4719 147.642 56.7782 147.798 56.0095 147.798C55.2283 147.798 54.547 147.667 53.9658 147.405C53.3846 147.142 52.9002 146.776 52.5127 146.308C52.1315 145.839 51.844 145.295 51.6503 144.677C51.4628 144.058 51.369 143.395 51.369 142.689V142.389C51.369 141.683 51.4628 141.02 51.6503 140.402C51.844 139.783 52.1315 139.239 52.5127 138.771C52.9002 138.302 53.3846 137.936 53.9658 137.674C54.547 137.411 55.2251 137.28 56.0001 137.28C56.8188 137.28 57.5375 137.439 58.1563 137.758C58.7812 138.077 59.2687 138.527 59.6187 139.108C59.9749 139.689 60.1593 140.374 60.1718 141.161H57.8375C57.825 140.799 57.7438 140.474 57.5938 140.186C57.4438 139.899 57.2313 139.667 56.9563 139.492C56.6813 139.317 56.347 139.23 55.9532 139.23C55.5345 139.23 55.1845 139.317 54.9033 139.492C54.6283 139.667 54.4127 139.908 54.2564 140.214C54.1064 140.514 54.0002 140.852 53.9377 141.227C53.8814 141.595 53.8533 141.983 53.8533 142.389V142.689C53.8533 143.102 53.8814 143.495 53.9377 143.87C54.0002 144.245 54.1064 144.583 54.2564 144.883C54.4127 145.177 54.6283 145.411 54.9033 145.586C55.1845 145.761 55.5407 145.848 55.972 145.848ZM64.2498 133.211V147.611H61.7655V133.211H64.2498ZM63.856 142.174H63.1248C63.1248 141.467 63.2186 140.817 63.4061 140.224C63.5936 139.63 63.8592 139.114 64.2029 138.677C64.5466 138.233 64.956 137.889 65.431 137.646C65.9122 137.402 66.4434 137.28 67.0247 137.28C67.5247 137.28 67.9778 137.352 68.384 137.496C68.7965 137.633 69.1496 137.855 69.4433 138.161C69.7371 138.467 69.9621 138.867 70.1183 139.361C70.2808 139.849 70.362 140.442 70.362 141.142V147.611H67.8684V141.124C67.8684 140.655 67.7996 140.286 67.6622 140.017C67.5247 139.742 67.3278 139.546 67.0715 139.427C66.8216 139.308 66.5122 139.249 66.1435 139.249C65.7435 139.249 65.3997 139.327 65.1122 139.483C64.8248 139.633 64.5873 139.842 64.3998 140.111C64.2185 140.38 64.081 140.689 63.9873 141.039C63.8998 141.389 63.856 141.767 63.856 142.174ZM75.1712 137.467V147.611H72.687V137.467H75.1712ZM72.5182 134.814C72.5182 134.446 72.6432 134.139 72.8932 133.896C73.1494 133.652 73.4932 133.53 73.9244 133.53C74.3556 133.53 74.6963 133.652 74.9462 133.896C75.2025 134.139 75.3306 134.446 75.3306 134.814C75.3306 135.177 75.2025 135.48 74.9462 135.724C74.6963 135.968 74.3556 136.089 73.9244 136.089C73.4932 136.089 73.1494 135.968 72.8932 135.724C72.6432 135.48 72.5182 135.177 72.5182 134.814ZM79.9617 139.633V147.611H77.4868V137.467H79.8117L79.9617 139.633ZM79.5679 142.174H78.8367C78.843 141.436 78.943 140.767 79.1367 140.167C79.3305 139.567 79.6023 139.052 79.9523 138.621C80.3085 138.189 80.7304 137.858 81.2179 137.627C81.7054 137.396 82.2491 137.28 82.8491 137.28C83.3366 137.28 83.7772 137.349 84.1709 137.486C84.5646 137.624 84.9021 137.842 85.1834 138.142C85.4708 138.442 85.6896 138.836 85.8396 139.324C85.9958 139.805 86.0739 140.399 86.0739 141.105V147.611H83.5803V141.086C83.5803 140.624 83.5115 140.258 83.3741 139.989C83.2428 139.721 83.0491 139.53 82.7928 139.417C82.5428 139.305 82.2335 139.249 81.8647 139.249C81.4835 139.249 81.1491 139.327 80.8616 139.483C80.5804 139.633 80.3429 139.842 80.1492 140.111C79.9617 140.38 79.8179 140.689 79.7179 141.039C79.6179 141.389 79.5679 141.767 79.5679 142.174ZM94.708 137.467H96.9579V147.301C96.9579 148.22 96.7579 148.998 96.3579 149.636C95.9642 150.279 95.4111 150.767 94.6986 151.098C93.9861 151.436 93.158 151.604 92.2143 151.604C91.8081 151.604 91.3675 151.548 90.8925 151.436C90.4238 151.323 89.9707 151.145 89.5332 150.901C89.102 150.664 88.7426 150.354 88.4551 149.973L89.5707 148.511C89.9082 148.905 90.2894 149.201 90.7144 149.401C91.1394 149.608 91.5987 149.711 92.0925 149.711C92.5924 149.711 93.0174 149.617 93.3674 149.43C93.7237 149.248 93.9955 148.98 94.183 148.623C94.3768 148.273 94.4736 147.842 94.4736 147.33V139.783L94.708 137.467ZM87.8551 142.661V142.464C87.8551 141.689 87.9489 140.986 88.1364 140.355C88.3239 139.717 88.5926 139.171 88.9426 138.714C89.2988 138.258 89.7269 137.905 90.2269 137.655C90.7331 137.405 91.3019 137.28 91.9331 137.28C92.6018 137.28 93.1643 137.402 93.6205 137.646C94.083 137.889 94.4642 138.236 94.7642 138.686C95.0705 139.136 95.308 139.671 95.4767 140.289C95.6517 140.902 95.7861 141.577 95.8798 142.314V142.849C95.7923 143.567 95.6517 144.227 95.458 144.827C95.2705 145.427 95.0205 145.952 94.708 146.402C94.3955 146.845 94.008 147.189 93.5455 147.433C93.0831 147.676 92.5393 147.798 91.9143 147.798C91.2894 147.798 90.7269 147.67 90.2269 147.414C89.7269 147.158 89.2988 146.798 88.9426 146.336C88.5926 145.873 88.3239 145.33 88.1364 144.705C87.9489 144.08 87.8551 143.399 87.8551 142.661ZM90.33 142.464V142.661C90.33 143.099 90.3738 143.508 90.4613 143.889C90.5488 144.27 90.6831 144.608 90.8644 144.902C91.0456 145.189 91.2737 145.414 91.5487 145.577C91.8237 145.739 92.1518 145.82 92.5331 145.82C93.0456 145.82 93.4643 145.714 93.7893 145.502C94.1205 145.283 94.3705 144.986 94.5392 144.611C94.7142 144.23 94.8267 143.802 94.8767 143.327V141.855C94.8455 141.48 94.7767 141.133 94.6705 140.814C94.5705 140.495 94.4299 140.22 94.2486 139.989C94.0674 139.758 93.8361 139.577 93.5549 139.446C93.2737 139.314 92.9393 139.249 92.5518 139.249C92.1768 139.249 91.8487 139.333 91.5675 139.502C91.2862 139.664 91.055 139.892 90.8738 140.186C90.6925 140.48 90.555 140.82 90.4613 141.208C90.3738 141.595 90.33 142.014 90.33 142.464Z" fill="#6E58F1"/>
<path d="M374.351 144.172V145.111H369.998V144.172H374.351ZM370.226 136.405V145.111H369.072V136.405H370.226ZM378.19 145.23C377.739 145.23 377.331 145.155 376.964 145.003C376.601 144.848 376.288 144.631 376.025 144.352C375.766 144.072 375.567 143.742 375.427 143.359C375.288 142.976 375.218 142.558 375.218 142.103V141.852C375.218 141.326 375.296 140.858 375.451 140.447C375.607 140.033 375.818 139.682 376.085 139.395C376.352 139.108 376.655 138.891 376.994 138.743C377.333 138.596 377.683 138.522 378.046 138.522C378.509 138.522 378.907 138.602 379.242 138.761C379.581 138.921 379.858 139.144 380.073 139.431C380.288 139.714 380.448 140.049 380.551 140.435C380.655 140.818 380.707 141.236 380.707 141.691V142.187H375.876V141.284H379.601V141.201C379.585 140.914 379.525 140.635 379.421 140.364C379.322 140.093 379.162 139.869 378.943 139.694C378.724 139.519 378.425 139.431 378.046 139.431C377.795 139.431 377.564 139.485 377.353 139.592C377.141 139.696 376.96 139.851 376.808 140.059C376.657 140.266 376.539 140.519 376.456 140.818C376.372 141.117 376.33 141.462 376.33 141.852V142.103C376.33 142.41 376.372 142.699 376.456 142.97C376.543 143.237 376.669 143.473 376.832 143.676C377 143.879 377.201 144.039 377.436 144.154C377.675 144.27 377.946 144.328 378.249 144.328C378.64 144.328 378.971 144.248 379.242 144.088C379.513 143.929 379.75 143.716 379.953 143.449L380.623 143.981C380.484 144.192 380.306 144.393 380.091 144.585C379.876 144.776 379.611 144.931 379.296 145.051C378.985 145.171 378.616 145.23 378.19 145.23ZM385.813 144.005V140.674C385.813 140.419 385.761 140.198 385.657 140.011C385.558 139.819 385.406 139.672 385.203 139.568C385 139.465 384.749 139.413 384.45 139.413C384.171 139.413 383.925 139.461 383.714 139.556C383.507 139.652 383.343 139.778 383.224 139.933C383.108 140.089 383.051 140.256 383.051 140.435H381.944C381.944 140.204 382.004 139.975 382.124 139.748C382.243 139.521 382.415 139.315 382.638 139.132C382.865 138.945 383.136 138.797 383.451 138.689C383.77 138.578 384.125 138.522 384.515 138.522C384.986 138.522 385.4 138.602 385.759 138.761C386.122 138.921 386.405 139.162 386.608 139.485C386.815 139.804 386.919 140.204 386.919 140.686V143.7C386.919 143.915 386.937 144.144 386.973 144.387C387.013 144.631 387.07 144.84 387.146 145.015V145.111H385.992C385.936 144.983 385.893 144.814 385.861 144.603C385.829 144.387 385.813 144.188 385.813 144.005ZM386.004 141.189L386.016 141.966H384.898C384.583 141.966 384.302 141.992 384.055 142.044C383.808 142.091 383.601 142.165 383.433 142.265C383.266 142.365 383.138 142.49 383.051 142.642C382.963 142.789 382.919 142.962 382.919 143.162C382.919 143.365 382.965 143.55 383.056 143.718C383.148 143.885 383.286 144.019 383.469 144.118C383.656 144.214 383.886 144.262 384.157 144.262C384.495 144.262 384.794 144.19 385.053 144.047C385.313 143.903 385.518 143.728 385.669 143.52C385.825 143.313 385.908 143.112 385.92 142.917L386.393 143.449C386.365 143.616 386.289 143.801 386.166 144.005C386.042 144.208 385.877 144.403 385.669 144.591C385.466 144.774 385.223 144.927 384.94 145.051C384.661 145.171 384.346 145.23 383.995 145.23C383.557 145.23 383.172 145.145 382.841 144.973C382.514 144.802 382.259 144.573 382.076 144.286C381.897 143.995 381.807 143.67 381.807 143.311C381.807 142.964 381.875 142.659 382.01 142.396C382.146 142.129 382.341 141.908 382.596 141.733C382.851 141.553 383.158 141.418 383.517 141.326C383.876 141.234 384.276 141.189 384.719 141.189H386.004ZM392.736 143.855V135.927H393.849V145.111H392.832L392.736 143.855ZM388.384 141.948V141.822C388.384 141.328 388.444 140.88 388.563 140.477C388.687 140.071 388.86 139.722 389.083 139.431C389.31 139.14 389.58 138.917 389.89 138.761C390.205 138.602 390.556 138.522 390.943 138.522C391.349 138.522 391.704 138.594 392.007 138.737C392.314 138.877 392.573 139.082 392.784 139.353C392.999 139.62 393.169 139.943 393.292 140.322C393.416 140.7 393.502 141.129 393.55 141.607V142.157C393.506 142.632 393.42 143.058 393.292 143.437C393.169 143.815 392.999 144.138 392.784 144.405C392.573 144.672 392.314 144.878 392.007 145.021C391.7 145.161 391.341 145.23 390.931 145.23C390.552 145.23 390.205 145.149 389.89 144.985C389.58 144.822 389.31 144.593 389.083 144.298C388.86 144.003 388.687 143.656 388.563 143.257C388.444 142.855 388.384 142.418 388.384 141.948ZM389.496 141.822V141.948C389.496 142.271 389.528 142.574 389.591 142.857C389.659 143.14 389.763 143.389 389.902 143.604C390.042 143.819 390.219 143.989 390.435 144.112C390.65 144.232 390.907 144.292 391.206 144.292C391.573 144.292 391.873 144.214 392.109 144.059C392.348 143.903 392.539 143.698 392.683 143.443C392.826 143.188 392.938 142.911 393.017 142.612V141.171C392.97 140.951 392.9 140.74 392.808 140.537C392.72 140.33 392.605 140.146 392.461 139.987C392.322 139.823 392.148 139.694 391.941 139.598C391.738 139.503 391.497 139.455 391.218 139.455C390.915 139.455 390.654 139.519 390.435 139.646C390.219 139.77 390.042 139.941 389.902 140.16C389.763 140.376 389.659 140.627 389.591 140.914C389.528 141.197 389.496 141.5 389.496 141.822ZM399.337 143.395C399.337 143.235 399.301 143.088 399.23 142.952C399.162 142.813 399.02 142.687 398.805 142.576C398.594 142.46 398.275 142.361 397.848 142.277C397.49 142.201 397.165 142.111 396.874 142.008C396.587 141.904 396.342 141.779 396.138 141.631C395.939 141.484 395.786 141.31 395.678 141.111C395.57 140.912 395.517 140.678 395.517 140.411C395.517 140.156 395.572 139.915 395.684 139.688C395.8 139.461 395.961 139.259 396.168 139.084C396.38 138.909 396.633 138.771 396.928 138.672C397.223 138.572 397.551 138.522 397.914 138.522C398.432 138.522 398.875 138.614 399.242 138.797C399.608 138.98 399.889 139.226 400.085 139.532C400.28 139.835 400.378 140.172 400.378 140.543H399.271C399.271 140.364 399.218 140.19 399.11 140.023C399.006 139.851 398.853 139.71 398.65 139.598C398.45 139.487 398.205 139.431 397.914 139.431C397.607 139.431 397.358 139.479 397.167 139.574C396.979 139.666 396.842 139.784 396.754 139.927C396.671 140.071 396.629 140.222 396.629 140.381C396.629 140.501 396.649 140.609 396.689 140.704C396.732 140.796 396.808 140.882 396.916 140.961C397.023 141.037 397.175 141.109 397.37 141.177C397.565 141.244 397.815 141.312 398.117 141.38C398.648 141.5 399.084 141.643 399.427 141.81C399.77 141.978 400.025 142.183 400.192 142.426C400.36 142.669 400.443 142.964 400.443 143.311C400.443 143.594 400.384 143.853 400.264 144.088C400.148 144.324 399.979 144.527 399.756 144.698C399.536 144.866 399.273 144.997 398.966 145.093C398.664 145.185 398.323 145.23 397.944 145.23C397.374 145.23 396.892 145.129 396.497 144.925C396.103 144.722 395.804 144.459 395.6 144.136C395.397 143.813 395.295 143.473 395.295 143.114H396.408C396.423 143.417 396.511 143.658 396.671 143.837C396.83 144.013 397.025 144.138 397.257 144.214C397.488 144.286 397.717 144.322 397.944 144.322C398.247 144.322 398.5 144.282 398.703 144.202C398.911 144.122 399.068 144.013 399.176 143.873C399.283 143.734 399.337 143.574 399.337 143.395ZM411.534 140.776V143.963C411.427 144.122 411.255 144.302 411.02 144.501C410.785 144.696 410.46 144.868 410.045 145.015C409.635 145.159 409.105 145.23 408.455 145.23C407.925 145.23 407.437 145.139 406.99 144.955C406.548 144.768 406.163 144.497 405.836 144.142C405.513 143.784 405.262 143.349 405.083 142.839C404.908 142.325 404.82 141.743 404.82 141.093V140.417C404.82 139.768 404.896 139.188 405.047 138.677C405.203 138.167 405.43 137.735 405.729 137.38C406.028 137.021 406.394 136.75 406.829 136.567C407.263 136.38 407.762 136.286 408.324 136.286C408.989 136.286 409.545 136.401 409.992 136.633C410.442 136.86 410.793 137.175 411.044 137.577C411.299 137.98 411.463 138.438 411.534 138.953H410.38C410.329 138.638 410.225 138.351 410.069 138.092C409.918 137.832 409.701 137.625 409.418 137.47C409.135 137.31 408.77 137.231 408.324 137.231C407.921 137.231 407.572 137.304 407.277 137.452C406.982 137.599 406.739 137.811 406.548 138.086C406.356 138.361 406.213 138.693 406.117 139.084C406.026 139.475 405.98 139.915 405.98 140.405V141.093C405.98 141.595 406.038 142.044 406.153 142.438C406.273 142.833 406.442 143.17 406.661 143.449C406.881 143.724 407.142 143.933 407.445 144.076C407.752 144.22 408.09 144.292 408.461 144.292C408.872 144.292 409.204 144.258 409.46 144.19C409.715 144.118 409.914 144.035 410.057 143.939C410.201 143.839 410.311 143.746 410.386 143.658V141.709H408.371V140.776H411.534ZM415.965 145.23C415.514 145.23 415.106 145.155 414.739 145.003C414.376 144.848 414.063 144.631 413.8 144.352C413.541 144.072 413.342 143.742 413.202 143.359C413.063 142.976 412.993 142.558 412.993 142.103V141.852C412.993 141.326 413.071 140.858 413.226 140.447C413.382 140.033 413.593 139.682 413.86 139.395C414.127 139.108 414.43 138.891 414.769 138.743C415.108 138.596 415.458 138.522 415.821 138.522C416.284 138.522 416.682 138.602 417.017 138.761C417.356 138.921 417.633 139.144 417.848 139.431C418.063 139.714 418.223 140.049 418.326 140.435C418.43 140.818 418.482 141.236 418.482 141.691V142.187H413.651V141.284H417.376V141.201C417.36 140.914 417.3 140.635 417.196 140.364C417.097 140.093 416.937 139.869 416.718 139.694C416.499 139.519 416.2 139.431 415.821 139.431C415.57 139.431 415.339 139.485 415.128 139.592C414.916 139.696 414.735 139.851 414.584 140.059C414.432 140.266 414.314 140.519 414.231 140.818C414.147 141.117 414.105 141.462 414.105 141.852V142.103C414.105 142.41 414.147 142.699 414.231 142.97C414.318 143.237 414.444 143.473 414.607 143.676C414.775 143.879 414.976 144.039 415.211 144.154C415.45 144.27 415.722 144.328 416.024 144.328C416.415 144.328 416.746 144.248 417.017 144.088C417.288 143.929 417.525 143.716 417.728 143.449L418.398 143.981C418.259 144.192 418.081 144.393 417.866 144.585C417.651 144.776 417.386 144.931 417.071 145.051C416.76 145.171 416.391 145.23 415.965 145.23ZM420.879 139.658V145.111H419.773V138.642H420.849L420.879 139.658ZM422.9 138.606L422.894 139.634C422.803 139.614 422.715 139.602 422.631 139.598C422.551 139.59 422.46 139.586 422.356 139.586C422.101 139.586 421.876 139.626 421.681 139.706C421.485 139.786 421.32 139.897 421.184 140.041C421.049 140.184 420.941 140.356 420.861 140.555C420.786 140.75 420.736 140.965 420.712 141.201L420.401 141.38C420.401 140.989 420.439 140.623 420.515 140.28C420.594 139.937 420.716 139.634 420.879 139.371C421.043 139.104 421.25 138.897 421.501 138.749C421.756 138.598 422.059 138.522 422.41 138.522C422.49 138.522 422.581 138.532 422.685 138.552C422.789 138.568 422.86 138.586 422.9 138.606ZM425.023 139.927V145.111H423.911V138.642H424.963L425.023 139.927ZM424.796 141.631L424.281 141.613C424.285 141.171 424.343 140.762 424.455 140.387C424.566 140.009 424.732 139.68 424.951 139.401C425.17 139.122 425.443 138.907 425.77 138.755C426.097 138.6 426.476 138.522 426.906 138.522C427.209 138.522 427.488 138.566 427.743 138.654C427.998 138.737 428.22 138.871 428.407 139.054C428.594 139.238 428.74 139.473 428.843 139.76C428.947 140.047 428.999 140.393 428.999 140.8V145.111H427.893V140.854C427.893 140.515 427.835 140.244 427.719 140.041C427.608 139.837 427.448 139.69 427.241 139.598C427.034 139.503 426.791 139.455 426.512 139.455C426.185 139.455 425.912 139.513 425.692 139.628C425.473 139.744 425.298 139.903 425.166 140.106C425.035 140.31 424.939 140.543 424.879 140.806C424.823 141.065 424.796 141.34 424.796 141.631ZM428.987 141.021L428.245 141.248C428.249 140.894 428.307 140.553 428.419 140.226C428.534 139.899 428.7 139.608 428.915 139.353C429.134 139.098 429.403 138.897 429.722 138.749C430.041 138.598 430.406 138.522 430.816 138.522C431.163 138.522 431.47 138.568 431.737 138.66C432.008 138.751 432.235 138.893 432.419 139.084C432.606 139.271 432.748 139.513 432.843 139.808C432.939 140.102 432.987 140.453 432.987 140.86V145.111H431.875V140.848C431.875 140.485 431.817 140.204 431.701 140.005C431.59 139.802 431.43 139.66 431.223 139.58C431.02 139.497 430.777 139.455 430.494 139.455C430.25 139.455 430.035 139.497 429.848 139.58C429.66 139.664 429.503 139.78 429.375 139.927C429.248 140.071 429.15 140.236 429.082 140.423C429.019 140.611 428.987 140.81 428.987 141.021ZM438.475 144.005V140.674C438.475 140.419 438.424 140.198 438.32 140.011C438.22 139.819 438.069 139.672 437.866 139.568C437.662 139.465 437.411 139.413 437.112 139.413C436.833 139.413 436.588 139.461 436.377 139.556C436.17 139.652 436.006 139.778 435.887 139.933C435.771 140.089 435.713 140.256 435.713 140.435H434.607C434.607 140.204 434.667 139.975 434.786 139.748C434.906 139.521 435.077 139.315 435.301 139.132C435.528 138.945 435.799 138.797 436.114 138.689C436.433 138.578 436.787 138.522 437.178 138.522C437.648 138.522 438.063 138.602 438.422 138.761C438.784 138.921 439.067 139.162 439.271 139.485C439.478 139.804 439.582 140.204 439.582 140.686V143.7C439.582 143.915 439.599 144.144 439.635 144.387C439.675 144.631 439.733 144.84 439.809 145.015V145.111H438.655C438.599 144.983 438.555 144.814 438.523 144.603C438.491 144.387 438.475 144.188 438.475 144.005ZM438.667 141.189L438.679 141.966H437.561C437.246 141.966 436.965 141.992 436.718 142.044C436.47 142.091 436.263 142.165 436.096 142.265C435.928 142.365 435.801 142.49 435.713 142.642C435.625 142.789 435.582 142.962 435.582 143.162C435.582 143.365 435.627 143.55 435.719 143.718C435.811 143.885 435.948 144.019 436.132 144.118C436.319 144.214 436.548 144.262 436.819 144.262C437.158 144.262 437.457 144.19 437.716 144.047C437.975 143.903 438.18 143.728 438.332 143.52C438.487 143.313 438.571 143.112 438.583 142.917L439.055 143.449C439.027 143.616 438.952 143.801 438.828 144.005C438.705 144.208 438.539 144.403 438.332 144.591C438.129 144.774 437.885 144.927 437.602 145.051C437.323 145.171 437.009 145.23 436.658 145.23C436.219 145.23 435.835 145.145 435.504 144.973C435.177 144.802 434.922 144.573 434.739 144.286C434.559 143.995 434.47 143.67 434.47 143.311C434.47 142.964 434.537 142.659 434.673 142.396C434.808 142.129 435.004 141.908 435.259 141.733C435.514 141.553 435.821 141.418 436.18 141.326C436.538 141.234 436.939 141.189 437.381 141.189H438.667ZM442.428 140.023V145.111H441.321V138.642H442.368L442.428 140.023ZM442.164 141.631L441.704 141.613C441.708 141.171 441.774 140.762 441.901 140.387C442.029 140.009 442.208 139.68 442.439 139.401C442.671 139.122 442.946 138.907 443.265 138.755C443.587 138.6 443.944 138.522 444.335 138.522C444.654 138.522 444.941 138.566 445.196 138.654C445.451 138.737 445.668 138.873 445.847 139.06C446.031 139.247 446.17 139.491 446.266 139.79C446.362 140.085 446.41 140.445 446.41 140.872V145.111H445.297V140.86C445.297 140.521 445.248 140.25 445.148 140.047C445.048 139.839 444.903 139.69 444.711 139.598C444.52 139.503 444.285 139.455 444.006 139.455C443.731 139.455 443.48 139.513 443.253 139.628C443.029 139.744 442.836 139.903 442.673 140.106C442.513 140.31 442.388 140.543 442.296 140.806C442.208 141.065 442.164 141.34 442.164 141.631ZM449.907 144.441L451.707 138.642H452.891L450.296 146.109C450.236 146.269 450.156 146.44 450.057 146.624C449.961 146.811 449.837 146.988 449.686 147.156C449.534 147.323 449.351 147.459 449.136 147.562C448.925 147.67 448.672 147.724 448.377 147.724C448.289 147.724 448.177 147.712 448.042 147.688C447.906 147.664 447.811 147.644 447.755 147.628L447.749 146.731C447.781 146.735 447.83 146.739 447.898 146.743C447.97 146.751 448.02 146.755 448.048 146.755C448.299 146.755 448.512 146.721 448.687 146.653C448.863 146.59 449.01 146.48 449.13 146.325C449.253 146.173 449.359 145.964 449.447 145.697L449.907 144.441ZM448.586 138.642L450.266 143.664L450.553 144.83L449.758 145.236L447.378 138.642H448.586Z" fill="#7A7A7A"/>
</g>
<g filter="url(#filter4_df_202_534)">
<rect x="56.3267" y="178.325" width="367.347" height="37.4844" rx="7.49688" fill="white" shape-rendering="crispEdges"/>
<path d="M82.4244 192.121V202.567H80.4586V192.121H82.4244ZM85.6673 192.121V193.678H77.2516V192.121H85.6673ZM90.0939 200.917V197.337C90.0939 197.074 90.0485 196.847 89.9576 196.656C89.8667 196.464 89.728 196.316 89.5415 196.211C89.3549 196.106 89.1182 196.053 88.8312 196.053C88.5777 196.053 88.3553 196.096 88.164 196.182C87.9774 196.268 87.834 196.39 87.7335 196.548C87.6331 196.701 87.5829 196.878 87.5829 197.079H85.6816C85.6816 196.758 85.7581 196.455 85.9112 196.168C86.0643 195.876 86.2819 195.618 86.5641 195.393C86.8511 195.163 87.193 194.984 87.59 194.855C87.9918 194.726 88.4414 194.661 88.9388 194.661C89.5271 194.661 90.0509 194.762 90.51 194.962C90.974 195.159 91.3375 195.455 91.6006 195.852C91.8684 196.249 92.0023 196.749 92.0023 197.352V200.738C92.0023 201.125 92.0262 201.458 92.0741 201.735C92.1267 202.008 92.2032 202.245 92.3037 202.445V202.567H90.3737C90.2828 202.371 90.2135 202.123 90.1657 201.821C90.1178 201.515 90.0939 201.214 90.0939 200.917ZM90.3594 197.839L90.3737 198.966H89.1756C88.879 198.966 88.6184 198.997 88.3936 199.059C88.1688 199.116 87.9846 199.203 87.8411 199.317C87.6976 199.427 87.59 199.561 87.5183 199.719C87.4465 199.872 87.4107 200.047 87.4107 200.243C87.4107 200.434 87.4537 200.606 87.5398 200.759C87.6307 200.912 87.7598 201.034 87.9272 201.125C88.0994 201.211 88.3003 201.254 88.5299 201.254C88.8647 201.254 89.1565 201.187 89.4052 201.054C89.6539 200.915 89.8476 200.747 89.9863 200.551C90.125 200.355 90.1991 200.169 90.2087 199.992L90.754 200.81C90.687 201.006 90.5866 201.214 90.4526 201.434C90.3187 201.654 90.1465 201.86 89.9361 202.051C89.7256 202.242 89.4721 202.4 89.1756 202.524C88.879 202.649 88.5347 202.711 88.1425 202.711C87.6402 202.711 87.1906 202.61 86.7937 202.41C86.3967 202.209 86.0834 201.934 85.8538 201.584C85.6242 201.235 85.5094 200.838 85.5094 200.394C85.5094 199.982 85.586 199.619 85.739 199.303C85.8921 198.987 86.1193 198.722 86.4206 198.507C86.7219 198.287 87.095 198.122 87.5398 198.012C87.9894 197.897 88.5036 197.839 89.0823 197.839H90.3594ZM95.6039 196.39V202.567H93.7098V194.805H95.5035L95.6039 196.39ZM97.9643 194.754L97.9356 196.519C97.8304 196.5 97.7108 196.486 97.5769 196.476C97.4477 196.467 97.3258 196.462 97.211 196.462C96.9192 196.462 96.6633 196.503 96.4433 196.584C96.2233 196.66 96.0392 196.773 95.8909 196.921C95.7474 197.069 95.6374 197.251 95.5609 197.466C95.4843 197.677 95.4413 197.916 95.4317 198.184L95.0228 198.134C95.0228 197.641 95.073 197.184 95.1734 196.763C95.2739 196.342 95.4198 195.974 95.6111 195.658C95.8024 195.343 96.0415 195.099 96.3285 194.927C96.6203 194.75 96.9551 194.661 97.333 194.661C97.4382 194.661 97.5506 194.671 97.6702 194.69C97.7945 194.704 97.8926 194.726 97.9643 194.754ZM103.797 194.805H105.519V202.331C105.519 203.034 105.366 203.629 105.06 204.117C104.759 204.61 104.335 204.983 103.79 205.236C103.245 205.495 102.611 205.624 101.889 205.624C101.578 205.624 101.241 205.581 100.877 205.495C100.518 205.408 100.172 205.272 99.8368 205.086C99.5068 204.904 99.2318 204.667 99.0118 204.375L99.8655 203.256C100.124 203.557 100.416 203.785 100.741 203.938C101.066 204.096 101.418 204.174 101.795 204.174C102.178 204.174 102.503 204.103 102.771 203.959C103.044 203.821 103.252 203.615 103.395 203.342C103.544 203.074 103.618 202.744 103.618 202.352V196.577L103.797 194.805ZM98.5526 198.779V198.629C98.5526 198.036 98.6244 197.497 98.7678 197.014C98.9113 196.526 99.117 196.108 99.3849 195.759C99.6575 195.41 99.9851 195.139 100.368 194.948C100.755 194.757 101.19 194.661 101.674 194.661C102.185 194.661 102.616 194.754 102.965 194.941C103.319 195.127 103.611 195.393 103.84 195.737C104.075 196.082 104.256 196.491 104.385 196.964C104.519 197.433 104.622 197.949 104.694 198.514V198.923C104.627 199.473 104.519 199.977 104.371 200.437C104.228 200.896 104.036 201.298 103.797 201.642C103.558 201.981 103.261 202.245 102.908 202.431C102.554 202.618 102.137 202.711 101.659 202.711C101.181 202.711 100.75 202.613 100.368 202.417C99.9851 202.221 99.6575 201.946 99.3849 201.592C99.117 201.238 98.9113 200.822 98.7678 200.343C98.6244 199.865 98.5526 199.344 98.5526 198.779ZM100.447 198.629V198.779C100.447 199.114 100.48 199.427 100.547 199.719C100.614 200.011 100.717 200.269 100.856 200.494C100.994 200.714 101.169 200.886 101.379 201.011C101.59 201.135 101.841 201.197 102.133 201.197C102.525 201.197 102.845 201.116 103.094 200.953C103.348 200.786 103.539 200.559 103.668 200.272C103.802 199.98 103.888 199.652 103.926 199.289V198.162C103.902 197.875 103.85 197.61 103.768 197.366C103.692 197.122 103.584 196.912 103.446 196.735C103.307 196.558 103.13 196.419 102.915 196.318C102.699 196.218 102.444 196.168 102.147 196.168C101.86 196.168 101.609 196.232 101.394 196.361C101.178 196.486 101.001 196.66 100.863 196.885C100.724 197.11 100.619 197.371 100.547 197.667C100.48 197.964 100.447 198.284 100.447 198.629ZM110.713 202.711C110.125 202.711 109.597 202.615 109.128 202.424C108.659 202.233 108.26 201.967 107.93 201.628C107.604 201.283 107.353 200.884 107.176 200.429C107.004 199.97 106.918 199.478 106.918 198.951V198.664C106.918 198.067 107.004 197.524 107.176 197.036C107.349 196.543 107.592 196.12 107.908 195.766C108.224 195.412 108.602 195.139 109.042 194.948C109.482 194.757 109.967 194.661 110.498 194.661C111.048 194.661 111.534 194.754 111.955 194.941C112.375 195.123 112.727 195.381 113.009 195.716C113.291 196.051 113.504 196.452 113.648 196.921C113.791 197.385 113.863 197.899 113.863 198.464V199.26H107.779V197.954H111.998V197.811C111.988 197.509 111.931 197.234 111.825 196.986C111.72 196.732 111.558 196.531 111.338 196.383C111.117 196.23 110.833 196.153 110.484 196.153C110.202 196.153 109.955 196.216 109.745 196.34C109.539 196.46 109.367 196.632 109.228 196.857C109.094 197.077 108.994 197.34 108.927 197.646C108.86 197.952 108.826 198.291 108.826 198.664V198.951C108.826 199.277 108.869 199.578 108.956 199.855C109.046 200.133 109.178 200.374 109.35 200.58C109.527 200.781 109.738 200.939 109.982 201.054C110.23 201.164 110.512 201.219 110.828 201.219C111.225 201.219 111.584 201.142 111.904 200.989C112.23 200.831 112.512 200.599 112.751 200.293L113.705 201.283C113.542 201.522 113.322 201.752 113.045 201.972C112.772 202.192 112.442 202.371 112.055 202.51C111.668 202.644 111.22 202.711 110.713 202.711ZM118.806 194.805V196.168H114.358V194.805H118.806ZM115.549 192.896H117.45V200.329C117.45 200.559 117.481 200.736 117.543 200.86C117.606 200.984 117.699 201.068 117.823 201.111C117.948 201.154 118.096 201.176 118.268 201.176C118.392 201.176 118.507 201.168 118.612 201.154C118.718 201.14 118.806 201.125 118.878 201.111L118.885 202.532C118.727 202.584 118.548 202.627 118.347 202.661C118.151 202.694 117.928 202.711 117.68 202.711C117.254 202.711 116.881 202.639 116.561 202.496C116.24 202.347 115.991 202.111 115.814 201.785C115.637 201.455 115.549 201.02 115.549 200.48V192.896ZM122.078 194.805V202.567H120.176V194.805H122.078ZM120.047 192.774C120.047 192.492 120.143 192.258 120.334 192.071C120.53 191.885 120.793 191.791 121.123 191.791C121.454 191.791 121.714 191.885 121.906 192.071C122.102 192.258 122.2 192.492 122.2 192.774C122.2 193.052 122.102 193.284 121.906 193.47C121.714 193.657 121.454 193.75 121.123 193.75C120.793 193.75 120.53 193.657 120.334 193.47C120.143 193.284 120.047 193.052 120.047 192.774ZM125.744 196.462V202.567H123.85V194.805H125.629L125.744 196.462ZM125.443 198.406H124.883C124.888 197.842 124.964 197.33 125.112 196.871C125.261 196.412 125.469 196.017 125.737 195.687C126.009 195.357 126.332 195.104 126.705 194.927C127.078 194.75 127.494 194.661 127.954 194.661C128.327 194.661 128.664 194.714 128.965 194.819C129.267 194.924 129.525 195.092 129.74 195.321C129.96 195.551 130.127 195.852 130.242 196.225C130.362 196.593 130.422 197.048 130.422 197.588V202.567H128.513V197.574C128.513 197.22 128.461 196.94 128.355 196.735C128.255 196.529 128.107 196.383 127.911 196.297C127.719 196.211 127.482 196.168 127.2 196.168C126.909 196.168 126.653 196.228 126.433 196.347C126.217 196.462 126.036 196.622 125.887 196.828C125.744 197.033 125.634 197.27 125.557 197.538C125.481 197.806 125.443 198.095 125.443 198.406ZM137.029 194.805H138.751V202.331C138.751 203.034 138.598 203.629 138.292 204.117C137.991 204.61 137.567 204.983 137.022 205.236C136.477 205.495 135.843 205.624 135.121 205.624C134.81 205.624 134.473 205.581 134.109 205.495C133.751 205.408 133.404 205.272 133.069 205.086C132.739 204.904 132.464 204.667 132.244 204.375L133.098 203.256C133.356 203.557 133.648 203.785 133.973 203.938C134.298 204.096 134.65 204.174 135.028 204.174C135.41 204.174 135.735 204.103 136.003 203.959C136.276 203.821 136.484 203.615 136.628 203.342C136.776 203.074 136.85 202.744 136.85 202.352V196.577L137.029 194.805ZM131.785 198.779V198.629C131.785 198.036 131.856 197.497 132 197.014C132.143 196.526 132.349 196.108 132.617 195.759C132.89 195.41 133.217 195.139 133.6 194.948C133.987 194.757 134.423 194.661 134.906 194.661C135.417 194.661 135.848 194.754 136.197 194.941C136.551 195.127 136.843 195.393 137.072 195.737C137.307 196.082 137.488 196.491 137.618 196.964C137.752 197.433 137.854 197.949 137.926 198.514V198.923C137.859 199.473 137.752 199.977 137.603 200.437C137.46 200.896 137.268 201.298 137.029 201.642C136.79 201.981 136.494 202.245 136.14 202.431C135.786 202.618 135.37 202.711 134.891 202.711C134.413 202.711 133.983 202.613 133.6 202.417C133.217 202.221 132.89 201.946 132.617 201.592C132.349 201.238 132.143 200.822 132 200.343C131.856 199.865 131.785 199.344 131.785 198.779ZM133.679 198.629V198.779C133.679 199.114 133.712 199.427 133.779 199.719C133.846 200.011 133.949 200.269 134.088 200.494C134.226 200.714 134.401 200.886 134.611 201.011C134.822 201.135 135.073 201.197 135.365 201.197C135.757 201.197 136.077 201.116 136.326 200.953C136.58 200.786 136.771 200.559 136.9 200.272C137.034 199.98 137.12 199.652 137.158 199.289V198.162C137.135 197.875 137.082 197.61 137.001 197.366C136.924 197.122 136.816 196.912 136.678 196.735C136.539 196.558 136.362 196.419 136.147 196.318C135.932 196.218 135.676 196.168 135.379 196.168C135.092 196.168 134.841 196.232 134.626 196.361C134.411 196.486 134.234 196.66 134.095 196.885C133.956 197.11 133.851 197.371 133.779 197.667C133.712 197.964 133.679 198.284 133.679 198.629ZM148.415 193.707L145.438 202.567H143.35L147.253 192.121H148.587L148.415 193.707ZM150.905 202.567L147.913 193.707L147.734 192.121H149.075L153 202.567H150.905ZM150.768 198.686V200.243H145.165V198.686H150.768ZM158.868 194.805H160.59V202.331C160.59 203.034 160.437 203.629 160.131 204.117C159.83 204.61 159.406 204.983 158.861 205.236C158.316 205.495 157.682 205.624 156.96 205.624C156.649 205.624 156.312 205.581 155.948 205.495C155.59 205.408 155.243 205.272 154.908 205.086C154.578 204.904 154.303 204.667 154.083 204.375L154.937 203.256C155.195 203.557 155.487 203.785 155.812 203.938C156.137 204.096 156.489 204.174 156.867 204.174C157.249 204.174 157.575 204.103 157.842 203.959C158.115 203.821 158.323 203.615 158.467 203.342C158.615 203.074 158.689 202.744 158.689 202.352V196.577L158.868 194.805ZM153.624 198.779V198.629C153.624 198.036 153.696 197.497 153.839 197.014C153.983 196.526 154.188 196.108 154.456 195.759C154.729 195.41 155.056 195.139 155.439 194.948C155.826 194.757 156.262 194.661 156.745 194.661C157.256 194.661 157.687 194.754 158.036 194.941C158.39 195.127 158.682 195.393 158.911 195.737C159.146 196.082 159.328 196.491 159.457 196.964C159.591 197.433 159.693 197.949 159.765 198.514V198.923C159.698 199.473 159.591 199.977 159.442 200.437C159.299 200.896 159.108 201.298 158.868 201.642C158.629 201.981 158.333 202.245 157.979 202.431C157.625 202.618 157.209 202.711 156.73 202.711C156.252 202.711 155.822 202.613 155.439 202.417C155.056 202.221 154.729 201.946 154.456 201.592C154.188 201.238 153.983 200.822 153.839 200.343C153.696 199.865 153.624 199.344 153.624 198.779ZM155.518 198.629V198.779C155.518 199.114 155.551 199.427 155.618 199.719C155.685 200.011 155.788 200.269 155.927 200.494C156.066 200.714 156.24 200.886 156.451 201.011C156.661 201.135 156.912 201.197 157.204 201.197C157.596 201.197 157.917 201.116 158.165 200.953C158.419 200.786 158.61 200.559 158.739 200.272C158.873 199.98 158.959 199.652 158.998 199.289V198.162C158.974 197.875 158.921 197.61 158.84 197.366C158.763 197.122 158.656 196.912 158.517 196.735C158.378 196.558 158.201 196.419 157.986 196.318C157.771 196.218 157.515 196.168 157.218 196.168C156.931 196.168 156.68 196.232 156.465 196.361C156.25 196.486 156.073 196.66 155.934 196.885C155.795 197.11 155.69 197.371 155.618 197.667C155.551 197.964 155.518 198.284 155.518 198.629ZM165.785 202.711C165.196 202.711 164.668 202.615 164.199 202.424C163.73 202.233 163.331 201.967 163.001 201.628C162.676 201.283 162.425 200.884 162.248 200.429C162.075 199.97 161.989 199.478 161.989 198.951V198.664C161.989 198.067 162.075 197.524 162.248 197.036C162.42 196.543 162.664 196.12 162.979 195.766C163.295 195.412 163.673 195.139 164.113 194.948C164.553 194.757 165.038 194.661 165.569 194.661C166.119 194.661 166.605 194.754 167.026 194.941C167.447 195.123 167.798 195.381 168.08 195.716C168.363 196.051 168.575 196.452 168.719 196.921C168.862 197.385 168.934 197.899 168.934 198.464V199.26H162.85V197.954H167.069V197.811C167.059 197.509 167.002 197.234 166.897 196.986C166.791 196.732 166.629 196.531 166.409 196.383C166.189 196.23 165.904 196.153 165.555 196.153C165.273 196.153 165.026 196.216 164.816 196.34C164.61 196.46 164.438 196.632 164.299 196.857C164.166 197.077 164.065 197.34 163.998 197.646C163.931 197.952 163.898 198.291 163.898 198.664V198.951C163.898 199.277 163.941 199.578 164.027 199.855C164.118 200.133 164.249 200.374 164.421 200.58C164.598 200.781 164.809 200.939 165.053 201.054C165.301 201.164 165.584 201.219 165.899 201.219C166.296 201.219 166.655 201.142 166.976 200.989C167.301 200.831 167.583 200.599 167.822 200.293L168.776 201.283C168.614 201.522 168.394 201.752 168.116 201.972C167.844 202.192 167.514 202.371 167.126 202.51C166.739 202.644 166.292 202.711 165.785 202.711ZM172.062 196.462V202.567H170.168V194.805H171.947L172.062 196.462ZM171.761 198.406H171.201C171.206 197.842 171.283 197.33 171.431 196.871C171.579 196.412 171.787 196.017 172.055 195.687C172.328 195.357 172.651 195.104 173.024 194.927C173.397 194.75 173.813 194.661 174.272 194.661C174.645 194.661 174.982 194.714 175.284 194.819C175.585 194.924 175.843 195.092 176.058 195.321C176.278 195.551 176.446 195.852 176.561 196.225C176.68 196.593 176.74 197.048 176.74 197.588V202.567H174.832V197.574C174.832 197.22 174.779 196.94 174.674 196.735C174.573 196.529 174.425 196.383 174.229 196.297C174.038 196.211 173.801 196.168 173.519 196.168C173.227 196.168 172.971 196.228 172.751 196.347C172.536 196.462 172.354 196.622 172.206 196.828C172.062 197.033 171.952 197.27 171.876 197.538C171.799 197.806 171.761 198.095 171.761 198.406ZM182.085 194.805V196.168H177.637V194.805H182.085ZM178.828 192.896H180.729V200.329C180.729 200.559 180.76 200.736 180.822 200.86C180.884 200.984 180.978 201.068 181.102 201.111C181.226 201.154 181.375 201.176 181.547 201.176C181.671 201.176 181.786 201.168 181.891 201.154C181.996 201.14 182.085 201.125 182.157 201.111L182.164 202.532C182.006 202.584 181.827 202.627 181.626 202.661C181.43 202.694 181.207 202.711 180.959 202.711C180.533 202.711 180.16 202.639 179.839 202.496C179.519 202.347 179.27 202.111 179.093 201.785C178.916 201.455 178.828 201.02 178.828 200.48V192.896Z" fill="#6E58F1"/>
<path d="M384.381 198.384C384.381 198.228 384.357 198.091 384.308 197.972C384.262 197.85 384.18 197.74 384.061 197.642C383.945 197.545 383.783 197.452 383.576 197.363C383.371 197.275 383.112 197.185 382.798 197.093C382.469 196.996 382.171 196.887 381.906 196.768C381.64 196.646 381.413 196.507 381.224 196.352C381.035 196.196 380.89 196.018 380.789 195.817C380.689 195.615 380.638 195.385 380.638 195.126C380.638 194.866 380.692 194.627 380.798 194.407C380.905 194.188 381.058 193.997 381.256 193.835C381.457 193.671 381.697 193.542 381.974 193.451C382.252 193.359 382.562 193.314 382.903 193.314C383.404 193.314 383.828 193.41 384.175 193.602C384.526 193.791 384.793 194.04 384.976 194.348C385.159 194.653 385.251 194.979 385.251 195.327H384.372C384.372 195.077 384.319 194.856 384.212 194.663C384.105 194.468 383.943 194.316 383.727 194.206C383.51 194.093 383.236 194.037 382.903 194.037C382.589 194.037 382.33 194.084 382.125 194.178C381.921 194.273 381.768 194.401 381.668 194.563C381.57 194.724 381.521 194.909 381.521 195.116C381.521 195.257 381.55 195.385 381.608 195.501C381.669 195.614 381.762 195.719 381.887 195.817C382.016 195.914 382.177 196.004 382.372 196.086C382.571 196.169 382.807 196.248 383.082 196.324C383.46 196.431 383.786 196.55 384.061 196.681C384.335 196.813 384.561 196.96 384.738 197.125C384.918 197.287 385.051 197.471 385.136 197.679C385.225 197.883 385.269 198.115 385.269 198.374C385.269 198.646 385.214 198.891 385.104 199.111C384.994 199.331 384.837 199.518 384.633 199.674C384.428 199.829 384.183 199.95 383.896 200.035C383.612 200.118 383.295 200.159 382.944 200.159C382.636 200.159 382.333 200.116 382.034 200.031C381.738 199.945 381.468 199.817 381.224 199.646C380.983 199.476 380.789 199.265 380.643 199.015C380.499 198.762 380.428 198.469 380.428 198.136H381.306C381.306 198.365 381.351 198.562 381.439 198.727C381.527 198.888 381.648 199.023 381.8 199.129C381.956 199.236 382.131 199.315 382.327 199.367C382.525 199.416 382.731 199.441 382.944 199.441C383.253 199.441 383.513 199.398 383.727 199.312C383.94 199.227 384.102 199.105 384.212 198.946C384.325 198.788 384.381 198.6 384.381 198.384ZM389.186 199.221V196.672C389.186 196.477 389.146 196.308 389.067 196.164C388.99 196.018 388.875 195.905 388.719 195.826C388.563 195.746 388.371 195.707 388.142 195.707C387.929 195.707 387.741 195.743 387.58 195.817C387.421 195.89 387.296 195.986 387.204 196.105C387.116 196.224 387.072 196.352 387.072 196.489H386.225C386.225 196.312 386.271 196.137 386.362 195.963C386.454 195.789 386.585 195.632 386.756 195.492C386.93 195.348 387.137 195.235 387.378 195.153C387.622 195.068 387.894 195.025 388.193 195.025C388.553 195.025 388.87 195.086 389.145 195.208C389.422 195.33 389.639 195.515 389.794 195.762C389.953 196.006 390.032 196.312 390.032 196.681V198.988C390.032 199.152 390.046 199.328 390.073 199.514C390.104 199.7 390.148 199.86 390.206 199.994V200.067H389.323C389.28 199.97 389.247 199.84 389.222 199.678C389.198 199.514 389.186 199.361 389.186 199.221ZM389.332 197.066L389.341 197.661H388.486C388.245 197.661 388.03 197.68 387.84 197.72C387.651 197.757 387.493 197.813 387.365 197.889C387.236 197.966 387.139 198.062 387.072 198.178C387.005 198.29 386.971 198.423 386.971 198.576C386.971 198.731 387.006 198.873 387.076 199.001C387.146 199.129 387.252 199.232 387.392 199.308C387.535 199.381 387.711 199.418 387.918 199.418C388.178 199.418 388.406 199.363 388.605 199.253C388.803 199.143 388.96 199.009 389.076 198.85C389.195 198.692 389.259 198.538 389.268 198.388L389.63 198.795C389.608 198.923 389.55 199.065 389.456 199.221C389.361 199.376 389.235 199.526 389.076 199.669C388.92 199.81 388.734 199.927 388.518 200.022C388.304 200.113 388.063 200.159 387.795 200.159C387.459 200.159 387.165 200.093 386.912 199.962C386.661 199.831 386.466 199.656 386.326 199.436C386.189 199.213 386.12 198.965 386.12 198.69C386.12 198.425 386.172 198.191 386.276 197.99C386.379 197.786 386.529 197.616 386.724 197.482C386.919 197.345 387.154 197.241 387.429 197.171C387.703 197.101 388.01 197.066 388.348 197.066H389.332ZM392.283 193.039V200.067H391.432V193.039H392.283ZM395.697 200.159C395.352 200.159 395.04 200.101 394.759 199.985C394.481 199.866 394.242 199.7 394.041 199.486C393.842 199.273 393.69 199.02 393.583 198.727C393.476 198.434 393.423 198.114 393.423 197.766V197.574C393.423 197.171 393.482 196.813 393.601 196.498C393.72 196.181 393.882 195.913 394.086 195.693C394.291 195.473 394.523 195.307 394.782 195.194C395.041 195.081 395.31 195.025 395.587 195.025C395.941 195.025 396.246 195.086 396.502 195.208C396.762 195.33 396.974 195.501 397.138 195.72C397.303 195.937 397.425 196.193 397.504 196.489C397.584 196.782 397.623 197.102 397.623 197.45V197.83H393.926V197.139H396.777V197.075C396.765 196.855 396.719 196.642 396.64 196.434C396.563 196.227 396.441 196.056 396.274 195.922C396.106 195.788 395.877 195.72 395.587 195.72C395.395 195.72 395.218 195.762 395.056 195.844C394.895 195.923 394.756 196.042 394.64 196.201C394.524 196.36 394.434 196.553 394.37 196.782C394.306 197.011 394.274 197.275 394.274 197.574V197.766C394.274 198.001 394.306 198.222 394.37 198.429C394.437 198.634 394.533 198.814 394.658 198.969C394.786 199.125 394.94 199.247 395.12 199.335C395.303 199.424 395.511 199.468 395.743 199.468C396.042 199.468 396.295 199.407 396.502 199.285C396.71 199.163 396.891 199 397.047 198.795L397.559 199.203C397.453 199.364 397.317 199.518 397.152 199.665C396.987 199.811 396.784 199.93 396.543 200.022C396.306 200.113 396.023 200.159 395.697 200.159ZM401.494 198.754C401.494 198.632 401.467 198.519 401.412 198.416C401.36 198.309 401.252 198.213 401.087 198.127C400.926 198.039 400.681 197.963 400.355 197.898C400.081 197.841 399.832 197.772 399.609 197.693C399.39 197.613 399.202 197.517 399.046 197.404C398.894 197.291 398.776 197.159 398.694 197.006C398.612 196.854 398.571 196.675 398.571 196.471C398.571 196.276 398.613 196.091 398.699 195.917C398.787 195.743 398.911 195.589 399.069 195.455C399.231 195.321 399.425 195.216 399.65 195.139C399.876 195.063 400.128 195.025 400.405 195.025C400.802 195.025 401.141 195.095 401.421 195.235C401.702 195.376 401.917 195.563 402.066 195.798C402.216 196.03 402.291 196.288 402.291 196.572H401.444C401.444 196.434 401.403 196.302 401.321 196.173C401.241 196.042 401.124 195.934 400.968 195.849C400.816 195.763 400.628 195.72 400.405 195.72C400.171 195.72 399.98 195.757 399.833 195.83C399.69 195.9 399.585 195.99 399.518 196.1C399.454 196.21 399.422 196.326 399.422 196.448C399.422 196.539 399.437 196.622 399.467 196.695C399.501 196.765 399.559 196.831 399.641 196.892C399.724 196.95 399.84 197.005 399.989 197.057C400.138 197.108 400.329 197.16 400.561 197.212C400.967 197.304 401.301 197.413 401.563 197.542C401.825 197.67 402.021 197.827 402.149 198.013C402.277 198.199 402.341 198.425 402.341 198.69C402.341 198.907 402.295 199.105 402.204 199.285C402.115 199.465 401.986 199.62 401.815 199.752C401.647 199.88 401.446 199.98 401.211 200.054C400.979 200.124 400.718 200.159 400.428 200.159C399.992 200.159 399.623 200.081 399.321 199.926C399.019 199.77 398.79 199.569 398.635 199.322C398.479 199.074 398.401 198.814 398.401 198.539H399.252C399.265 198.771 399.332 198.955 399.454 199.093C399.576 199.227 399.725 199.323 399.902 199.381C400.079 199.436 400.254 199.463 400.428 199.463C400.66 199.463 400.854 199.433 401.009 199.372C401.168 199.311 401.289 199.227 401.371 199.12C401.453 199.013 401.494 198.891 401.494 198.754Z" fill="#7A7A7A"/>
</g>
</g>
<defs>
<filter id="filter0_d_202_534" x="46.3305" y="-59.9959" width="391.337" height="61.4746" filterUnits="userSpaceOnUse" color-interpolation-filters="sRGB">
<feFlood flood-opacity="0" result="BackgroundImageFix"/>
<feColorMatrix in="SourceAlpha" type="matrix" values="0 0 0 0 0 0 0 0 0 0 0 0 0 0 0 0 0 0 127 0" result="hardAlpha"/>
<feOffset dx="1.99918" dy="1.99918"/>
<feGaussianBlur stdDeviation="5.99755"/>
<feComposite in2="hardAlpha" operator="out"/>
<feColorMatrix type="matrix" values="0 0 0 0 0 0 0 0 0 0 0 0 0 0 0 0 0 0 0.05 0"/>
<feBlend mode="normal" in2="BackgroundImageFix" result="effect1_dropShadow_202_534"/>
<feBlend mode="normal" in="SourceGraphic" in2="effect1_dropShadow_202_534" result="shape"/>
</filter>
<filter id="filter1_df_202_534" x="34.0856" y="-9.28693" width="415.827" height="72.9697" filterUnits="userSpaceOnUse" color-interpolation-filters="sRGB">
<feFlood flood-opacity="0" result="BackgroundImageFix"/>
<feColorMatrix in="SourceAlpha" type="matrix" values="0 0 0 0 0 0 0 0 0 0 0 0 0 0 0 0 0 0 127 0" result="hardAlpha"/>
<feOffset dx="1.99918" dy="1.99918"/>
<feGaussianBlur stdDeviation="5.99755"/>
<feComposite in2="hardAlpha" operator="out"/>
<feColorMatrix type="matrix" values="0 0 0 0 0 0 0 0 0 0 0 0 0 0 0 0 0 0 0.05 0"/>
<feBlend mode="normal" in2="BackgroundImageFix" result="effect1_dropShadow_202_534"/>
<feBlend mode="normal" in="SourceGraphic" in2="effect1_dropShadow_202_534" result="shape"/>
<feGaussianBlur stdDeviation="3.67347" result="effect2_foregroundBlur_202_534"/>
</filter>
<filter id="filter2_df_202_534" x="34.0842" y="52.9169" width="415.83" height="63.9738" filterUnits="userSpaceOnUse" color-interpolation-filters="sRGB">
<feFlood flood-opacity="0" result="BackgroundImageFix"/>
<feColorMatrix in="SourceAlpha" type="matrix" values="0 0 0 0 0 0 0 0 0 0 0 0 0 0 0 0 0 0 127 0" result="hardAlpha"/>
<feOffset dx="1.99918" dy="1.99918"/>
<feGaussianBlur stdDeviation="5.99755"/>
<feComposite in2="hardAlpha" operator="out"/>
<feColorMatrix type="matrix" values="0 0 0 0 0 0 0 0 0 0 0 0 0 0 0 0 0 0 0.05 0"/>
<feBlend mode="normal" in2="BackgroundImageFix" result="effect1_dropShadow_202_534"/>
<feBlend mode="normal" in="SourceGraphic" in2="effect1_dropShadow_202_534" result="shape"/>
<feGaussianBlur stdDeviation="2.44798" result="effect2_foregroundBlur_202_534"/>
</filter>
<filter id="filter3_d_202_534" x="-12.2449" y="103.876" width="509.388" height="78.3672" filterUnits="userSpaceOnUse" color-interpolation-filters="sRGB">
<feFlood flood-opacity="0" result="BackgroundImageFix"/>
<feColorMatrix in="SourceAlpha" type="matrix" values="0 0 0 0 0 0 0 0 0 0 0 0 0 0 0 0 0 0 127 0" result="hardAlpha"/>
<feOffset dx="2.44898" dy="2.44898"/>
<feGaussianBlur stdDeviation="7.34694"/>
<feComposite in2="hardAlpha" operator="out"/>
<feColorMatrix type="matrix" values="0 0 0 0 0 0 0 0 0 0 0 0 0 0 0 0 0 0 0.03 0"/>
<feBlend mode="normal" in2="BackgroundImageFix" result="effect1_dropShadow_202_534"/>
<feBlend mode="normal" in="SourceGraphic" in2="effect1_dropShadow_202_534" result="shape"/>
</filter>
<filter id="filter4_df_202_534" x="46.3307" y="168.329" width="391.337" height="61.4746" filterUnits="userSpaceOnUse" color-interpolation-filters="sRGB">
<feFlood flood-opacity="0" result="BackgroundImageFix"/>
<feColorMatrix in="SourceAlpha" type="matrix" values="0 0 0 0 0 0 0 0 0 0 0 0 0 0 0 0 0 0 127 0" result="hardAlpha"/>
<feOffset dx="1.99918" dy="1.99918"/>
<feGaussianBlur stdDeviation="5.99755"/>
<feComposite in2="hardAlpha" operator="out"/>
<feColorMatrix type="matrix" values="0 0 0 0 0 0 0 0 0 0 0 0 0 0 0 0 0 0 0.05 0"/>
<feBlend mode="normal" in2="BackgroundImageFix" result="effect1_dropShadow_202_534"/>
<feBlend mode="normal" in="SourceGraphic" in2="effect1_dropShadow_202_534" result="shape"/>
<feGaussianBlur stdDeviation="4.68555" result="effect2_foregroundBlur_202_534"/>
</filter>
<clipPath id="clip0_202_534">
<rect width="480" height="265.809" fill="white"/>
</clipPath>
</defs>
</svg>
