<svg width="480" height="182" viewBox="0 0 480 182" fill="none" xmlns="http://www.w3.org/2000/svg">
<g clip-path="url(#clip0_202_27)">
<path d="M107.343 259.387C107.343 266.165 105.76 271.88 102.593 276.531C99.4264 281.133 95.0722 284.621 89.5305 286.996C84.0383 289.322 77.804 290.484 70.8274 290.484C63.8508 290.484 57.5917 289.322 52.05 286.996C46.5084 284.621 42.1295 281.133 38.9133 276.531C35.6972 271.88 34.0891 266.165 34.0891 259.387C34.0891 254.835 35.0045 250.728 36.8352 247.066C38.6659 243.355 41.2141 240.189 44.4797 237.566C47.7948 234.895 51.679 232.866 56.1321 231.48C60.5852 230.046 65.4342 229.328 70.679 229.328C77.705 229.328 83.9889 230.565 89.5305 233.039C95.0722 235.513 99.4264 239.001 102.593 243.504C105.76 248.007 107.343 253.301 107.343 259.387ZM85.8196 257.977C85.8196 254.661 85.1764 251.816 83.8899 249.441C82.6529 247.017 80.8964 245.161 78.6204 243.875C76.3443 242.589 73.6972 241.945 70.679 241.945C67.6607 241.945 65.0136 242.589 62.7375 243.875C60.4615 245.161 58.6803 247.017 57.3938 249.441C56.1568 251.816 55.5383 254.661 55.5383 257.977C55.5383 261.242 56.1568 264.062 57.3938 266.438C58.6803 268.812 60.4615 270.643 62.7375 271.93C65.0631 273.167 67.7597 273.785 70.8274 273.785C73.8951 273.785 76.5422 273.167 78.7688 271.93C81.0448 270.643 82.7766 268.812 83.9641 266.438C85.2011 264.062 85.8196 261.242 85.8196 257.977ZM105.042 209.586C105.042 215.078 103.583 219.952 100.663 224.207C97.7441 228.413 93.6868 231.703 88.4915 234.078C83.3456 236.453 77.4576 237.641 70.8274 237.641C64.1477 237.641 58.2102 236.453 53.0149 234.078C47.8196 231.703 43.7623 228.413 40.843 224.207C37.9237 219.952 36.4641 215.078 36.4641 209.586C36.4641 203.055 37.9237 197.562 40.843 193.109C43.8118 188.607 47.8691 185.193 53.0149 182.867C58.2102 180.542 64.0982 179.379 70.679 179.379C77.3586 179.379 83.2714 180.542 88.4172 182.867C93.6125 185.193 97.6698 188.607 100.589 193.109C103.558 197.562 105.042 203.055 105.042 209.586ZM83.6672 210.551C83.6672 207.632 83.1477 205.108 82.1086 202.98C81.0696 200.803 79.5852 199.121 77.6555 197.934C75.7753 196.746 73.4498 196.152 70.679 196.152C68.0071 196.152 65.7063 196.721 63.7766 197.859C61.8964 198.997 60.4368 200.655 59.3977 202.832C58.4081 204.96 57.9133 207.533 57.9133 210.551C57.9133 213.47 58.4081 216.043 59.3977 218.27C60.4368 220.447 61.9211 222.154 63.8508 223.391C65.7805 224.628 68.106 225.246 70.8274 225.246C73.5487 225.246 75.8495 224.628 77.7297 223.391C79.6594 222.154 81.1191 220.447 82.1086 218.27C83.1477 216.043 83.6672 213.47 83.6672 210.551ZM194.55 225.469V244.172C194.55 252.286 193.684 259.288 191.952 265.176C190.221 271.014 187.722 275.814 184.456 279.574C181.24 283.285 177.406 286.031 172.952 287.812C168.499 289.594 163.551 290.484 158.109 290.484C153.754 290.484 149.697 289.94 145.937 288.852C142.176 287.714 138.787 285.957 135.769 283.582C132.8 281.207 130.227 278.214 128.05 274.602C125.922 270.94 124.29 266.586 123.152 261.539C122.014 256.492 121.445 250.703 121.445 244.172V225.469C121.445 217.354 122.31 210.402 124.042 204.613C125.823 198.775 128.322 194 131.538 190.289C134.804 186.578 138.663 183.857 143.116 182.125C147.57 180.344 152.517 179.453 157.96 179.453C162.314 179.453 166.347 180.022 170.058 181.16C173.818 182.249 177.208 183.956 180.226 186.281C183.244 188.607 185.817 191.6 187.945 195.262C190.072 198.874 191.705 203.203 192.843 208.25C193.981 213.247 194.55 218.987 194.55 225.469ZM173.101 246.992V222.574C173.101 218.665 172.878 215.251 172.433 212.332C172.037 209.413 171.419 206.939 170.577 204.91C169.736 202.832 168.697 201.15 167.46 199.863C166.223 198.577 164.813 197.637 163.23 197.043C161.646 196.449 159.89 196.152 157.96 196.152C155.536 196.152 153.383 196.622 151.503 197.562C149.672 198.503 148.114 200.012 146.827 202.09C145.541 204.118 144.551 206.84 143.859 210.254C143.215 213.618 142.894 217.725 142.894 222.574V246.992C142.894 250.901 143.092 254.34 143.488 257.309C143.933 260.277 144.576 262.826 145.417 264.953C146.308 267.031 147.347 268.738 148.534 270.074C149.771 271.361 151.182 272.301 152.765 272.895C154.398 273.488 156.179 273.785 158.109 273.785C160.484 273.785 162.587 273.315 164.417 272.375C166.297 271.385 167.881 269.852 169.167 267.773C170.503 265.646 171.493 262.875 172.136 259.461C172.779 256.047 173.101 251.891 173.101 246.992ZM208.8 207.434V201.719C208.8 197.612 209.691 193.876 211.472 190.512C213.253 187.147 215.876 184.451 219.339 182.422C222.803 180.393 227.058 179.379 232.105 179.379C237.3 179.379 241.629 180.393 245.093 182.422C248.606 184.451 251.228 187.147 252.96 190.512C254.741 193.876 255.632 197.612 255.632 201.719V207.434C255.632 211.441 254.741 215.128 252.96 218.492C251.228 221.857 248.631 224.553 245.167 226.582C241.704 228.611 237.399 229.625 232.253 229.625C227.157 229.625 222.852 228.611 219.339 226.582C215.876 224.553 213.253 221.857 211.472 218.492C209.691 215.128 208.8 211.441 208.8 207.434ZM222.976 201.719V207.434C222.976 209.165 223.297 210.823 223.941 212.406C224.633 213.94 225.672 215.202 227.058 216.191C228.493 217.132 230.225 217.602 232.253 217.602C234.381 217.602 236.113 217.132 237.448 216.191C238.784 215.202 239.774 213.94 240.417 212.406C241.06 210.823 241.382 209.165 241.382 207.434V201.719C241.382 199.888 241.036 198.206 240.343 196.672C239.7 195.089 238.685 193.827 237.3 192.887C235.964 191.897 234.232 191.402 232.105 191.402C230.126 191.402 228.443 191.897 227.058 192.887C225.672 193.827 224.633 195.089 223.941 196.672C223.297 198.206 222.976 199.888 222.976 201.719ZM260.456 268.219V262.504C260.456 258.447 261.347 254.736 263.128 251.371C264.959 248.007 267.606 245.31 271.07 243.281C274.583 241.253 278.887 240.238 283.984 240.238C289.129 240.238 293.434 241.253 296.898 243.281C300.361 245.31 302.984 248.007 304.765 251.371C306.546 254.736 307.437 258.447 307.437 262.504V268.219C307.437 272.276 306.546 275.987 304.765 279.352C303.033 282.716 300.435 285.413 296.972 287.441C293.508 289.47 289.228 290.484 284.132 290.484C278.986 290.484 274.657 289.47 271.144 287.441C267.631 285.413 264.959 282.716 263.128 279.352C261.347 275.987 260.456 272.276 260.456 268.219ZM274.706 262.504V268.219C274.706 270 275.102 271.682 275.894 273.266C276.685 274.849 277.774 276.111 279.159 277.051C280.594 277.991 282.252 278.461 284.132 278.461C286.507 278.461 288.363 277.991 289.698 277.051C291.034 276.111 291.95 274.849 292.445 273.266C292.989 271.682 293.261 270 293.261 268.219V262.504C293.261 260.723 292.915 259.065 292.222 257.531C291.529 255.948 290.49 254.686 289.105 253.746C287.769 252.757 286.062 252.262 283.984 252.262C281.906 252.262 280.174 252.757 278.788 253.746C277.452 254.686 276.438 255.948 275.745 257.531C275.053 259.065 274.706 260.723 274.706 262.504ZM289.253 196.375L236.484 280.836L226.093 275.344L278.863 190.883L289.253 196.375Z" fill="url(#paint0_linear_202_27)"/>
<path d="M449.406 22.8984V24.2578H441.609V22.8984H449.406ZM446.234 19.5781V27.8594H444.789V19.5781H446.234ZM458.195 25.9219C458.195 26.6146 458.034 27.2031 457.711 27.6875C457.393 28.1667 456.961 28.5312 456.414 28.7812C455.872 29.0312 455.26 29.1562 454.578 29.1562C453.896 29.1562 453.281 29.0312 452.734 28.7812C452.188 28.5312 451.755 28.1667 451.438 27.6875C451.12 27.2031 450.961 26.6146 450.961 25.9219C450.961 25.4688 451.047 25.0547 451.219 24.6797C451.396 24.2995 451.643 23.9688 451.961 23.6875C452.284 23.4062 452.664 23.1901 453.102 23.0391C453.544 22.8828 454.031 22.8047 454.562 22.8047C455.26 22.8047 455.883 22.9401 456.43 23.2109C456.977 23.4766 457.406 23.8438 457.719 24.3125C458.036 24.7812 458.195 25.3177 458.195 25.9219ZM456.742 25.8906C456.742 25.4688 456.651 25.0964 456.469 24.7734C456.286 24.4453 456.031 24.1901 455.703 24.0078C455.375 23.8255 454.995 23.7344 454.562 23.7344C454.12 23.7344 453.737 23.8255 453.414 24.0078C453.096 24.1901 452.849 24.4453 452.672 24.7734C452.495 25.0964 452.406 25.4688 452.406 25.8906C452.406 26.3281 452.492 26.7031 452.664 27.0156C452.841 27.3229 453.091 27.5599 453.414 27.7266C453.742 27.888 454.13 27.9688 454.578 27.9688C455.026 27.9688 455.411 27.888 455.734 27.7266C456.057 27.5599 456.305 27.3229 456.477 27.0156C456.654 26.7031 456.742 26.3281 456.742 25.8906ZM457.93 20.5859C457.93 21.138 457.784 21.6354 457.492 22.0781C457.201 22.5208 456.802 22.8698 456.297 23.125C455.792 23.3802 455.219 23.5078 454.578 23.5078C453.927 23.5078 453.346 23.3802 452.836 23.125C452.331 22.8698 451.935 22.5208 451.648 22.0781C451.362 21.6354 451.219 21.138 451.219 20.5859C451.219 19.9245 451.362 19.362 451.648 18.8984C451.94 18.4349 452.339 18.0807 452.844 17.8359C453.349 17.5911 453.924 17.4688 454.57 17.4688C455.221 17.4688 455.799 17.5911 456.305 17.8359C456.81 18.0807 457.206 18.4349 457.492 18.8984C457.784 19.362 457.93 19.9245 457.93 20.5859ZM456.484 20.6094C456.484 20.2292 456.404 19.8932 456.242 19.6016C456.081 19.3099 455.857 19.0807 455.57 18.9141C455.284 18.7422 454.951 18.6562 454.57 18.6562C454.19 18.6562 453.857 18.737 453.57 18.8984C453.289 19.0547 453.068 19.2786 452.906 19.5703C452.75 19.862 452.672 20.2083 452.672 20.6094C452.672 21 452.75 21.3411 452.906 21.6328C453.068 21.9245 453.292 22.151 453.578 22.3125C453.865 22.474 454.198 22.5547 454.578 22.5547C454.958 22.5547 455.289 22.474 455.57 22.3125C455.857 22.151 456.081 21.9245 456.242 21.6328C456.404 21.3411 456.484 21 456.484 20.6094ZM467.164 22.4062V24.1406C467.164 25.0729 467.081 25.8594 466.914 26.5C466.747 27.1406 466.508 27.6562 466.195 28.0469C465.883 28.4375 465.505 28.7214 465.062 28.8984C464.625 29.0703 464.13 29.1562 463.578 29.1562C463.141 29.1562 462.737 29.1016 462.367 28.9922C461.997 28.8828 461.664 28.7083 461.367 28.4688C461.076 28.224 460.826 27.9062 460.617 27.5156C460.409 27.125 460.25 26.651 460.141 26.0938C460.031 25.5365 459.977 24.8854 459.977 24.1406V22.4062C459.977 21.474 460.06 20.6927 460.227 20.0625C460.398 19.4323 460.641 18.9271 460.953 18.5469C461.266 18.1615 461.641 17.8854 462.078 17.7188C462.521 17.5521 463.016 17.4688 463.562 17.4688C464.005 17.4688 464.411 17.5234 464.781 17.6328C465.156 17.737 465.49 17.9062 465.781 18.1406C466.073 18.3698 466.32 18.6771 466.523 19.0625C466.732 19.4427 466.891 19.9089 467 20.4609C467.109 21.013 467.164 21.6615 467.164 22.4062ZM465.711 24.375V22.1641C465.711 21.6536 465.68 21.2057 465.617 20.8203C465.56 20.4297 465.474 20.0964 465.359 19.8203C465.245 19.5443 465.099 19.3203 464.922 19.1484C464.75 18.9766 464.549 18.8516 464.32 18.7734C464.096 18.6901 463.844 18.6484 463.562 18.6484C463.219 18.6484 462.914 18.7135 462.648 18.8438C462.383 18.9688 462.159 19.1693 461.977 19.4453C461.799 19.7214 461.664 20.0833 461.57 20.5312C461.477 20.9792 461.43 21.5234 461.43 22.1641V24.375C461.43 24.8854 461.458 25.3359 461.516 25.7266C461.578 26.1172 461.669 26.4557 461.789 26.7422C461.909 27.0234 462.055 27.2552 462.227 27.4375C462.398 27.6198 462.596 27.7552 462.82 27.8438C463.049 27.9271 463.302 27.9688 463.578 27.9688C463.932 27.9688 464.242 27.901 464.508 27.7656C464.773 27.6302 464.995 27.4193 465.172 27.1328C465.354 26.8411 465.49 26.4688 465.578 26.0156C465.667 25.5573 465.711 25.0104 465.711 24.375ZM468.898 20.4141V19.8125C468.898 19.3802 468.992 18.987 469.18 18.6328C469.367 18.2786 469.635 17.9948 469.984 17.7812C470.333 17.5677 470.747 17.4609 471.227 17.4609C471.716 17.4609 472.133 17.5677 472.477 17.7812C472.826 17.9948 473.094 18.2786 473.281 18.6328C473.469 18.987 473.562 19.3802 473.562 19.8125V20.4141C473.562 20.8359 473.469 21.224 473.281 21.5781C473.099 21.9323 472.833 22.2161 472.484 22.4297C472.141 22.6432 471.727 22.75 471.242 22.75C470.758 22.75 470.339 22.6432 469.984 22.4297C469.635 22.2161 469.367 21.9323 469.18 21.5781C468.992 21.224 468.898 20.8359 468.898 20.4141ZM469.984 19.8125V20.4141C469.984 20.6536 470.029 20.8802 470.117 21.0938C470.211 21.3073 470.352 21.4818 470.539 21.6172C470.727 21.7474 470.961 21.8125 471.242 21.8125C471.523 21.8125 471.755 21.7474 471.938 21.6172C472.12 21.4818 472.255 21.3073 472.344 21.0938C472.432 20.8802 472.477 20.6536 472.477 20.4141V19.8125C472.477 19.5677 472.43 19.3385 472.336 19.125C472.247 18.9062 472.109 18.7318 471.922 18.6016C471.74 18.4661 471.508 18.3984 471.227 18.3984C470.951 18.3984 470.719 18.4661 470.531 18.6016C470.349 18.7318 470.211 18.9062 470.117 19.125C470.029 19.3385 469.984 19.5677 469.984 19.8125ZM474.438 26.8203V26.2109C474.438 25.7839 474.531 25.3932 474.719 25.0391C474.906 24.6849 475.174 24.401 475.523 24.1875C475.872 23.974 476.286 23.8672 476.766 23.8672C477.255 23.8672 477.672 23.974 478.016 24.1875C478.365 24.401 478.633 24.6849 478.82 25.0391C479.008 25.3932 479.102 25.7839 479.102 26.2109V26.8203C479.102 27.2474 479.008 27.638 478.82 27.9922C478.638 28.3464 478.372 28.6302 478.023 28.8438C477.68 29.0573 477.266 29.1641 476.781 29.1641C476.297 29.1641 475.88 29.0573 475.531 28.8438C475.182 28.6302 474.911 28.3464 474.719 27.9922C474.531 27.638 474.438 27.2474 474.438 26.8203ZM475.523 26.2109V26.8203C475.523 27.0599 475.568 27.2891 475.656 27.5078C475.75 27.7214 475.891 27.8958 476.078 28.0312C476.266 28.1615 476.5 28.2266 476.781 28.2266C477.062 28.2266 477.294 28.1615 477.477 28.0312C477.664 27.8958 477.802 27.7214 477.891 27.5078C477.979 27.2943 478.023 27.0651 478.023 26.8203V26.2109C478.023 25.9661 477.977 25.737 477.883 25.5234C477.794 25.3099 477.656 25.138 477.469 25.0078C477.286 24.8724 477.052 24.8047 476.766 24.8047C476.49 24.8047 476.258 24.8724 476.07 25.0078C475.888 25.138 475.75 25.3099 475.656 25.5234C475.568 25.737 475.523 25.9661 475.523 26.2109ZM477.125 19.2422L471.57 28.1328L470.758 27.6172L476.312 18.7266L477.125 19.2422Z" fill="#6E58F1"/>
<path d="M87.5062 110.147C39.2997 108.272 0 182 0 182H479.994V36C479.994 36 457.197 81.3662 430.549 76.6001C413.434 73.5389 414.698 56.5603 398.792 50.5236C355.546 34.1107 359.697 126.308 312.45 121.421C275.772 117.628 281.956 71.0303 245.423 66.3848C195.503 60.0369 204.246 144.211 153.834 141.591C124.005 140.041 117.362 111.308 87.5062 110.147Z" fill="url(#paint1_linear_202_27)"/>
<path d="M-1.32337 181.294C-1.71338 182.025 -1.43706 182.933 -0.706184 183.323C0.0246921 183.713 0.933354 183.437 1.32337 182.706L0 182L-1.32337 181.294ZM87.5074 110.225L87.4491 111.724L87.5074 110.225ZM153.836 141.635L153.914 140.137L153.836 141.635ZM245.427 66.5108L245.238 67.9989L245.427 66.5108ZM312.454 121.487L312.299 122.979L312.454 121.487ZM398.797 50.6669L398.266 52.0695L398.797 50.6669ZM430.555 76.715L430.819 75.2383L430.555 76.715ZM480 36.1592L464.88 44.6087L479.758 53.478L480 36.1592ZM0 182C1.32337 182.706 1.32334 182.706 1.32346 182.706C1.3237 182.705 1.32397 182.705 1.32445 182.704C1.3254 182.702 1.32695 182.699 1.3291 182.695C1.3334 182.687 1.34008 182.675 1.34912 182.658C1.3672 182.625 1.39474 182.574 1.43163 182.506C1.50541 182.37 1.61656 182.168 1.76416 181.902C2.05937 181.371 2.50032 180.589 3.07957 179.593C4.23819 177.6 5.94953 174.751 8.15417 171.335C12.5655 164.501 18.9417 155.415 26.8065 146.396C42.6267 128.254 64.0901 110.816 87.4491 111.724L87.5074 110.225L87.5656 108.726C62.7175 107.761 40.4272 126.211 24.5454 144.424C16.5593 153.583 10.0975 162.792 5.63362 169.708C3.40063 173.168 1.66501 176.057 0.486097 178.085C-0.103416 179.099 -0.553889 179.898 -0.857906 180.444C-1.00992 180.718 -1.12533 180.928 -1.20321 181.071C-1.24216 181.143 -1.27172 181.198 -1.29178 181.235C-1.30181 181.253 -1.30947 181.268 -1.31474 181.278C-1.31737 181.282 -1.31941 181.286 -1.32085 181.289C-1.32157 181.29 -1.3222 181.291 -1.32256 181.292C-1.32304 181.293 -1.32337 181.294 0 182ZM87.5074 110.225L87.4491 111.724C101.823 112.282 110.597 119.42 119.728 126.942C128.833 134.442 138.297 142.33 153.758 143.133L153.836 141.635L153.914 140.137C139.545 139.391 130.773 132.154 121.635 124.626C112.523 117.12 103.048 109.327 87.5656 108.726L87.5074 110.225ZM153.836 141.635L153.758 143.133C166.864 143.813 176.179 138.825 183.482 131.143C190.706 123.543 195.995 113.267 201.146 103.369C206.35 93.3679 211.41 83.7602 218.202 77.0054C224.896 70.3481 233.261 66.4776 245.238 67.9989L245.427 66.5108L245.616 65.0228C232.632 63.3736 223.369 67.6354 216.087 74.8783C208.902 82.0237 203.637 92.0839 198.485 101.984C193.28 111.986 188.182 121.844 181.308 129.076C174.512 136.224 166.014 140.765 153.914 140.137L153.836 141.635ZM245.427 66.5108L245.238 67.9989C262.698 70.2167 269.954 82.3329 277.599 95.0895C285.172 107.726 293.136 121 312.299 122.979L312.454 121.487L312.608 119.995C295.093 118.186 287.81 106.292 280.172 93.5473C272.607 80.923 264.688 67.4454 245.616 65.0228L245.427 66.5108ZM312.454 121.487L312.299 122.979C324.704 124.261 333.746 119.13 340.91 111.179C348.003 103.308 353.355 92.564 358.465 82.435C363.637 72.1835 368.538 62.6185 374.751 56.5778C377.824 53.5899 381.159 51.5287 384.942 50.6654C388.719 49.8035 393.081 50.1039 398.266 52.0695L398.797 50.6669L399.329 49.2643C393.702 47.1312 388.733 46.7231 384.275 47.7406C379.823 48.7566 376.017 51.1625 372.66 54.4269C366.012 60.8907 360.889 70.9706 355.787 81.0838C350.623 91.3194 345.45 101.659 338.682 109.171C331.984 116.604 323.827 121.154 312.608 119.995L312.454 121.487ZM398.797 50.6669L398.266 52.0695C405.722 54.8963 409.139 60.2282 412.999 65.6731C416.852 71.1068 421.115 76.5522 430.291 78.1916L430.555 76.715L430.819 75.2383C422.879 73.8199 419.217 69.2563 415.446 63.938C411.683 58.6308 407.779 52.4676 399.329 49.2643L398.797 50.6669ZM430.555 76.715L430.291 78.1916C439.797 79.8899 448.687 75.609 456.155 69.4875C463.642 63.3503 469.932 55.179 474.334 48.5887L473.087 47.7556L471.839 46.9224C467.509 53.406 461.41 61.3004 454.253 67.1674C447.077 73.0501 439.067 76.712 430.819 75.2383L430.555 76.715Z" fill="#6E58F1"/>
</g>
<defs>
<linearGradient id="paint0_linear_202_27" x1="171.21" y1="49.5" x2="171.21" y2="283.5" gradientUnits="userSpaceOnUse">
<stop stop-color="#DDDDDD"/>
<stop offset="1" stop-color="#DDDDDD" stop-opacity="0"/>
</linearGradient>
<linearGradient id="paint1_linear_202_27" x1="239.997" y1="-1039" x2="239.997" y2="182" gradientUnits="userSpaceOnUse">
<stop stop-color="#6E58F1"/>
<stop offset="1" stop-color="#FBFBFF"/>
</linearGradient>
<clipPath id="clip0_202_27">
<rect width="480" height="182" fill="white"/>
</clipPath>
</defs>
</svg>
