<svg width="480" height="293" viewBox="0 0 480 293" fill="none" xmlns="http://www.w3.org/2000/svg">
<g clip-path="url(#clip0_202_92)">
<path d="M418.995 58.1735H395.982V111.957H418.995V58.1735Z" fill="#6E58F1"/>
<path d="M388.676 88.5409H365.297V172.691H388.676V88.5409Z" fill="#DDDDDD"/>
<path d="M357.991 88.5409H334.977V142.324H357.991V88.5409Z" fill="#DDDDDD"/>
<path d="M327.671 119.274H304.658V172.691H327.671V119.274Z" fill="#DDDDDD"/>
<path d="M297.352 180.009H274.338V294.526H297.352V180.009Z" fill="#6E58F1"/>
<path d="M266.667 149.641H243.653V233.792H266.667V149.641Z" fill="#DDDDDD"/>
<path d="M236.347 241.109H213.333V294.526H236.347V241.109Z" fill="#DDDDDD"/>
<path d="M206.027 271.477H183.014V355.627H206.027V271.477Z" fill="#DDDDDD"/>
<path d="M175.342 210.742H152.329V325.26H175.342V210.742Z" fill="#DDDDDD"/>
<path d="M145.023 332.577H122.009V386.36H145.023V332.577Z" fill="#DDDDDD"/>
<path d="M114.338 302.21H91.3242V355.627H114.338V302.21Z" fill="#DDDDDD"/>
<path d="M84.0183 362.944H61.0046V416.727H84.0183V362.944Z" fill="#DDDDDD"/>
<path d="M357.991 0H334.977V53.7831H357.991V0Z" fill="#DDDDDD"/>
<path d="M327.671 30.3673H304.292V114.518H327.671V30.3673Z" fill="#DDDDDD"/>
<path d="M296.986 30.3673H273.973V84.1504H296.986V30.3673Z" fill="#6E58F1"/>
<path d="M266.667 61.1005H243.653V114.518H266.667V61.1005Z" fill="#DDDDDD"/>
<path d="M236.347 121.835H213.333V236.353H236.347V121.835Z" fill="#DDDDDD"/>
<path d="M205.662 91.4678H182.648V175.618H205.662V91.4678Z" fill="#6E58F1"/>
<path d="M175.342 152.833H152.329V206.25H175.342V152.833Z" fill="#DDDDDD"/>
<path d="M145.023 213.303H122.009V297.453H145.023V213.303Z" fill="#6E58F1"/>
<path d="M114.338 152.568H91.3242V267.086H114.338V152.568Z" fill="#DDDDDD"/>
<path d="M84.0183 274.403H61.0046V328.187H84.0183V274.403Z" fill="#DDDDDD"/>
<path d="M53.3333 244.036H30.3196V297.453H53.3333V244.036Z" fill="#DDDDDD"/>
<path d="M23.0137 304.771H0V358.554H23.0137V304.771Z" fill="#6E58F1"/>
<path d="M480 147.446H456.986V201.229H480V147.446Z" fill="#DDDDDD"/>
<path d="M449.68 177.813H426.301V261.964H449.68V177.813Z" fill="#DDDDDD"/>
<path d="M418.995 177.813H395.982V231.597H418.995V177.813Z" fill="#DDDDDD"/>
<path d="M388.676 208.547H365.662V261.964H388.676V208.547Z" fill="#6E58F1"/>
<path d="M358.356 269.281H335.342V383.799H358.356V269.281Z" fill="#DDDDDD"/>
<path d="M327.671 238.914H304.658V323.064H327.671V238.914Z" fill="#DDDDDD"/>
<path d="M297.352 330.382H274.338V383.799H297.352V330.382Z" fill="#DDDDDD"/>
<path d="M267.032 360.749H244.018V444.9H267.032V360.749Z" fill="#DDDDDD"/>
<path d="M236.347 300.014H213.333V414.532H236.347V300.014Z" fill="#6E58F1"/>
<path d="M206.027 421.85H183.014V475.633H206.027V421.85Z" fill="#DDDDDD"/>
<path d="M175.342 391.482H152.329V444.9H175.342V391.482Z" fill="#DDDDDD"/>
<path d="M145.023 452.217H122.009V506H145.023V452.217Z" fill="#6E58F1"/>
<rect width="480" height="293" fill="url(#paint0_linear_202_92)"/>
</g>
<defs>
<linearGradient id="paint0_linear_202_92" x1="240" y1="0" x2="240" y2="293" gradientUnits="userSpaceOnUse">
<stop stop-color="white"/>
<stop offset="0.5" stop-color="white" stop-opacity="0.4"/>
<stop offset="1" stop-color="white"/>
</linearGradient>
<clipPath id="clip0_202_92">
<rect width="480" height="293" fill="white"/>
</clipPath>
</defs>
</svg>
