<svg width="23" height="24" viewBox="0 0 23 24" fill="none" xmlns="http://www.w3.org/2000/svg">
<path d="M22.5085 9.76908H21.6153V9.72307L11.6355 9.72307V14.1586L17.9023 14.1586C16.988 16.7406 14.5313 18.5941 11.6355 18.5941C7.9613 18.5941 4.98233 15.6151 4.98233 11.9408C4.98233 8.26656 7.9613 5.28756 11.6355 5.28756C13.3315 5.28756 14.8745 5.92738 16.0494 6.9725L19.1858 3.83604C17.2054 1.99031 14.5563 0.852051 11.6355 0.852051C5.51182 0.852051 0.546875 5.81705 0.546875 11.9408C0.546875 18.0646 5.51182 23.0296 11.6355 23.0296C17.7592 23.0296 22.7242 18.0646 22.7242 11.9408C22.7242 11.1973 22.6477 10.4716 22.5085 9.76908Z" fill="#FFC107"/>
<path d="M1.82495 6.77955L5.46813 9.45139C6.45391 7.01075 8.84129 5.28756 11.6351 5.28756C13.3311 5.28756 14.8741 5.92738 16.0489 6.9725L19.1853 3.83604C17.2049 1.99031 14.5558 0.852051 11.6351 0.852051C7.37593 0.852051 3.6823 3.25665 1.82495 6.77955Z" fill="#FF3D00"/>
<path d="M11.6368 23.0305C14.501 23.0305 17.1035 21.9344 19.0712 20.1519L15.6393 17.2477C14.4887 18.1232 13.0825 18.5966 11.6368 18.595C8.75265 18.595 6.30372 16.7559 5.38114 14.1895L1.76514 16.9755C3.60031 20.5666 7.3272 23.0305 11.6368 23.0305Z" fill="#4CAF50"/>
<path d="M22.509 9.77014H21.6158V9.72412L11.636 9.72412V14.1596H17.9027C17.4654 15.3885 16.6776 16.4623 15.6368 17.2484L15.6384 17.2473L19.0704 20.1514C18.8275 20.3721 22.7246 17.4863 22.7246 11.9419C22.7246 11.1984 22.6481 10.4726 22.509 9.77014Z" fill="#1976D2"/>
</svg>
