<svg width="138" height="46" viewBox="0 0 138 46" fill="none" xmlns="http://www.w3.org/2000/svg">
<path d="M126.265 0.20425H11.6015C11.1835 0.20425 10.7706 0.20425 10.3537 0.206529C10.0048 0.208809 9.65862 0.215431 9.30632 0.221005C8.54096 0.230011 7.7774 0.297344 7.02228 0.422419C6.26821 0.550216 5.53777 0.791151 4.85565 1.13707C4.17437 1.48592 3.55187 1.93922 3.01072 2.48051C2.46673 3.02028 2.01327 3.64418 1.66778 4.32823C1.32134 5.01091 1.08112 5.74247 0.955407 6.49763C0.828503 7.25184 0.760214 8.01475 0.751155 8.77951C0.740577 9.12897 0.73946 9.4796 0.733887 9.82911V36.1747C0.73946 36.5286 0.740577 36.8715 0.751155 37.2255C0.760217 37.9902 0.828505 38.7531 0.955407 39.5073C1.08077 40.2629 1.32101 40.9949 1.66778 41.6778C2.01311 42.3596 2.46663 42.981 3.01072 43.5178C3.54981 44.0615 4.17272 44.5151 4.85565 44.8613C5.53776 45.2081 6.26813 45.4505 7.02228 45.5803C7.77753 45.7043 8.54101 45.7717 9.30632 45.7818C9.65862 45.7895 10.0048 45.794 10.3537 45.794C10.7706 45.7962 11.1836 45.7962 11.6015 45.7962H126.265C126.675 45.7962 127.091 45.7962 127.501 45.794C127.848 45.794 128.205 45.7895 128.552 45.7818C129.316 45.7722 130.078 45.7049 130.831 45.5803C131.588 45.4496 132.321 45.2073 133.006 44.8613C133.689 44.5149 134.311 44.0613 134.85 43.5178C135.392 42.9789 135.847 42.358 136.196 41.6778C136.541 40.9944 136.779 40.2625 136.902 39.5073C137.029 38.753 137.1 37.9903 137.114 37.2255C137.118 36.8715 137.118 36.5286 137.118 36.1747C137.127 35.7606 137.127 35.3488 137.127 34.928V11.0735C137.127 10.6561 137.127 10.2421 137.118 9.82911C137.118 9.4796 137.118 9.12897 137.114 8.77947C137.1 8.01464 137.029 7.2519 136.902 6.49759C136.778 5.74286 136.54 5.01136 136.196 4.32818C135.493 2.95709 134.377 1.84103 133.006 1.13697C132.321 0.791893 131.588 0.551023 130.831 0.422316C130.078 0.296691 129.316 0.229334 128.552 0.220845C128.205 0.215283 127.848 0.208604 127.501 0.206381C127.091 0.204102 126.675 0.204102 126.265 0.204102V0.20425Z" fill="#A6A6A6"/>
<path d="M10.3594 44.7985C10.0121 44.7985 9.6732 44.7941 9.32865 44.7863C8.61489 44.777 7.90279 44.7149 7.19821 44.6004C6.54122 44.4873 5.90477 44.2768 5.30986 43.9759C4.7204 43.6775 4.18277 43.2863 3.71756 42.8172C3.24561 42.3536 2.85269 41.8159 2.55438 41.2255C2.25278 40.6312 2.04405 39.9941 1.93547 39.3366C1.81821 38.63 1.75477 37.9156 1.74569 37.1995C1.73846 36.9591 1.729 36.1587 1.729 36.1587V9.8287C1.729 9.8287 1.73908 9.04064 1.74575 8.80911C1.75444 8.09409 1.81751 7.38077 1.93442 6.67532C2.0432 6.01597 2.25209 5.37711 2.55385 4.78086C2.85107 4.1908 3.24181 3.65272 3.71091 3.18748C4.17949 2.71781 4.71884 2.32456 5.3093 2.02207C5.90284 1.72217 6.53809 1.51317 7.19375 1.40208C7.90065 1.28647 8.61522 1.22396 9.33146 1.21509L10.3599 1.20117H127.495L128.536 1.21565C129.246 1.22408 129.954 1.28603 130.654 1.40097C131.317 1.51345 131.959 1.7239 132.559 2.02541C133.742 2.63502 134.704 3.5995 135.312 4.78364C135.609 5.37578 135.814 6.00942 135.922 6.66308C136.04 7.37432 136.106 8.09324 136.12 8.81412C136.123 9.13691 136.123 9.48364 136.123 9.8287C136.132 10.2561 136.132 10.663 136.132 11.0731V34.9276C136.132 35.3417 136.132 35.7458 136.123 36.1531C136.123 36.5238 136.123 36.8633 136.119 37.2128C136.105 37.9208 136.04 38.6269 135.924 39.3254C135.817 39.9877 135.61 40.6297 135.308 41.2289C135.008 41.8129 134.617 42.346 134.151 42.8083C133.685 43.2799 133.146 43.6735 132.556 43.9738C131.957 44.2769 131.316 44.4882 130.654 44.6004C129.95 44.7155 129.238 44.7776 128.524 44.7863C128.19 44.7941 127.841 44.7985 127.501 44.7985L126.266 44.8008L10.3594 44.7985Z" fill="black"/>
<path d="M28.9656 23.3431C28.9778 22.3918 29.2305 21.459 29.7002 20.6316C30.1698 19.8041 30.8411 19.1089 31.6516 18.6106C31.1367 17.8753 30.4574 17.2701 29.6678 16.8432C28.8781 16.4163 27.9997 16.1794 27.1025 16.1513C25.1885 15.9504 23.3329 17.2966 22.3576 17.2966C21.3634 17.2966 19.8617 16.1712 18.2446 16.2045C17.1987 16.2383 16.1793 16.5425 15.2858 17.0874C14.3924 17.6323 13.6553 18.3993 13.1464 19.3137C10.942 23.1303 12.5863 28.7393 14.6979 31.8243C15.7544 33.3349 16.9891 35.0223 18.6047 34.9625C20.1857 34.8969 20.7761 33.9544 22.6845 33.9544C24.5752 33.9544 25.1291 34.9625 26.7775 34.9244C28.474 34.8969 29.5428 33.4071 30.5622 31.8822C31.3213 30.8058 31.9054 29.6161 32.2929 28.3573C31.3073 27.9405 30.4663 27.2427 29.8746 26.351C29.2829 25.4594 28.9667 24.4133 28.9656 23.3431V23.3431Z" fill="white"/>
<path d="M25.852 14.1222C26.777 13.0118 27.2327 11.5845 27.1224 10.1436C25.7092 10.292 24.4038 10.9674 23.4664 12.0352C23.008 12.5568 22.657 13.1637 22.4333 13.8211C22.2096 14.4785 22.1177 15.1735 22.1628 15.8665C22.8696 15.8738 23.5689 15.7206 24.2079 15.4184C24.847 15.1163 25.4091 14.6731 25.852 14.1222Z" fill="white"/>
<path d="M48.9503 31.1379H43.5552L42.2595 34.9636H39.9744L45.0845 20.8096H47.4587L52.5689 34.9636H50.2448L48.9503 31.1379ZM44.1139 29.3726H48.3905L46.2823 23.1638H46.2233L44.1139 29.3726Z" fill="white"/>
<path d="M63.6051 29.8043C63.6051 33.0111 61.8888 35.0714 59.2986 35.0714C58.6425 35.1058 57.9899 34.9546 57.4157 34.6353C56.8415 34.316 56.3688 33.8415 56.0517 33.266H56.0027V38.3773H53.8845V24.6441H55.9349V26.3604H55.9738C56.3054 25.7877 56.7861 25.3156 57.3647 24.9944C57.9433 24.6731 58.5982 24.5148 59.2596 24.5361C61.8787 24.5361 63.6051 26.6064 63.6051 29.8043ZM61.4279 29.8043C61.4279 27.7151 60.3482 26.3415 58.7009 26.3415C57.0824 26.3415 55.9938 27.744 55.9938 29.8043C55.9938 31.8836 57.0824 33.276 58.7009 33.276C60.3482 33.276 61.4279 31.9125 61.4279 29.8043Z" fill="white"/>
<path d="M74.963 29.8043C74.963 33.0111 73.2467 35.0714 70.6565 35.0714C70.0004 35.1058 69.3479 34.9546 68.7736 34.6353C68.1994 34.316 67.7267 33.8415 67.4096 33.266H67.3606V38.3773H65.2424V24.644H67.2927V26.3604H67.3317C67.6633 25.7877 68.144 25.3156 68.7226 24.9944C69.3012 24.6731 69.9561 24.5147 70.6175 24.5361C73.2366 24.5361 74.963 26.6064 74.963 29.8043ZM72.7858 29.8043C72.7858 27.7151 71.7061 26.3415 70.0588 26.3415C68.4404 26.3415 67.3518 27.744 67.3518 29.8043C67.3518 31.8836 68.4404 33.276 70.0588 33.276C71.7062 33.276 72.7859 31.9125 72.7859 29.8043H72.7858Z" fill="white"/>
<path d="M82.4698 31.0196C82.6268 32.4232 83.9903 33.3448 85.8536 33.3448C87.639 33.3448 88.9235 32.4232 88.9235 31.1576C88.9235 30.059 88.1488 29.4012 86.3144 28.9503L84.4801 28.5084C81.881 27.8807 80.6744 26.6652 80.6744 24.6928C80.6744 22.2507 82.8027 20.5732 85.8247 20.5732C88.8155 20.5732 90.8658 22.2507 90.9349 24.6928H88.7966C88.6686 23.2803 87.501 22.4276 85.7946 22.4276C84.0882 22.4276 82.9206 23.2903 82.9206 24.5459C82.9206 25.5465 83.6664 26.1353 85.4907 26.5861L87.0502 26.969C89.9542 27.6558 91.1608 28.8223 91.1608 30.8926C91.1608 33.5407 89.0515 35.1992 85.6966 35.1992C82.5577 35.1992 80.4384 33.5796 80.3015 31.0195L82.4698 31.0196Z" fill="white"/>
<path d="M95.7322 22.2021V24.6443H97.6945V26.3217H95.7322V32.0107C95.7322 32.8944 96.1251 33.3063 96.9877 33.3063C97.2207 33.3022 97.4533 33.2859 97.6845 33.2573V34.9247C97.2967 34.9972 96.9025 35.03 96.508 35.0226C94.4187 35.0226 93.6039 34.2379 93.6039 32.2366V26.3217H92.1035V24.6443H93.6039V22.2021H95.7322Z" fill="white"/>
<path d="M98.8311 29.8047C98.8311 26.5579 100.743 24.5176 103.725 24.5176C106.717 24.5176 108.621 26.5578 108.621 29.8047C108.621 33.0605 106.727 35.0919 103.725 35.0919C100.724 35.0919 98.8311 33.0605 98.8311 29.8047ZM106.462 29.8047C106.462 27.5775 105.442 26.2629 103.725 26.2629C102.009 26.2629 100.989 27.5875 100.989 29.8047C100.989 32.0409 102.009 33.3455 103.725 33.3455C105.442 33.3455 106.462 32.0409 106.462 29.8047H106.462Z" fill="white"/>
<path d="M110.367 24.644H112.387V26.4004H112.436C112.573 25.8518 112.894 25.367 113.346 25.0275C113.798 24.688 114.353 24.5144 114.918 24.536C115.162 24.5351 115.406 24.5616 115.644 24.615V26.5963C115.336 26.5021 115.014 26.4589 114.692 26.4683C114.385 26.4558 114.078 26.5101 113.793 26.6273C113.508 26.7446 113.252 26.9221 113.043 27.1477C112.833 27.3732 112.675 27.6415 112.578 27.934C112.482 28.2266 112.45 28.5365 112.485 28.8425V34.9634H110.367L110.367 24.644Z" fill="white"/>
<path d="M125.41 31.933C125.125 33.8063 123.301 35.0919 120.967 35.0919C117.965 35.0919 116.102 33.0805 116.102 29.8537C116.102 26.6169 117.975 24.5176 120.878 24.5176C123.733 24.5176 125.528 26.4788 125.528 29.6077V30.3335H118.24V30.4615C118.206 30.8412 118.254 31.2238 118.379 31.5838C118.505 31.9438 118.706 32.273 118.968 32.5494C119.231 32.8259 119.549 33.0433 119.902 33.1873C120.255 33.3312 120.635 33.3984 121.016 33.3844C121.516 33.4313 122.019 33.3154 122.448 33.0539C122.877 32.7923 123.211 32.3992 123.399 31.9329L125.41 31.933ZM118.25 28.853H123.409C123.428 28.5116 123.376 28.1698 123.257 27.8493C123.138 27.5288 122.953 27.2364 122.716 26.9905C122.478 26.7445 122.192 26.5504 121.876 26.4202C121.56 26.29 121.22 26.2266 120.878 26.234C120.533 26.2319 120.191 26.2982 119.872 26.429C119.553 26.5597 119.262 26.7524 119.018 26.9959C118.774 27.2394 118.58 27.5289 118.448 27.8477C118.316 28.1664 118.249 28.5081 118.25 28.8531V28.853Z" fill="white"/>
<path d="M43.8482 10.1562C44.2923 10.1243 44.7379 10.1914 45.1529 10.3526C45.5679 10.5138 45.942 10.7651 46.2481 11.0884C46.5542 11.4116 46.7848 11.7988 46.9232 12.222C47.0616 12.6452 47.1043 13.0938 47.0483 13.5355C47.0483 15.7082 45.874 16.9572 43.8482 16.9572H41.3916V10.1562H43.8482ZM42.4479 15.9953H43.7302C44.0475 16.0143 44.3651 15.9623 44.6598 15.843C44.9544 15.7238 45.2188 15.5404 45.4337 15.3061C45.6485 15.0718 45.8084 14.7925 45.9017 14.4886C45.995 14.1847 46.0194 13.8638 45.973 13.5493C46.016 13.2361 45.9892 12.9172 45.8945 12.6155C45.7997 12.3139 45.6394 12.0369 45.4251 11.8045C45.2107 11.572 44.9476 11.3899 44.6546 11.2711C44.3616 11.1523 44.0459 11.0997 43.7302 11.1172H42.4479V15.9953Z" fill="white"/>
<path d="M48.2414 14.3886C48.2092 14.0513 48.2477 13.711 48.3547 13.3895C48.4617 13.068 48.6346 12.7724 48.8625 12.5217C49.0904 12.2709 49.3682 12.0706 49.6781 11.9335C49.9879 11.7964 50.323 11.7256 50.6618 11.7256C51.0007 11.7256 51.3358 11.7964 51.6456 11.9335C51.9555 12.0706 52.2332 12.2709 52.4611 12.5217C52.689 12.7724 52.862 13.068 52.969 13.3895C53.0759 13.711 53.1145 14.0513 53.0822 14.3886C53.1151 14.7262 53.077 15.067 52.9703 15.389C52.8636 15.711 52.6908 16.0072 52.4628 16.2584C52.2349 16.5096 51.9569 16.7104 51.6467 16.8478C51.3365 16.9852 51.0011 17.0561 50.6618 17.0561C50.3226 17.0561 49.9871 16.9852 49.677 16.8478C49.3668 16.7104 49.0888 16.5096 48.8608 16.2584C48.6329 16.0072 48.46 15.711 48.3534 15.389C48.2467 15.067 48.2086 14.7262 48.2414 14.3886V14.3886ZM52.0404 14.3886C52.0404 13.2761 51.5406 12.6255 50.6635 12.6255C49.7831 12.6255 49.2878 13.2761 49.2878 14.3886C49.2878 15.51 49.7831 16.1556 50.6635 16.1556C51.5406 16.1556 52.0404 15.5056 52.0404 14.3886H52.0404Z" fill="white"/>
<path d="M59.5172 16.9576H58.4664L57.4057 13.1776H57.3255L56.2692 16.9576H55.2285L53.8137 11.8252H54.8411L55.7605 15.7415H55.8362L56.8914 11.8252H57.8631L58.9183 15.7415H58.9985L59.9134 11.8252H60.9263L59.5172 16.9576Z" fill="white"/>
<path d="M62.1162 11.8239H63.0913V12.6392H63.167C63.2954 12.3463 63.5119 12.1009 63.7865 11.937C64.061 11.773 64.3799 11.6989 64.6986 11.7248C64.9483 11.706 65.1991 11.7437 65.4323 11.835C65.6655 11.9262 65.8751 12.0688 66.0457 12.2522C66.2163 12.4355 66.3435 12.6549 66.4178 12.894C66.4922 13.1332 66.5117 13.386 66.4751 13.6337V16.9562H65.4622V13.8881C65.4622 13.0633 65.1037 12.6531 64.3546 12.6531C64.1851 12.6452 64.0158 12.6741 63.8585 12.7377C63.7011 12.8013 63.5594 12.8982 63.443 13.0218C63.3266 13.1453 63.2382 13.2926 63.1841 13.4534C63.1299 13.6143 63.1112 13.785 63.1291 13.9537V16.9563H62.1162L62.1162 11.8239Z" fill="white"/>
<path d="M68.0889 9.82129H69.1018V16.9573H68.0889V9.82129Z" fill="white"/>
<path d="M70.51 14.3887C70.4777 14.0514 70.5163 13.711 70.6233 13.3895C70.7303 13.068 70.9033 12.7724 71.1312 12.5217C71.3591 12.2709 71.6369 12.0706 71.9468 11.9335C72.2567 11.7964 72.5918 11.7256 72.9306 11.7256C73.2695 11.7256 73.6046 11.7964 73.9145 11.9335C74.2244 12.0706 74.5022 12.2709 74.7301 12.5217C74.958 12.7724 75.131 13.068 75.238 13.3895C75.345 13.711 75.3836 14.0514 75.3513 14.3887C75.3842 14.7263 75.346 15.0671 75.2393 15.3891C75.1326 15.7112 74.9597 16.0073 74.7317 16.2585C74.5037 16.5097 74.2257 16.7105 73.9155 16.8479C73.6054 16.9852 73.2699 17.0562 72.9306 17.0562C72.5914 17.0562 72.2559 16.9852 71.9457 16.8479C71.6356 16.7105 71.3575 16.5097 71.1296 16.2585C70.9016 16.0073 70.7287 15.7112 70.622 15.3891C70.5153 15.0671 70.4771 14.7263 70.51 14.3887V14.3887ZM74.3089 14.3887C74.3089 13.2762 73.8091 12.6256 72.932 12.6256C72.0516 12.6256 71.5563 13.2762 71.5563 14.3887C71.5563 15.5101 72.0516 16.1557 72.932 16.1557C73.8091 16.1557 74.3089 15.5057 74.3089 14.3887H74.3089Z" fill="white"/>
<path d="M76.4175 15.5056C76.4175 14.5818 77.1054 14.0491 78.3264 13.9735L79.7167 13.8933V13.4503C79.7167 12.9082 79.3583 12.6021 78.6659 12.6021C78.1005 12.6021 77.7087 12.8097 77.5962 13.1726H76.6156C76.7191 12.291 77.5484 11.7256 78.7127 11.7256C79.9994 11.7256 80.7251 12.3662 80.7251 13.4503V16.9571H79.7501V16.2358H79.6699C79.5072 16.4945 79.2788 16.7055 79.008 16.847C78.7371 16.9886 78.4336 17.0558 78.1283 17.0416C77.9128 17.0641 77.6951 17.0411 77.489 16.9742C77.283 16.9073 77.0933 16.7979 76.9321 16.6532C76.7709 16.5085 76.6418 16.3316 76.5532 16.1339C76.4646 15.9363 76.4183 15.7222 76.4175 15.5056V15.5056ZM79.7167 15.0671V14.638L78.4633 14.7181C77.7565 14.7654 77.4359 15.0058 77.4359 15.4583C77.4359 15.9202 77.8367 16.189 78.3877 16.189C78.5491 16.2054 78.7122 16.1891 78.8672 16.1411C79.0222 16.0931 79.166 16.0145 79.29 15.9098C79.414 15.8051 79.5157 15.6766 79.589 15.5318C79.6623 15.387 79.7057 15.229 79.7167 15.0671V15.0671Z" fill="white"/>
<path d="M82.0564 14.3889C82.0564 12.7671 82.8901 11.7397 84.1868 11.7397C84.5076 11.7249 84.8259 11.8018 85.1047 11.9612C85.3834 12.1207 85.6109 12.3561 85.7607 12.6402H85.8364V9.82129H86.8493V16.9573H85.8787V16.1464H85.7986C85.6372 16.4285 85.4017 16.661 85.1176 16.8189C84.8335 16.9767 84.5116 17.0538 84.1869 17.0419C82.8812 17.0419 82.0564 16.0145 82.0564 14.3889ZM83.1027 14.3889C83.1027 15.4775 83.6159 16.1325 84.4741 16.1325C85.3278 16.1325 85.8554 15.468 85.8554 14.3933C85.8554 13.3236 85.3222 12.6497 84.4741 12.6497C83.6214 12.6497 83.1027 13.3092 83.1027 14.3889H83.1027Z" fill="white"/>
<path d="M91.0403 14.3886C91.008 14.0513 91.0466 13.711 91.1535 13.3895C91.2605 13.068 91.4335 12.7724 91.6614 12.5217C91.8893 12.2709 92.167 12.0706 92.4769 11.9335C92.7867 11.7964 93.1218 11.7256 93.4607 11.7256C93.7995 11.7256 94.1346 11.7964 94.4444 11.9335C94.7543 12.0706 95.0321 12.2709 95.26 12.5217C95.4879 12.7724 95.6608 13.068 95.7678 13.3895C95.8747 13.711 95.9133 14.0513 95.8811 14.3886C95.9139 14.7262 95.8758 15.067 95.7691 15.389C95.6625 15.711 95.4896 16.0072 95.2616 16.2584C95.0337 16.5096 94.7557 16.7104 94.4455 16.8478C94.1354 16.9852 93.7999 17.0561 93.4607 17.0561C93.1214 17.0561 92.7859 16.9852 92.4758 16.8478C92.1656 16.7104 91.8876 16.5096 91.6597 16.2584C91.4317 16.0072 91.2589 15.711 91.1522 15.389C91.0455 15.067 91.0074 14.7262 91.0403 14.3886V14.3886ZM94.8392 14.3886C94.8392 13.2761 94.3394 12.6255 93.4623 12.6255C92.5819 12.6255 92.0866 13.2761 92.0866 14.3886C92.0866 15.51 92.5819 16.1556 93.4623 16.1556C94.3394 16.1556 94.8392 15.5056 94.8392 14.3886Z" fill="white"/>
<path d="M97.24 11.8239H98.2151V12.6392H98.2908C98.4192 12.3463 98.6357 12.1009 98.9103 11.937C99.1848 11.773 99.5037 11.6989 99.8224 11.7248C100.072 11.706 100.323 11.7437 100.556 11.835C100.789 11.9262 100.999 12.0688 101.17 12.2522C101.34 12.4355 101.467 12.6549 101.542 12.894C101.616 13.1332 101.635 13.386 101.599 13.6337V16.9562H100.586V13.8881C100.586 13.0633 100.228 12.6531 99.4784 12.6531C99.3089 12.6452 99.1396 12.6741 98.9822 12.7377C98.8249 12.8013 98.6831 12.8982 98.5667 13.0218C98.4503 13.1453 98.362 13.2926 98.3079 13.4534C98.2537 13.6143 98.2349 13.785 98.2529 13.9537V16.9563H97.24V11.8239Z" fill="white"/>
<path d="M107.322 10.5469V11.8481H108.434V12.7013H107.322V15.3404C107.322 15.878 107.544 16.1134 108.048 16.1134C108.177 16.113 108.306 16.1052 108.434 16.09V16.9338C108.253 16.9663 108.068 16.9836 107.883 16.9855C106.757 16.9855 106.308 16.5892 106.308 15.5997V12.7012H105.494V11.848H106.308V10.5469H107.322Z" fill="white"/>
<path d="M109.818 9.82129H110.822V12.6496H110.902C111.037 12.3541 111.259 12.1072 111.539 11.9427C111.819 11.7781 112.143 11.704 112.467 11.7302C112.715 11.7167 112.964 11.7582 113.194 11.8517C113.425 11.9452 113.632 12.0885 113.801 12.2712C113.97 12.454 114.096 12.6717 114.171 12.909C114.246 13.1462 114.268 13.397 114.235 13.6436V16.9573H113.221V13.8935C113.221 13.0737 112.839 12.6585 112.123 12.6585C111.949 12.6443 111.774 12.6682 111.61 12.7287C111.446 12.7891 111.297 12.8847 111.174 13.0086C111.051 13.1326 110.957 13.2819 110.897 13.4462C110.838 13.6105 110.815 13.7857 110.831 13.9597V16.9573H109.818L109.818 9.82129Z" fill="white"/>
<path d="M120.141 15.5714C120.003 16.0405 119.705 16.4462 119.298 16.7176C118.892 16.9891 118.403 17.1089 117.917 17.0562C117.579 17.0652 117.243 17.0004 116.932 16.8664C116.621 16.7325 116.344 16.5325 116.118 16.2805C115.892 16.0284 115.724 15.7303 115.626 15.4068C115.527 15.0833 115.5 14.7422 115.546 14.4071C115.501 14.071 115.528 13.7291 115.627 13.4047C115.726 13.0802 115.893 12.7807 116.117 12.5264C116.342 12.2722 116.618 12.0691 116.928 11.9309C117.237 11.7928 117.573 11.7228 117.912 11.7257C119.34 11.7257 120.202 12.7013 120.202 14.313V14.6665H116.578V14.7232C116.562 14.9116 116.585 15.1012 116.647 15.2798C116.709 15.4585 116.807 15.6223 116.936 15.7607C117.065 15.8991 117.221 16.0092 117.394 16.0837C117.568 16.1582 117.756 16.1957 117.945 16.1936C118.187 16.2226 118.432 16.179 118.65 16.0682C118.867 15.9574 119.047 15.7845 119.166 15.5713L120.141 15.5714ZM116.578 13.9173H119.17C119.183 13.7451 119.159 13.5721 119.101 13.4094C119.043 13.2467 118.952 13.098 118.833 12.9728C118.714 12.8476 118.57 12.7486 118.41 12.6823C118.251 12.616 118.079 12.5838 117.907 12.5878C117.731 12.5856 117.558 12.6184 117.395 12.6845C117.233 12.7505 117.086 12.8484 116.962 12.9723C116.838 13.0962 116.74 13.2437 116.674 13.406C116.608 13.5683 116.575 13.7422 116.578 13.9173H116.578Z" fill="white"/>
</svg>
