<svg width="86" height="86" viewBox="0 0 86 86" fill="none" xmlns="http://www.w3.org/2000/svg">
<path d="M37.7785 47.9643L27.3477 47.016C24.7258 46.7777 23.4149 46.6585 22.9984 45.7617C22.582 44.8649 23.3369 43.7865 24.8467 41.6296L44.009 14.2549C45.0064 12.8301 45.5051 12.1177 45.9352 12.2691C46.3653 12.4206 46.3074 13.2883 46.1917 15.0237L44.9134 34.1988C44.8081 35.778 44.7555 36.5676 45.2092 37.0989C45.663 37.6303 46.4511 37.7019 48.0273 37.8452L58.4581 38.7935C61.08 39.0318 62.3909 39.151 62.8074 40.0478C63.2238 40.9447 62.4689 42.0231 60.9591 44.1799L41.7968 71.5546C40.7994 72.9795 40.3007 73.6919 39.8706 73.5404C39.4405 73.3889 39.4984 72.5212 39.6141 70.7858L40.8924 51.6107C40.9977 50.0316 41.0503 49.242 40.5965 48.7106C40.1428 48.1792 39.3547 48.1076 37.7785 47.9643Z" stroke="#6E58F1" stroke-width="4.2903"/>
<path d="M66.1419 14.3027L60.7791 21.4532H67.9295L62.5667 28.6037" stroke="#6E58F1" stroke-opacity="0.25" stroke-width="4.2903" stroke-linecap="round" stroke-linejoin="round"/>
<path d="M23.2391 57.2061L17.8762 64.3565H25.0267L19.6638 71.507" stroke="#6E58F1" stroke-opacity="0.25" stroke-width="4.2903" stroke-linecap="round" stroke-linejoin="round"/>
</svg>
