<svg width="32" height="23" viewBox="0 0 32 23" fill="none" xmlns="http://www.w3.org/2000/svg">
<g clip-path="url(#clip0_83_914)">
<path d="M13.3368 3.30672C14.3491 2.25197 15.7584 1.59782 17.317 1.59782C19.389 1.59782 21.1968 2.75321 22.1593 4.46837C23.0204 4.08368 23.9531 3.88542 24.8962 3.88663C28.6333 3.88663 31.6629 6.94263 31.6629 10.7123C31.6629 14.4825 28.6333 17.5386 24.8962 17.5386C24.4486 17.5388 24.0021 17.4943 23.5634 17.4057C22.7155 18.9179 21.1002 19.9395 19.2459 19.9395C18.4961 19.9405 17.7559 19.7701 17.0819 19.4414C16.2226 21.4628 14.2204 22.8802 11.8867 22.8802C9.45667 22.8802 7.3857 21.3425 6.59065 19.186C6.24332 19.2599 5.88335 19.2983 5.51406 19.2983C2.6208 19.2983 0.27516 16.9286 0.27516 14.0049C0.2731 13.0784 0.513888 12.1675 0.973529 11.363C1.43317 10.5585 2.09562 9.88845 2.89485 9.41971C2.56308 8.6557 2.39229 7.83153 2.39313 6.99859C2.39313 3.63626 5.12279 0.910645 8.48979 0.910645C10.4665 0.910645 12.2231 1.85052 13.3368 3.30672Z" fill="#00A1E0"/>
<path d="M4.82178 12.3032C4.80214 12.3546 4.8289 12.3653 4.83528 12.3744C4.89419 12.4172 4.95408 12.448 5.01447 12.4824C5.33467 12.6524 5.63684 12.7021 5.95299 12.7021C6.59684 12.7021 6.99657 12.3597 6.99657 11.8082V11.7976C6.99657 11.2879 6.54541 11.1027 6.12199 10.9691L6.06701 10.9511C5.74779 10.8474 5.47238 10.758 5.47238 10.5478V10.5368C5.47238 10.357 5.63328 10.2245 5.88279 10.2245C6.16004 10.2245 6.48908 10.3166 6.70104 10.4338C6.70104 10.4338 6.76314 10.474 6.78597 10.4137C6.79849 10.3815 6.90575 10.0927 6.91704 10.0614C6.92907 10.0274 6.90759 10.0024 6.88575 9.989C6.64384 9.84173 6.3094 9.74121 5.9633 9.74121L5.89887 9.7417C5.30964 9.7417 4.89824 10.0976 4.89824 10.6078V10.6185C4.89824 11.1564 5.3521 11.3307 5.77724 11.4523L5.84572 11.4734C6.1555 11.5686 6.42256 11.6504 6.42256 11.8686V11.8793C6.42256 12.0787 6.24902 12.2273 5.96907 12.2273C5.86045 12.2273 5.51398 12.225 5.13965 11.9884C5.09449 11.962 5.0681 11.9429 5.03325 11.9219C5.01484 11.9102 4.96893 11.89 4.94881 11.9509L4.82178 12.3032ZM14.2475 12.3032C14.2279 12.3546 14.2546 12.3653 14.261 12.3744C14.3199 12.4172 14.3798 12.448 14.4402 12.4824C14.7603 12.6524 15.0626 12.7021 15.3787 12.7021C16.0226 12.7021 16.4223 12.3597 16.4223 11.8082V11.7976C16.4223 11.2879 15.9712 11.1027 15.5477 10.9691L15.4928 10.9511C15.1735 10.8474 14.898 10.758 14.898 10.5478V10.5368C14.898 10.357 15.059 10.2245 15.3085 10.2245C15.5858 10.2245 15.9148 10.3166 16.1268 10.4338C16.1268 10.4338 16.1889 10.474 16.2117 10.4137C16.2242 10.3815 16.3315 10.0927 16.3427 10.0614C16.3548 10.0274 16.3333 10.0024 16.3114 9.989C16.0696 9.84173 15.735 9.74121 15.389 9.74121L15.3246 9.7417C14.7353 9.7417 14.324 10.0976 14.324 10.6078V10.6185C14.324 11.1564 14.7777 11.3307 15.203 11.4523L15.2713 11.4734C15.5812 11.5686 15.8487 11.6504 15.8487 11.8686V11.8793C15.8487 12.0787 15.6746 12.2273 15.3948 12.2273C15.1011 12.2293 14.813 12.1464 14.5654 11.9884C14.5202 11.962 14.4934 11.9437 14.4595 11.9219C14.4478 11.9143 14.3932 11.8932 14.3744 11.9509L14.2475 12.3032ZM20.6822 11.2233C20.6822 11.535 20.624 11.7805 20.5096 11.9539C20.3965 12.1258 20.2253 12.2092 19.9864 12.2092C19.7472 12.2092 19.5769 12.1261 19.4656 11.9539C19.3529 11.7809 19.2957 11.535 19.2957 11.2233C19.2957 10.9122 19.3529 10.6671 19.4656 10.4955C19.5769 10.3255 19.7472 10.2428 19.9864 10.2428C20.2253 10.2428 20.3963 10.3255 20.51 10.4954C20.6241 10.6672 20.6822 10.9122 20.6822 11.2233ZM21.2196 10.6456C21.1669 10.4673 21.0846 10.3099 20.975 10.1789C20.8654 10.0474 20.7269 9.942 20.5623 9.86505C20.3982 9.78858 20.2041 9.74968 19.9864 9.74968C19.7682 9.74968 19.5742 9.78858 19.4101 9.86505C19.2456 9.94188 19.1069 10.0474 18.997 10.1789C18.8879 10.3103 18.8055 10.4678 18.7524 10.6456C18.7001 10.8232 18.6738 11.0172 18.6738 11.2233C18.6738 11.4295 18.7001 11.624 18.7524 11.801C18.8056 11.979 18.8874 12.1363 18.9975 12.2679C19.1097 12.4014 19.2508 12.5078 19.4101 12.579C19.5745 12.6537 19.7682 12.6917 19.9864 12.6917C20.2041 12.6917 20.3978 12.6536 20.5623 12.579C20.7216 12.5078 20.8627 12.4015 20.975 12.2679C21.0846 12.1368 21.1669 11.9795 21.2196 11.801C21.2724 11.6235 21.2988 11.4291 21.2988 11.2233C21.2988 11.0177 21.2724 10.8232 21.2196 10.6456ZM25.6329 12.1261C25.6151 12.0738 25.5646 12.0935 25.5646 12.0935C25.4864 12.1234 25.4032 12.1512 25.3147 12.165C25.2171 12.1794 25.1186 12.1864 25.02 12.186C24.7598 12.186 24.5531 12.1087 24.4051 11.9558C24.2567 11.8028 24.1735 11.5557 24.1744 11.2211C24.1754 10.9167 24.2488 10.6877 24.3806 10.5133C24.5116 10.3399 24.711 10.2509 24.977 10.2509C25.1988 10.2509 25.3678 10.2763 25.5449 10.3323C25.5449 10.3323 25.5874 10.3507 25.6075 10.2951C25.6544 10.1646 25.6894 10.0711 25.7394 9.92764C25.7537 9.88689 25.7188 9.86946 25.7063 9.86456C25.6366 9.83731 25.472 9.793 25.3477 9.77423C25.2315 9.75643 25.0956 9.74698 24.9444 9.74698C24.7186 9.74698 24.5174 9.78539 24.3452 9.86235C24.1735 9.93881 24.0278 10.0444 23.9125 10.1758C23.7971 10.3072 23.7095 10.4646 23.6509 10.6425C23.5928 10.82 23.5633 11.015 23.5633 11.2211C23.5633 11.6669 23.6836 12.0273 23.9209 12.2911C24.1588 12.5558 24.5162 12.6903 24.9819 12.6903C25.2574 12.6903 25.54 12.6345 25.7429 12.5545C25.7429 12.5545 25.7819 12.5357 25.765 12.4905L25.6329 12.1261ZM26.5734 10.9248C26.5988 10.7518 26.6467 10.6078 26.7204 10.4956C26.8318 10.3253 27.0016 10.2318 27.2404 10.2318C27.4792 10.2318 27.637 10.3257 27.7501 10.4956C27.8253 10.6078 27.8579 10.758 27.8708 10.9248H26.5734ZM28.3828 10.5444C28.3372 10.3722 28.224 10.1983 28.1499 10.1187C28.0327 9.99256 27.9183 9.90444 27.8046 9.85535C27.6398 9.7853 27.4624 9.74939 27.2833 9.7498C27.0562 9.7498 26.85 9.78785 26.6829 9.8664C26.5152 9.94519 26.3743 10.0525 26.2639 10.1862C26.1534 10.3194 26.0703 10.4782 26.0176 10.6584C25.9643 10.8376 25.9375 11.0331 25.9375 11.2391C25.9375 11.4489 25.9653 11.6442 26.0203 11.8199C26.0756 11.997 26.1642 12.1531 26.2841 12.2822C26.4034 12.4123 26.5572 12.5143 26.7414 12.5854C26.9243 12.6561 27.1464 12.6928 27.4017 12.6923C27.9271 12.6904 28.204 12.5734 28.3179 12.5103C28.338 12.4992 28.3573 12.4795 28.3331 12.4231L28.2142 12.09C28.1964 12.0403 28.1458 12.0587 28.1458 12.0587C28.0157 12.107 27.8307 12.1937 27.3991 12.1929C27.117 12.1924 26.9077 12.1092 26.7768 11.9791C26.6421 11.8459 26.5765 11.6502 26.5648 11.3738L28.3842 11.3755C28.3842 11.3755 28.432 11.3746 28.4369 11.3281C28.4387 11.3085 28.4995 10.9543 28.3828 10.5444ZM12.0031 10.9248C12.029 10.7518 12.0764 10.6078 12.1503 10.4956C12.2616 10.3253 12.4315 10.2318 12.6702 10.2318C12.909 10.2318 13.0668 10.3257 13.1804 10.4956C13.2551 10.6078 13.2878 10.758 13.3007 10.9248H12.0031ZM13.8122 10.5444C13.7665 10.3722 13.6539 10.1983 13.5796 10.1187C13.4625 9.99256 13.348 9.90444 13.2345 9.85535C13.0696 9.7853 12.8923 9.74939 12.7131 9.7498C12.4865 9.7498 12.2799 9.78785 12.1127 9.8664C11.945 9.94519 11.8042 10.0525 11.6937 10.1862C11.5833 10.3194 11.5002 10.4782 11.4474 10.6584C11.3946 10.8376 11.3674 11.0331 11.3674 11.2391C11.3674 11.4489 11.395 11.6442 11.4501 11.8199C11.5055 11.997 11.5941 12.1531 11.7139 12.2822C11.8333 12.4123 11.9871 12.5143 12.1713 12.5854C12.3542 12.6561 12.5763 12.6928 12.8316 12.6923C13.357 12.6904 13.6337 12.5734 13.7478 12.5103C13.7679 12.4992 13.787 12.4795 13.763 12.4231L13.6445 12.09C13.6261 12.0403 13.5757 12.0587 13.5757 12.0587C13.4456 12.107 13.2609 12.1937 12.8285 12.1929C12.5468 12.1924 12.3376 12.1092 12.2066 11.9791C12.072 11.8459 12.0062 11.6502 11.9947 11.3738L13.8139 11.3755C13.8139 11.3755 13.8618 11.3746 13.8667 11.3281C13.8685 11.3085 13.9293 10.9543 13.8122 10.5444ZM8.07071 12.1161C7.99953 12.0594 7.98971 12.045 7.96566 12.0083C7.92982 11.9525 7.91153 11.8728 7.91153 11.7718C7.91153 11.6118 7.96431 11.4969 8.07378 11.4196C8.07256 11.4199 8.23027 11.2831 8.60153 11.288C8.86209 11.2917 9.09503 11.3301 9.09503 11.3301V12.1573H9.09552C9.09552 12.1573 8.86429 12.2069 8.6041 12.2225C8.23382 12.2448 8.06937 12.1157 8.07071 12.1161ZM8.79458 10.8378C8.72082 10.8324 8.62521 10.8292 8.51071 10.8292C8.35459 10.8292 8.20388 10.8489 8.06274 10.8869C7.92644 10.9222 7.79766 10.9819 7.68264 11.0631C7.57279 11.1415 7.48249 11.2442 7.41877 11.3631C7.35446 11.483 7.32181 11.6243 7.32181 11.7825C7.32181 11.9435 7.34942 12.0834 7.4049 12.1979C7.45899 12.3111 7.54065 12.4089 7.64238 12.4823C7.74339 12.556 7.86821 12.6102 8.01303 12.6428C8.15565 12.6755 8.3174 12.6919 8.49451 12.6919C8.68106 12.6919 8.86699 12.6768 9.04716 12.6459C9.2005 12.6195 9.35329 12.59 9.50544 12.5574C9.56582 12.543 9.63296 12.5248 9.63296 12.5248C9.67812 12.5136 9.67444 12.4652 9.67444 12.4652L9.67358 10.8016C9.67358 10.4367 9.57613 10.1662 9.38431 9.99858C9.19346 9.8313 8.91216 9.74686 8.54863 9.74686C8.4124 9.74686 8.19271 9.76563 8.06139 9.79202C8.06139 9.79202 7.66374 9.86885 7.50014 9.99674C7.50014 9.99674 7.46442 10.0191 7.48406 10.0691L7.61293 10.4152C7.62888 10.4599 7.67233 10.4447 7.67233 10.4447C7.67233 10.4447 7.6862 10.4394 7.70228 10.43C8.05231 10.2395 8.495 10.2454 8.495 10.2454C8.69173 10.2454 8.84282 10.2847 8.94481 10.363C9.0441 10.4389 9.09454 10.5538 9.09454 10.7962V10.873C8.93806 10.8507 8.79458 10.8378 8.79458 10.8378ZM23.4683 9.90027C23.4709 9.8942 23.4723 9.88767 23.4723 9.88105C23.4724 9.87444 23.4711 9.86789 23.4685 9.86179C23.466 9.8557 23.4622 9.85018 23.4575 9.84557C23.4527 9.84096 23.4471 9.83736 23.4409 9.83498C23.4101 9.82295 23.2554 9.7903 23.136 9.78269C22.9075 9.76883 22.7805 9.80724 22.667 9.8583C22.5543 9.90923 22.4291 9.99146 22.3593 10.085V9.86357C22.3593 9.83277 22.3375 9.80822 22.307 9.80822H21.8406C21.8103 9.80822 21.7884 9.83277 21.7884 9.86357V12.5772C21.7884 12.6076 21.8134 12.6326 21.8438 12.6326H22.3218C22.329 12.6326 22.3362 12.6311 22.3429 12.6283C22.3496 12.6255 22.3556 12.6214 22.3607 12.6163C22.3658 12.6111 22.3699 12.605 22.3726 12.5983C22.3754 12.5916 22.3768 12.5844 22.3767 12.5772V11.2215C22.3767 11.0396 22.3969 10.8579 22.4371 10.744C22.4764 10.6313 22.5301 10.541 22.5963 10.4761C22.6595 10.4139 22.7366 10.3676 22.8213 10.3411C22.9057 10.3152 22.9992 10.3068 23.0654 10.3068C23.1606 10.3068 23.2652 10.3313 23.2652 10.3313C23.3 10.3354 23.3198 10.3139 23.3315 10.2822C23.3626 10.199 23.4512 9.94985 23.4682 9.90027" fill="white"/>
<path d="M18.981 8.64374C18.9219 8.62596 18.8619 8.61162 18.8012 8.60079C18.7195 8.58739 18.6368 8.58115 18.554 8.58213C18.2248 8.58213 17.9655 8.67504 17.7836 8.8584C17.6025 9.04078 17.4795 9.31852 17.4179 9.68376L17.3954 9.80674H16.9823C16.9823 9.80674 16.9322 9.8049 16.9216 9.85952L16.8541 10.2383C16.8492 10.274 16.8647 10.2968 16.913 10.2968H17.315L16.9072 12.5735C16.8755 12.7568 16.8388 12.9075 16.7981 13.0219C16.7583 13.1346 16.7196 13.2192 16.6712 13.2809C16.6246 13.3398 16.5809 13.3837 16.5048 13.4091C16.4422 13.4303 16.3698 13.4401 16.2906 13.4401C16.2468 13.4401 16.1883 13.4328 16.1449 13.424C16.1109 13.4174 16.0779 13.4066 16.0465 13.3921C16.0465 13.3921 15.9996 13.3743 15.9808 13.4213C15.9661 13.4602 15.8587 13.7548 15.8458 13.7911C15.8333 13.8273 15.8511 13.8554 15.8739 13.8639C15.9276 13.8826 15.9673 13.8952 16.0402 13.9126C16.1414 13.9364 16.2268 13.9376 16.3068 13.9376C16.474 13.9376 16.6269 13.9139 16.7534 13.8684C16.8805 13.8224 16.9913 13.7422 17.0897 13.634C17.1956 13.5169 17.2623 13.3944 17.3257 13.2268C17.3888 13.0613 17.4429 12.8556 17.4858 12.6161L17.8958 10.2968H18.495C18.495 10.2968 18.5454 10.2985 18.5557 10.2435L18.6237 9.86528C18.6281 9.82908 18.613 9.80674 18.5642 9.80674H17.9825C17.9856 9.79373 18.012 9.58902 18.0787 9.39633C18.1073 9.31447 18.1609 9.24782 18.2061 9.20229C18.2486 9.15894 18.3009 9.12641 18.3586 9.10742C18.4163 9.08864 18.482 9.07968 18.554 9.07968C18.6085 9.07968 18.6626 9.08594 18.7033 9.09441C18.7597 9.10656 18.7816 9.11282 18.7963 9.11724C18.8558 9.13516 18.8638 9.11773 18.8754 9.08901L19.0145 8.70732C19.0289 8.6662 18.9935 8.64865 18.981 8.64374ZM10.8535 12.5785C10.8535 12.6088 10.8315 12.6335 10.8012 12.6335H10.3188C10.2883 12.6335 10.2668 12.6089 10.2668 12.5785V8.69566C10.2668 8.66534 10.2883 8.64067 10.3188 8.64067H10.8011C10.8315 8.64067 10.8535 8.66522 10.8535 8.69566V12.5785Z" fill="white"/>
</g>
<defs>
<clipPath id="clip0_83_914">
<rect width="31.4191" height="22.0916" fill="white" transform="translate(0.259521 0.895508)"/>
</clipPath>
</defs>
</svg>
