<svg width="86" height="86" viewBox="0 0 86 86" fill="none" xmlns="http://www.w3.org/2000/svg">
<path d="M14.301 32.8462C14.301 30.782 14.301 29.7499 14.8136 28.9205C15.3262 28.0911 16.2494 27.6296 18.0956 26.7064L39.8331 15.8377C41.3395 15.0845 42.0928 14.7079 42.903 14.7079C43.7132 14.7079 44.4665 15.0845 45.9729 15.8377L67.7104 26.7064C69.5566 27.6296 70.4798 28.0911 70.9924 28.9205C71.505 29.7499 71.505 30.782 71.505 32.8462V64.6422C71.505 67.8782 71.505 69.4961 70.4997 70.5014C69.4944 71.5067 67.8764 71.5067 64.6405 71.5067H21.1655C17.9296 71.5067 16.3116 71.5067 15.3063 70.5014C14.301 69.4961 14.301 67.8782 14.301 64.6422V32.8462Z" stroke="#6E58F1" stroke-width="4.2903"/>
<path d="M24.0215 49.0501L14.301 39.3296V68.0746C14.301 69.9702 15.8377 71.5068 17.7333 71.5068H68.0727C69.9683 71.5068 71.505 69.9702 71.505 68.0746V39.3296L61.7845 49.0501C61.1408 49.6937 60.2678 50.0554 59.3576 50.0554H26.4484C25.5382 50.0554 24.6652 49.6937 24.0215 49.0501Z" fill="#6E58F1" fill-opacity="0.25" stroke="#6E58F1" stroke-width="4.2903" stroke-linecap="round"/>
</svg>
