<svg width="86" height="86" viewBox="0 0 86 86" fill="none" xmlns="http://www.w3.org/2000/svg">
<path d="M19.4461 26.8819L27.6289 41.2018C28.104 42.0332 28.3416 42.4489 28.3416 42.9047C28.3416 43.3604 28.104 43.7761 27.6289 44.6075L19.4461 58.9274C17.3211 62.6463 16.2585 64.5058 17.0871 65.4279C17.9157 66.35 19.8778 65.4916 23.8019 63.7748L64.3176 46.0491C67.3989 44.7011 68.9396 44.027 68.9396 42.9047C68.9396 41.7823 67.3989 41.1083 64.3176 39.7602L23.8019 22.0345C19.8778 20.3177 17.9157 19.4593 17.0871 20.3815C16.2585 21.3036 17.3211 23.163 19.4461 26.8819Z" fill="#6E58F1" fill-opacity="0.25" stroke="#6E58F1" stroke-width="4.2903"/>
</svg>
