<svg width="23" height="24" viewBox="0 0 23 24" fill="none" xmlns="http://www.w3.org/2000/svg">
<path d="M20.4022 10.709V8.24479L10.5452 8.24479L10.5452 3.3163L8.08097 3.3163V8.24479H3.15248L3.15248 10.709L8.08097 10.709L8.08097 20.566H10.5452L10.5452 10.709L20.4022 10.709ZM20.4022 0.852051C21.0183 0.852051 21.6343 1.09848 22.1149 1.60365C22.62 2.08417 22.8665 2.70024 22.8665 3.3163L22.8665 20.566C22.8665 21.1821 22.62 21.7981 22.1149 22.2787C21.6343 22.7838 21.0183 23.0303 20.4022 23.0303L3.15248 23.0303C2.53642 23.0303 1.92036 22.7838 1.43983 22.2787C0.934657 21.7981 0.688232 21.1821 0.688232 20.566L0.688232 3.3163C0.688232 2.70024 0.934657 2.08417 1.43983 1.60365C1.92036 1.09848 2.53642 0.852051 3.15248 0.852051L20.4022 0.852051Z" fill="#209262"/>
</svg>
