<svg width="23" height="24" viewBox="0 0 23 24" fill="none" xmlns="http://www.w3.org/2000/svg">
<path d="M0.117676 3.64281C0.117676 2.10152 1.36714 0.852051 2.90844 0.852051L19.5051 0.852051C21.0464 0.852051 22.2959 2.10152 22.2959 3.64281L22.2959 20.2395C22.2959 21.7808 21.0464 23.0303 19.5051 23.0303L2.90844 23.0303C1.36714 23.0303 0.117676 21.7808 0.117676 20.2395L0.117676 3.64281Z" fill="#6E58F1"/>
<path d="M3.31958 10.2334C3.31958 8.32037 4.8645 6.76953 6.77026 6.76953H6.96872C7.77486 6.76953 8.42837 7.42554 8.42837 8.23478V12.2321C8.42837 13.0413 7.77486 13.6973 6.96872 13.6973H6.77025C4.8645 13.6973 3.31958 12.1465 3.31958 10.2334Z" fill="white"/>
<path d="M9.21289 7.38271C9.21289 7.0112 9.43026 6.67433 9.768 6.52243L14.7912 4.26316C15.4125 3.98373 16.1142 4.44004 16.1142 5.12344V15.4212C16.1142 16.109 15.4042 16.5652 14.782 16.2773L9.7588 13.9525C9.42603 13.7985 9.21289 13.4643 9.21289 13.0964V12.6197C9.21289 12.2275 9.45481 11.8763 9.82035 11.7378L12.6201 10.677C13.0251 10.5235 13.0251 9.94845 12.6201 9.79501L9.82035 8.73421C9.45481 8.5957 9.21289 8.24447 9.21289 7.85226V7.38271Z" fill="white"/>
<path d="M19.0933 11.0588V10.8488C19.0933 9.68941 18.157 8.74951 17.002 8.74951C16.9443 8.74951 16.8975 8.79651 16.8975 8.85448V13.0531C16.8975 13.1111 16.9443 13.1581 17.002 13.1581C18.157 13.1581 19.0933 12.2182 19.0933 11.0588Z" fill="white"/>
<path d="M6.76538 15.0383C6.76538 14.8321 6.93184 14.665 7.13717 14.665H9.08243C9.28776 14.665 9.45422 14.8321 9.45422 15.0383V18.3539C9.45422 19.0992 8.8523 19.7034 8.1098 19.7034L-nan -nanL8.1098 19.7034C7.3673 19.7034 6.76538 19.0992 6.76538 18.3539L6.76538 15.0383Z" fill="white"/>
</svg>
