<svg width="173" height="41" viewBox="0 0 173 41" fill="none" xmlns="http://www.w3.org/2000/svg">
<path fill-rule="evenodd" clip-rule="evenodd" d="M3.07452 8.27712L15.1122 1.32347C16.0418 0.786258 17.0965 0.503418 18.1702 0.503418C19.2438 0.503418 20.2985 0.786258 21.2281 1.32347L33.2659 8.27932C34.1946 8.81582 34.9658 9.58712 35.5022 10.5159C36.0385 11.4446 36.3211 12.4981 36.3216 13.5706V27.4295C36.3218 28.5021 36.0395 29.5559 35.503 30.4848C34.9666 31.4136 34.195 32.1848 33.2659 32.7208L21.2281 39.6766C20.2985 40.2138 19.2438 40.4967 18.1702 40.4967C17.0965 40.4967 16.0418 40.2138 15.1122 39.6766L3.07452 32.7208C2.14608 32.1842 1.37515 31.4128 0.839167 30.484C0.303177 29.5553 0.0210069 28.5018 0.0209965 27.4295V13.5684C0.0214569 12.4962 0.303817 11.4429 0.839757 10.5142C1.37569 9.58552 2.14638 8.81402 3.07452 8.27712ZM28.2241 26.9279C28.24 26.872 28.2502 26.8152 28.2548 26.7581C28.2399 26.7117 28.22 26.6667 28.1954 26.6241C28.1351 26.5198 28.0484 26.4332 27.9439 26.3731L23.0715 23.5643C22.8836 23.4566 22.6708 23.3999 22.4542 23.3999C22.4304 23.3999 22.4067 23.4006 22.3831 23.402C22.2497 23.4343 22.1211 23.4857 22.0013 23.5549L19.1594 25.1974C18.9655 25.3094 18.7486 25.3745 18.526 25.3882C18.409 25.4142 18.2891 25.4274 18.1683 25.4274C17.8788 25.4274 17.5945 25.3513 17.3437 25.2068L14.5018 23.5643C14.2518 23.4189 14.0442 23.2104 13.8999 22.9598C13.762 22.7202 13.6865 22.45 13.68 22.1739C13.657 22.0697 13.6455 21.963 13.646 21.8557V18.5818C13.6466 18.3289 13.7135 18.0806 13.84 17.8616C13.9665 17.6427 14.1482 17.4607 14.3669 17.3339L17.2088 15.6914C17.4284 15.5649 17.6106 15.3827 17.7372 15.1632C17.8638 14.9437 17.9302 14.6947 17.9298 14.4413V8.89147C17.8965 8.7884 17.8391 8.69364 17.7611 8.61562C17.6331 8.48768 17.4599 8.41509 17.279 8.41354C17.2101 8.43375 17.1437 8.46236 17.0813 8.49892L8.37711 13.5323C8.0208 13.7362 7.72454 14.0305 7.51823 14.3854C7.31192 14.7404 7.20285 15.1434 7.20202 15.554V25.7861C7.20194 25.9209 7.21354 26.0551 7.23647 26.1871C7.28436 26.3588 7.35373 26.5245 7.44351 26.6802C7.62996 27.0035 7.89788 27.2724 8.22061 27.46L17.1034 32.5926C17.2145 32.6565 17.3306 32.71 17.4504 32.7527C17.6072 32.7855 17.7675 32.8022 17.929 32.8022C18.3388 32.8022 18.7414 32.6945 19.0964 32.4898L27.8072 27.4564C28.0106 27.3423 28.1605 27.1523 28.2241 26.9279Z" fill="url(#paint0_linear_444_7823)"/>
<path fill-rule="evenodd" clip-rule="evenodd" d="M8.11698 27.6389L16.9998 32.7714C17.3552 32.9761 17.7581 33.0838 18.1683 33.0838C18.5784 33.0838 18.9813 32.9761 19.3367 32.7714L28.052 27.7359C28.1898 27.6596 28.3047 27.5478 28.3847 27.4121C28.4647 27.2764 28.5069 27.1217 28.5069 26.9642C28.5069 26.8067 28.4647 26.652 28.3847 26.5163C28.3047 26.3806 28.1898 26.2688 28.052 26.1926L23.1796 23.386C22.9604 23.2592 22.7118 23.1925 22.4586 23.1925C22.2055 23.1925 21.9568 23.2592 21.7377 23.386L18.8958 25.0285C18.6763 25.1552 18.4273 25.222 18.1738 25.222C17.9203 25.222 17.6712 25.1552 17.4517 25.0285L14.6098 23.386C14.3903 23.2595 14.208 23.0773 14.0814 22.8578C13.9549 22.6383 13.8884 22.3893 13.8889 22.1359V18.8641C13.888 18.6112 13.9537 18.3624 14.0795 18.143C14.2053 17.9235 14.3867 17.7411 14.6054 17.614L17.4473 15.9737C17.6664 15.8467 17.8483 15.6644 17.9748 15.445C18.1013 15.2257 18.168 14.9769 18.1683 14.7237V9.10162C18.1713 8.94392 18.132 8.78822 18.0544 8.65082C17.9768 8.51342 17.8637 8.39932 17.727 8.32052C17.5904 8.24172 17.435 8.20102 17.2772 8.20272C17.1194 8.20432 16.965 8.24832 16.83 8.33002L8.11698 13.3633C7.76244 13.5686 7.46807 13.8634 7.26337 14.2182C7.05867 14.573 6.95084 14.9754 6.95069 15.3851V25.6171C6.95084 26.0268 7.05867 26.4292 7.26337 26.784C7.46807 27.1389 7.76244 27.4337 8.11698 27.6389ZM28.2241 26.9279C28.24 26.872 28.2502 26.8152 28.2548 26.7581C28.2399 26.7117 28.22 26.6667 28.1954 26.6241C28.1351 26.5198 28.0484 26.4332 27.9439 26.3731L23.0715 23.5643C22.8836 23.4566 22.6708 23.3999 22.4542 23.3999C22.4304 23.3999 22.4067 23.4006 22.3831 23.402C22.2497 23.4343 22.1211 23.4857 22.0013 23.5549L19.1594 25.1974C18.9655 25.3094 18.7486 25.3745 18.526 25.3882C18.409 25.4142 18.2891 25.4274 18.1683 25.4274C17.8788 25.4274 17.5945 25.3513 17.3437 25.2068L14.5018 23.5643C14.2518 23.4189 14.0442 23.2104 13.8999 22.9598C13.762 22.7202 13.6865 22.45 13.68 22.1739C13.657 22.0697 13.6455 21.963 13.646 21.8557V18.5818C13.6466 18.3289 13.7135 18.0806 13.84 17.8616C13.9665 17.6427 14.1482 17.4607 14.3669 17.3339L17.2088 15.6914C17.4284 15.5649 17.6106 15.3827 17.7372 15.1632C17.8638 14.9437 17.9302 14.6947 17.9298 14.4413V8.89147C17.8965 8.7884 17.8391 8.69364 17.7611 8.61562C17.6331 8.48768 17.4599 8.41509 17.279 8.41354C17.2101 8.43375 17.1437 8.46236 17.0813 8.49892L8.37711 13.5323C8.0208 13.7362 7.72454 14.0305 7.51823 14.3854C7.31192 14.7404 7.20285 15.1434 7.20202 15.554V25.7861C7.20194 25.9209 7.21354 26.0551 7.23647 26.1871C7.28436 26.3588 7.35373 26.5245 7.44351 26.6802C7.62996 27.0035 7.89788 27.2724 8.22061 27.46L17.1034 32.5926C17.2145 32.6565 17.3306 32.71 17.4504 32.7527C17.6072 32.7855 17.7675 32.8022 17.929 32.8022C18.3388 32.8022 18.7414 32.6945 19.0964 32.4898L27.8072 27.4564C28.0106 27.3423 28.1605 27.1523 28.2241 26.9279Z" fill="#0A0A0A"/>
<path d="M34.9865 9.76322C35.5649 10.7202 35.87 11.8175 35.8683 12.9357V26.7968C35.8683 27.8691 35.5862 28.9226 35.0502 29.8513C34.5142 30.7801 33.7433 31.5515 32.8148 32.0881L20.7771 39.044C19.8475 39.5812 18.7928 39.864 17.7191 39.864C16.6455 39.864 15.5908 39.5812 14.6612 39.044L2.62349 32.0881C1.96207 31.7069 1.37862 31.2043 0.903807 30.6065C1.43513 31.4847 2.18557 32.2076 3.07452 32.7208L15.1122 39.6766C16.0418 40.2138 17.0965 40.4967 18.1702 40.4967C19.2438 40.4967 20.2985 40.2138 21.2281 39.6766L33.2659 32.7208C34.195 32.1848 34.9666 31.4136 35.503 30.4848C36.0395 29.5559 36.3218 28.5021 36.3216 27.4295V13.5706C36.322 12.1876 35.8477 10.8454 34.9865 9.76322Z" fill="black"/>
<path d="M28.1467 26.2593C28.2317 26.4124 28.2686 26.5861 28.2548 26.7581C28.2502 26.8152 28.24 26.872 28.2241 26.9279C28.1605 27.1523 28.0106 27.3423 27.8072 27.4564L19.0964 32.4898C18.7414 32.6945 18.3388 32.8022 17.929 32.8022C17.7675 32.8022 17.6072 32.7855 17.4504 32.7527C17.2093 32.7023 16.9767 32.6139 16.7616 32.4898L7.87883 27.3572C7.70252 27.2561 7.5402 27.1323 7.396 26.989C7.58779 27.2571 7.83332 27.4824 8.11694 27.6504L16.9997 32.783C17.3551 32.9877 17.7581 33.0954 18.1682 33.0954C18.5784 33.0954 18.9813 32.9877 19.3367 32.783L28.0475 27.7496C28.1789 27.6788 28.2902 27.5758 28.3709 27.4503C28.4517 27.3248 28.4992 27.1808 28.5091 27.0319C28.519 26.883 28.491 26.7339 28.4276 26.5988C28.3642 26.4637 28.2676 26.3469 28.1467 26.2593Z" fill="#669DEA"/>
<path d="M17.9298 8.81932V8.89147V14.4413C17.9302 14.6947 17.8638 14.9437 17.7372 15.1632C17.6106 15.3827 17.4284 15.5649 17.2088 15.6914L14.3669 17.3339C14.1482 17.4607 13.9665 17.6427 13.84 17.8616C13.7135 18.0806 13.6466 18.3289 13.646 18.5818V21.8557C13.6455 21.963 13.657 22.0697 13.68 22.1739C13.7 22.2648 13.7288 22.3537 13.7661 22.4394C13.8461 22.6234 13.9637 22.7888 14.1112 22.925C13.9631 22.6887 13.8848 22.4148 13.8889 22.1359V18.8641C13.888 18.6112 13.9537 18.3624 14.0795 18.143C14.206 17.9235 14.3858 17.7405 14.6054 17.614L17.4473 15.9737C17.6664 15.8467 17.8483 15.6644 17.9748 15.445C18.1013 15.2257 18.168 14.9769 18.1683 14.7237V9.10162C18.1691 8.96522 18.1444 8.83052 18.0843 8.70802C18.0243 8.58562 17.9367 8.47882 17.8283 8.39602C17.8976 8.52622 17.9325 8.67192 17.9298 8.81932Z" fill="#669DEA"/>
<path d="M17.279 8.41354C17.4613 8.41414 17.6322 8.48682 17.7611 8.61562C17.8391 8.69364 17.8965 8.7884 17.9298 8.89147C17.9515 8.9587 17.963 9.02946 17.9632 9.10142V14.7234C17.9632 14.9404 17.9061 15.1536 17.7978 15.3417C17.6894 15.5297 17.5336 15.686 17.3459 15.7949L14.5018 17.4374C14.2521 17.5826 14.0447 17.7907 13.9005 18.041C13.7562 18.2913 13.68 18.575 13.6795 18.8639V22.1356C13.6795 22.1484 13.6797 22.1612 13.68 22.1739C13.6865 22.45 13.762 22.7202 13.8999 22.9598C14.0442 23.2104 14.2518 23.4189 14.5018 23.5643L17.3437 25.2068C17.5945 25.3513 17.8788 25.4274 18.1683 25.4274C18.2891 25.4274 18.409 25.4142 18.526 25.3882C18.6892 25.352 18.8467 25.291 18.9928 25.2068L21.8369 23.5643C22.0042 23.4684 22.1912 23.413 22.3831 23.402C22.4067 23.4006 22.4304 23.3999 22.4542 23.3999C22.6708 23.3999 22.8836 23.4566 23.0715 23.5643L27.9439 26.3731C28.0484 26.4332 28.1351 26.5198 28.1954 26.6241C28.22 26.6667 28.2399 26.7117 28.2548 26.7581C28.2763 26.8255 28.2874 26.896 28.2874 26.9673C28.2874 27.0878 28.2557 27.2061 28.1954 27.3104C28.1351 27.4147 28.0484 27.5013 27.9439 27.5614L19.2331 32.5926C18.9091 32.7789 18.542 32.8769 18.1683 32.8769C17.9227 32.8769 17.6799 32.8346 17.4504 32.7527C17.3306 32.71 17.2145 32.6565 17.1034 32.5926L8.22061 27.46C7.89788 27.2724 7.62996 27.0035 7.44351 26.6802C7.35373 26.5245 7.28436 26.3588 7.23647 26.1871C7.18491 26.0022 7.15827 25.8105 7.15793 25.6169V15.3848C7.15815 15.0114 7.25643 14.6447 7.44292 14.3212C7.62941 13.9978 7.89758 13.7289 8.22061 13.5417L16.9336 8.50612C17.0374 8.44572 17.159 8.41374 17.279 8.41354ZM17.2772 8.20272C17.1222 8.20362 16.9638 8.25152 16.83 8.33002L8.11698 13.3633C7.76244 13.5686 7.46807 13.8634 7.26337 14.2182C7.05867 14.573 6.95084 14.9754 6.95069 15.3851V25.6171C6.95084 26.0268 7.05867 26.4292 7.26337 26.784C7.46807 27.1389 7.76244 27.4337 8.11698 27.6389L16.9998 32.7714C17.3552 32.9761 17.7581 33.0838 18.1683 33.0838C18.5784 33.0838 18.9813 32.9761 19.3367 32.7714L28.052 27.7359C28.1898 27.6596 28.3047 27.5478 28.3847 27.4121C28.4647 27.2764 28.5069 27.1217 28.5069 26.9642C28.5069 26.8067 28.4647 26.652 28.3847 26.5163C28.3047 26.3806 28.1898 26.2688 28.052 26.1926L23.1796 23.386C22.9604 23.2592 22.7118 23.1925 22.4586 23.1925C22.2055 23.1925 21.9568 23.2592 21.7377 23.386L18.8958 25.0285C18.6763 25.1552 18.4273 25.222 18.1738 25.222C17.9203 25.222 17.6712 25.1552 17.4517 25.0285L14.6098 23.386C14.3912 23.2583 14.2071 23.0776 14.0814 22.8578C13.9549 22.6383 13.8884 22.3893 13.8889 22.1359V18.8641C13.8891 18.6108 13.953 18.3624 14.0795 18.143C14.2053 17.9235 14.3867 17.7411 14.6054 17.614L17.4473 15.9737C17.6664 15.8467 17.8483 15.6644 17.9748 15.445C18.1013 15.2257 18.168 14.9769 18.1683 14.7237V9.10162C18.1683 8.86772 18.0798 8.64322 17.9144 8.47782C17.749 8.31242 17.5247 8.21952 17.2908 8.21952L17.2772 8.20272Z" fill="black"/>
<path d="M17.464 25.0299L14.6772 23.4204C14.7391 23.4703 14.8047 23.5152 14.8735 23.5549L17.7153 25.1974C17.9349 25.3242 18.1839 25.3909 18.4374 25.3909C18.467 25.3909 18.4965 25.39 18.526 25.3882C18.7486 25.3745 18.9655 25.3094 19.1594 25.1974L22.0013 23.5549C22.1211 23.4857 22.2497 23.4343 22.3831 23.402C22.4936 23.3751 22.6075 23.3614 22.7222 23.3614C22.9754 23.3614 23.2241 23.4282 23.4432 23.5549L28.2208 26.2998C28.1732 26.2557 28.1207 26.2172 28.0643 26.1852L23.1918 23.3786C22.9727 23.2518 22.724 23.185 22.4709 23.185C22.2177 23.185 21.9691 23.2518 21.75 23.3786L18.9081 25.0211C18.6893 25.1492 18.4407 25.2174 18.1872 25.219C17.9337 25.2205 17.6843 25.1553 17.464 25.0299Z" fill="#0A0A0A"/>
<path d="M7.20202 25.7861V15.554C7.20285 15.1434 7.31192 14.7404 7.51823 14.3854C7.72454 14.0305 8.0208 13.7362 8.37711 13.5323L17.0813 8.49892C17.1437 8.46236 17.2101 8.43375 17.279 8.41354C17.3448 8.39422 17.4129 8.38259 17.4819 8.37902C17.6231 8.37172 17.764 8.39842 17.8927 8.45702C17.7538 8.32252 17.5746 8.23732 17.3826 8.21462C17.1906 8.19192 16.9964 8.23162 16.83 8.33002L8.11698 13.3633C7.76244 13.5686 7.46807 13.8634 7.26337 14.2182C7.05867 14.573 6.95084 14.9754 6.95069 15.3851V25.6171C6.95116 26.0253 7.05992 26.4301 7.26337 26.784C7.46681 27.1379 7.76447 27.4331 8.11698 27.6389C7.83415 27.4206 7.59855 27.1373 7.44107 26.8166C7.34302 26.6169 7.27431 26.4049 7.23647 26.1871C7.21354 26.0551 7.20194 25.9209 7.20202 25.7861Z" fill="#0A0A0A"/>
<path d="M0.245877 27.5772V13.7161C0.246627 12.6426 0.530037 11.5882 1.06761 10.659C1.60518 9.72972 2.37796 8.95842 3.30822 8.42262L15.3393 1.46899C16.2689 0.931768 17.3236 0.648928 18.3973 0.648928C19.4709 0.648928 20.5256 0.931768 21.4552 1.46899L33.4929 8.42262L33.6296 8.50642C33.5106 8.42482 33.3916 8.34332 33.2659 8.27932L21.2281 1.32347C20.2985 0.786258 19.2438 0.503418 18.1702 0.503418C17.0965 0.503418 16.0418 0.786258 15.1122 1.32347L3.07452 8.27712C2.14638 8.81402 1.37569 9.58552 0.839757 10.5142C0.303817 11.4429 0.0214569 12.4962 0.0209965 13.5684V27.4295C0.0206165 28.4749 0.288627 29.5029 0.799337 30.4151C1.31006 31.3273 2.04639 32.0931 2.93783 32.6392C2.10924 32.0801 1.43051 31.3261 0.961167 30.4436C0.491827 29.561 0.246217 28.5768 0.245877 27.5772Z" fill="#669DEA"/>
<path fill-rule="evenodd" clip-rule="evenodd" d="M3.07452 8.27712L15.1122 1.32347C16.0418 0.786258 17.0965 0.503418 18.1702 0.503418C19.2438 0.503418 20.2985 0.786258 21.2281 1.32347L33.2659 8.27932C34.1946 8.81582 34.9658 9.58712 35.5022 10.5159C36.0385 11.4446 36.3211 12.4981 36.3216 13.5706V27.4295C36.3218 28.5021 36.0395 29.5559 35.503 30.4848C34.9666 31.4136 34.195 32.1848 33.2659 32.7208L21.2281 39.6766C20.2985 40.2138 19.2438 40.4967 18.1702 40.4967C17.0965 40.4967 16.0418 40.2138 15.1122 39.6766L3.07452 32.7208C2.14608 32.1842 1.37515 31.4128 0.839167 30.484C0.303177 29.5553 0.0210069 28.5018 0.0209965 27.4295V13.5684C0.0214569 12.4962 0.303817 11.4429 0.839757 10.5142C1.37569 9.58552 2.14638 8.81402 3.07452 8.27712ZM28.2241 26.9279C28.24 26.872 28.2502 26.8152 28.2548 26.7581C28.2399 26.7117 28.22 26.6667 28.1954 26.6241C28.1351 26.5198 28.0484 26.4332 27.9439 26.3731L23.0715 23.5643C22.8836 23.4566 22.6708 23.3999 22.4542 23.3999C22.4304 23.3999 22.4067 23.4006 22.3831 23.402C22.2497 23.4343 22.1211 23.4857 22.0013 23.5549L19.1594 25.1974C18.9655 25.3094 18.7486 25.3745 18.526 25.3882C18.409 25.4142 18.2891 25.4274 18.1683 25.4274C17.8788 25.4274 17.5945 25.3513 17.3437 25.2068L14.5018 23.5643C14.2518 23.4189 14.0442 23.2104 13.8999 22.9598C13.762 22.7202 13.6865 22.45 13.68 22.1739C13.657 22.0697 13.6455 21.963 13.646 21.8557V18.5818C13.6466 18.3289 13.7135 18.0806 13.84 17.8616C13.9665 17.6427 14.1482 17.4607 14.3669 17.3339L17.2088 15.6914C17.4284 15.5649 17.6106 15.3827 17.7372 15.1632C17.8638 14.9437 17.9302 14.6947 17.9298 14.4413V8.89147C17.8965 8.7884 17.8391 8.69364 17.7611 8.61562C17.6331 8.48768 17.4599 8.41509 17.279 8.41354C17.2101 8.43375 17.1437 8.46236 17.0813 8.49892L8.37711 13.5323C8.0208 13.7362 7.72454 14.0305 7.51823 14.3854C7.31192 14.7404 7.20285 15.1434 7.20202 15.554V25.7861C7.20194 25.9209 7.21354 26.0551 7.23647 26.1871C7.28436 26.3588 7.35373 26.5245 7.44351 26.6802C7.62996 27.0035 7.89788 27.2724 8.22061 27.46L17.1034 32.5926C17.2145 32.6565 17.3306 32.71 17.4504 32.7527C17.6072 32.7855 17.7675 32.8022 17.929 32.8022C18.3388 32.8022 18.7414 32.6945 19.0964 32.4898L27.8072 27.4564C28.0106 27.3423 28.1605 27.1523 28.2241 26.9279Z" fill="url(#paint1_linear_444_7823)"/>
<path fill-rule="evenodd" clip-rule="evenodd" d="M8.11698 27.6389L16.9998 32.7714C17.3552 32.9761 17.7581 33.0838 18.1683 33.0838C18.5784 33.0838 18.9813 32.9761 19.3367 32.7714L28.052 27.7359C28.1898 27.6596 28.3047 27.5478 28.3847 27.4121C28.4647 27.2764 28.5069 27.1217 28.5069 26.9642C28.5069 26.8067 28.4647 26.652 28.3847 26.5163C28.3047 26.3806 28.1898 26.2688 28.052 26.1926L23.1796 23.386C22.9604 23.2592 22.7118 23.1925 22.4586 23.1925C22.2055 23.1925 21.9568 23.2592 21.7377 23.386L18.8958 25.0285C18.6763 25.1552 18.4273 25.222 18.1738 25.222C17.9203 25.222 17.6712 25.1552 17.4517 25.0285L14.6098 23.386C14.3903 23.2595 14.208 23.0773 14.0814 22.8578C13.9549 22.6383 13.8884 22.3893 13.8889 22.1359V18.8641C13.888 18.6112 13.9537 18.3624 14.0795 18.143C14.2053 17.9235 14.3867 17.7411 14.6054 17.614L17.4473 15.9737C17.6664 15.8467 17.8483 15.6644 17.9748 15.445C18.1013 15.2257 18.168 14.9769 18.1683 14.7237V9.10162C18.1713 8.94392 18.132 8.78822 18.0544 8.65082C17.9768 8.51342 17.8637 8.39932 17.727 8.32052C17.5904 8.24172 17.435 8.20102 17.2772 8.20272C17.1194 8.20432 16.965 8.24832 16.83 8.33002L8.11698 13.3633C7.76244 13.5686 7.46807 13.8634 7.26337 14.2182C7.05867 14.573 6.95084 14.9754 6.95069 15.3851V25.6171C6.95084 26.0268 7.05867 26.4292 7.26337 26.784C7.46807 27.1389 7.76244 27.4337 8.11698 27.6389ZM28.2241 26.9279C28.24 26.872 28.2502 26.8152 28.2548 26.7581C28.2399 26.7117 28.22 26.6667 28.1954 26.6241C28.1351 26.5198 28.0484 26.4332 27.9439 26.3731L23.0715 23.5643C22.8836 23.4566 22.6708 23.3999 22.4542 23.3999C22.4304 23.3999 22.4067 23.4006 22.3831 23.402C22.2497 23.4343 22.1211 23.4857 22.0013 23.5549L19.1594 25.1974C18.9655 25.3094 18.7486 25.3745 18.526 25.3882C18.409 25.4142 18.2891 25.4274 18.1683 25.4274C17.8788 25.4274 17.5945 25.3513 17.3437 25.2068L14.5018 23.5643C14.2518 23.4189 14.0442 23.2104 13.8999 22.9598C13.762 22.7202 13.6865 22.45 13.68 22.1739C13.657 22.0697 13.6455 21.963 13.646 21.8557V18.5818C13.6466 18.3289 13.7135 18.0806 13.84 17.8616C13.9665 17.6427 14.1482 17.4607 14.3669 17.3339L17.2088 15.6914C17.4284 15.5649 17.6106 15.3827 17.7372 15.1632C17.8638 14.9437 17.9302 14.6947 17.9298 14.4413V8.89147C17.8965 8.7884 17.8391 8.69364 17.7611 8.61562C17.6331 8.48768 17.4599 8.41509 17.279 8.41354C17.2101 8.43375 17.1437 8.46236 17.0813 8.49892L8.37711 13.5323C8.0208 13.7362 7.72454 14.0305 7.51823 14.3854C7.31192 14.7404 7.20285 15.1434 7.20202 15.554V25.7861C7.20194 25.9209 7.21354 26.0551 7.23647 26.1871C7.28436 26.3588 7.35373 26.5245 7.44351 26.6802C7.62996 27.0035 7.89788 27.2724 8.22061 27.46L17.1034 32.5926C17.2145 32.6565 17.3306 32.71 17.4504 32.7527C17.6072 32.7855 17.7675 32.8022 17.929 32.8022C18.3388 32.8022 18.7414 32.6945 19.0964 32.4898L27.8072 27.4564C28.0106 27.3423 28.1605 27.1523 28.2241 26.9279Z" fill="#0A0A0A"/>
<path d="M34.9865 9.76322C35.5649 10.7202 35.87 11.8175 35.8683 12.9357V26.7968C35.8683 27.8691 35.5862 28.9226 35.0502 29.8513C34.5142 30.7801 33.7433 31.5515 32.8148 32.0881L20.7771 39.044C19.8475 39.5812 18.7928 39.864 17.7191 39.864C16.6455 39.864 15.5908 39.5812 14.6612 39.044L2.62349 32.0881C1.96207 31.7069 1.37862 31.2043 0.903807 30.6065C1.43513 31.4847 2.18557 32.2076 3.07452 32.7208L15.1122 39.6766C16.0418 40.2138 17.0965 40.4967 18.1702 40.4967C19.2438 40.4967 20.2985 40.2138 21.2281 39.6766L33.2659 32.7208C34.195 32.1848 34.9666 31.4136 35.503 30.4848C36.0395 29.5559 36.3218 28.5021 36.3216 27.4295V13.5706C36.322 12.1876 35.8477 10.8454 34.9865 9.76322Z" fill="black"/>
<path d="M28.1467 26.2593C28.2317 26.4124 28.2686 26.5861 28.2548 26.7581C28.2502 26.8152 28.24 26.872 28.2241 26.9279C28.1605 27.1523 28.0106 27.3423 27.8072 27.4564L19.0964 32.4898C18.7414 32.6945 18.3388 32.8022 17.929 32.8022C17.7675 32.8022 17.6072 32.7855 17.4504 32.7527C17.2093 32.7023 16.9767 32.6139 16.7616 32.4898L7.87883 27.3572C7.70252 27.2561 7.5402 27.1323 7.396 26.989C7.58779 27.2571 7.83332 27.4824 8.11694 27.6504L16.9997 32.783C17.3551 32.9877 17.7581 33.0954 18.1682 33.0954C18.5784 33.0954 18.9813 32.9877 19.3367 32.783L28.0475 27.7496C28.1789 27.6788 28.2902 27.5758 28.3709 27.4503C28.4517 27.3248 28.4992 27.1808 28.5091 27.0319C28.519 26.883 28.491 26.7339 28.4276 26.5988C28.3642 26.4637 28.2676 26.3469 28.1467 26.2593Z" fill="#669DEA"/>
<path d="M17.9298 8.81932V8.89147V14.4413C17.9302 14.6947 17.8638 14.9437 17.7372 15.1632C17.6106 15.3827 17.4284 15.5649 17.2088 15.6914L14.3669 17.3339C14.1482 17.4607 13.9665 17.6427 13.84 17.8616C13.7135 18.0806 13.6466 18.3289 13.646 18.5818V21.8557C13.6455 21.963 13.657 22.0697 13.68 22.1739C13.7 22.2648 13.7288 22.3537 13.7661 22.4394C13.8461 22.6234 13.9637 22.7888 14.1112 22.925C13.9631 22.6887 13.8848 22.4148 13.8889 22.1359V18.8641C13.888 18.6112 13.9537 18.3624 14.0795 18.143C14.206 17.9235 14.3858 17.7405 14.6054 17.614L17.4473 15.9737C17.6664 15.8467 17.8483 15.6644 17.9748 15.445C18.1013 15.2257 18.168 14.9769 18.1683 14.7237V9.10162C18.1691 8.96522 18.1444 8.83052 18.0843 8.70802C18.0243 8.58562 17.9367 8.47882 17.8283 8.39602C17.8976 8.52622 17.9325 8.67192 17.9298 8.81932Z" fill="#669DEA"/>
<path d="M17.279 8.41354C17.4613 8.41414 17.6322 8.48682 17.7611 8.61562C17.8391 8.69364 17.8965 8.7884 17.9298 8.89147C17.9515 8.9587 17.963 9.02946 17.9632 9.10142V14.7234C17.9632 14.9404 17.9061 15.1536 17.7978 15.3417C17.6894 15.5297 17.5336 15.686 17.3459 15.7949L14.5018 17.4374C14.2521 17.5826 14.0447 17.7907 13.9005 18.041C13.7562 18.2913 13.68 18.575 13.6795 18.8639V22.1356C13.6795 22.1484 13.6797 22.1612 13.68 22.1739C13.6865 22.45 13.762 22.7202 13.8999 22.9598C14.0442 23.2104 14.2518 23.4189 14.5018 23.5643L17.3437 25.2068C17.5945 25.3513 17.8788 25.4274 18.1683 25.4274C18.2891 25.4274 18.409 25.4142 18.526 25.3882C18.6892 25.352 18.8467 25.291 18.9928 25.2068L21.8369 23.5643C22.0042 23.4684 22.1912 23.413 22.3831 23.402C22.4067 23.4006 22.4304 23.3999 22.4542 23.3999C22.6708 23.3999 22.8836 23.4566 23.0715 23.5643L27.9439 26.3731C28.0484 26.4332 28.1351 26.5198 28.1954 26.6241C28.22 26.6667 28.2399 26.7117 28.2548 26.7581C28.2763 26.8255 28.2874 26.896 28.2874 26.9673C28.2874 27.0878 28.2557 27.2061 28.1954 27.3104C28.1351 27.4147 28.0484 27.5013 27.9439 27.5614L19.2331 32.5926C18.9091 32.7789 18.542 32.8769 18.1683 32.8769C17.9227 32.8769 17.6799 32.8346 17.4504 32.7527C17.3306 32.71 17.2145 32.6565 17.1034 32.5926L8.22061 27.46C7.89788 27.2724 7.62996 27.0035 7.44351 26.6802C7.35373 26.5245 7.28436 26.3588 7.23647 26.1871C7.18491 26.0022 7.15827 25.8105 7.15793 25.6169V15.3848C7.15815 15.0114 7.25643 14.6447 7.44292 14.3212C7.62941 13.9978 7.89758 13.7289 8.22061 13.5417L16.9336 8.50612C17.0374 8.44572 17.159 8.41374 17.279 8.41354ZM17.2772 8.20272C17.1222 8.20362 16.9638 8.25152 16.83 8.33002L8.11698 13.3633C7.76244 13.5686 7.46807 13.8634 7.26337 14.2182C7.05867 14.573 6.95084 14.9754 6.95069 15.3851V25.6171C6.95084 26.0268 7.05867 26.4292 7.26337 26.784C7.46807 27.1389 7.76244 27.4337 8.11698 27.6389L16.9998 32.7714C17.3552 32.9761 17.7581 33.0838 18.1683 33.0838C18.5784 33.0838 18.9813 32.9761 19.3367 32.7714L28.052 27.7359C28.1898 27.6596 28.3047 27.5478 28.3847 27.4121C28.4647 27.2764 28.5069 27.1217 28.5069 26.9642C28.5069 26.8067 28.4647 26.652 28.3847 26.5163C28.3047 26.3806 28.1898 26.2688 28.052 26.1926L23.1796 23.386C22.9604 23.2592 22.7118 23.1925 22.4586 23.1925C22.2055 23.1925 21.9568 23.2592 21.7377 23.386L18.8958 25.0285C18.6763 25.1552 18.4273 25.222 18.1738 25.222C17.9203 25.222 17.6712 25.1552 17.4517 25.0285L14.6098 23.386C14.3912 23.2583 14.2071 23.0776 14.0814 22.8578C13.9549 22.6383 13.8884 22.3893 13.8889 22.1359V18.8641C13.8891 18.6108 13.953 18.3624 14.0795 18.143C14.2053 17.9235 14.3867 17.7411 14.6054 17.614L17.4473 15.9737C17.6664 15.8467 17.8483 15.6644 17.9748 15.445C18.1013 15.2257 18.168 14.9769 18.1683 14.7237V9.10162C18.1683 8.86772 18.0798 8.64322 17.9144 8.47782C17.749 8.31242 17.5247 8.21952 17.2908 8.21952L17.2772 8.20272Z" fill="black"/>
<path d="M17.464 25.0299L14.6772 23.4204C14.7391 23.4703 14.8047 23.5152 14.8735 23.5549L17.7153 25.1974C17.9349 25.3242 18.1839 25.3909 18.4374 25.3909C18.467 25.3909 18.4965 25.39 18.526 25.3882C18.7486 25.3745 18.9655 25.3094 19.1594 25.1974L22.0013 23.5549C22.1211 23.4857 22.2497 23.4343 22.3831 23.402C22.4936 23.3751 22.6075 23.3614 22.7222 23.3614C22.9754 23.3614 23.2241 23.4282 23.4432 23.5549L28.2208 26.2998C28.1732 26.2557 28.1207 26.2172 28.0643 26.1852L23.1918 23.3786C22.9727 23.2518 22.724 23.185 22.4709 23.185C22.2177 23.185 21.9691 23.2518 21.75 23.3786L18.9081 25.0211C18.6893 25.1492 18.4407 25.2174 18.1872 25.219C17.9337 25.2205 17.6843 25.1553 17.464 25.0299Z" fill="#0A0A0A"/>
<path d="M7.20202 25.7861V15.554C7.20285 15.1434 7.31192 14.7404 7.51823 14.3854C7.72454 14.0305 8.0208 13.7362 8.37711 13.5323L17.0813 8.49892C17.1437 8.46236 17.2101 8.43375 17.279 8.41354C17.3448 8.39422 17.4129 8.38259 17.4819 8.37902C17.6231 8.37172 17.764 8.39842 17.8927 8.45702C17.7538 8.32252 17.5746 8.23732 17.3826 8.21462C17.1906 8.19192 16.9964 8.23162 16.83 8.33002L8.11698 13.3633C7.76244 13.5686 7.46807 13.8634 7.26337 14.2182C7.05867 14.573 6.95084 14.9754 6.95069 15.3851V25.6171C6.95116 26.0253 7.05992 26.4301 7.26337 26.784C7.46681 27.1379 7.76447 27.4331 8.11698 27.6389C7.83415 27.4206 7.59855 27.1373 7.44107 26.8166C7.34302 26.6169 7.27431 26.4049 7.23647 26.1871C7.21354 26.0551 7.20194 25.9209 7.20202 25.7861Z" fill="#0A0A0A"/>
<path d="M0.245877 27.5772V13.7161C0.246627 12.6426 0.530037 11.5882 1.06761 10.659C1.60518 9.72972 2.37796 8.95842 3.30822 8.42262L15.3393 1.46899C16.2689 0.931768 17.3236 0.648928 18.3973 0.648928C19.4709 0.648928 20.5256 0.931768 21.4552 1.46899L33.4929 8.42262L33.6296 8.50642C33.5106 8.42482 33.3916 8.34332 33.2659 8.27932L21.2281 1.32347C20.2985 0.786258 19.2438 0.503418 18.1702 0.503418C17.0965 0.503418 16.0418 0.786258 15.1122 1.32347L3.07452 8.27712C2.14638 8.81402 1.37569 9.58552 0.839757 10.5142C0.303817 11.4429 0.0214569 12.4962 0.0209965 13.5684V27.4295C0.0206165 28.4749 0.288627 29.5029 0.799337 30.4151C1.31006 31.3273 2.04639 32.0931 2.93783 32.6392C2.10924 32.0801 1.43051 31.3261 0.961167 30.4436C0.491827 29.561 0.246217 28.5768 0.245877 27.5772Z" fill="#669DEA"/>
<path d="M51.1836 13.8045V11.7094L57.3555 1.95797H59.1027V4.94092H58.0373L53.8825 11.5247V11.6383H62.4976V13.8045H51.1836ZM58.1226 16.5034V13.1653L58.151 12.2278V1.95797H60.6368V16.5034H58.1226ZM65.9688 16.6596C65.5379 16.6596 65.1686 16.5081 64.8608 16.2051C64.5531 15.9021 64.4016 15.5328 64.4063 15.0972C64.4016 14.671 64.5531 14.3064 64.8608 14.0034C65.1686 13.7004 65.5379 13.5489 65.9688 13.5489C66.3855 13.5489 66.7477 13.7004 67.0554 14.0034C67.3679 14.3064 67.5266 14.671 67.5313 15.0972C67.5266 15.386 67.4508 15.6488 67.304 15.8855C67.162 16.1222 66.9726 16.3116 66.7358 16.4537C66.5038 16.591 66.2481 16.6596 65.9688 16.6596ZM74.9922 1.7591C75.6882 1.76384 76.3653 1.88694 77.0235 2.12842C77.6864 2.36516 78.2829 2.75342 78.8132 3.29319C79.3435 3.82823 79.765 4.54556 80.0775 5.44518C80.39 6.3448 80.5462 7.45749 80.5462 8.78322C80.5509 10.0332 80.4184 11.1507 80.1485 12.1355C79.8833 13.1156 79.5022 13.9442 79.005 14.6213C78.5078 15.2984 77.9089 15.8145 77.2081 16.1696C76.5074 16.5247 75.719 16.7023 74.8431 16.7023C73.9245 16.7023 73.1101 16.5223 72.3999 16.1625C71.6944 15.8026 71.1239 15.3102 70.6882 14.6852C70.2526 14.0602 69.9851 13.3453 69.8857 12.5403H72.478C72.6106 13.118 72.8805 13.5773 73.2877 13.9182C73.6996 14.2543 74.2181 14.4224 74.8431 14.4224C75.8516 14.4224 76.6281 13.9845 77.1726 13.1085C77.7171 12.2326 77.9894 11.0157 77.9894 9.45792H77.89C77.6579 9.87462 77.3573 10.2345 76.988 10.5375C76.6186 10.8358 76.1996 11.0654 75.7309 11.2264C75.2668 11.3874 74.7744 11.4679 74.2536 11.4679C73.4013 11.4679 72.6343 11.2643 71.9525 10.8571C71.2754 10.4499 70.738 9.89122 70.3402 9.18102C69.9472 8.47072 69.7484 7.65872 69.7436 6.7449C69.7436 5.79793 69.9614 4.94802 70.3971 4.19518C70.8374 3.43761 71.4506 2.84101 72.2365 2.40541C73.0225 1.96507 73.9411 1.74963 74.9922 1.7591ZM74.9993 3.88978C74.488 3.88978 74.0263 4.01526 73.6144 4.2662C73.2072 4.51242 72.8852 4.84859 72.6485 5.27473C72.4165 5.69613 72.3005 6.16725 72.3005 6.68808C72.3052 7.20418 72.4212 7.67292 72.6485 8.09432C72.8805 8.51572 73.1953 8.84952 73.5931 9.09572C73.9955 9.34192 74.4548 9.46502 74.9709 9.46502C75.3544 9.46502 75.7119 9.39172 76.0434 9.24492C76.3748 9.09812 76.6636 8.89452 76.9098 8.63412C77.1608 8.36892 77.3549 8.06832 77.4922 7.73212C77.6343 7.39594 77.7029 7.04082 77.6982 6.66677C77.6982 6.16961 77.5798 5.71033 77.3431 5.28893C77.1111 4.86753 76.7915 4.52899 76.3843 4.27331C75.9818 4.01762 75.5202 3.88978 74.9993 3.88978ZM89.7318 16.6625C89.0428 16.6625 88.4378 16.4984 87.9176 16.1703C87.4006 15.8422 86.9962 15.3831 86.7046 14.7932C86.4162 14.2032 86.2721 13.5138 86.2721 12.725C86.2721 11.9295 86.4162 11.2352 86.7046 10.6419C86.9962 10.0486 87.4006 9.58792 87.9176 9.25982C88.4378 8.93172 89.0428 8.76762 89.7318 8.76762C90.4218 8.76762 91.0248 8.93172 91.5418 9.25982C92.0618 9.58792 92.4668 10.0486 92.7548 10.6419C93.0468 11.2352 93.1928 11.9295 93.1928 12.725C93.1928 13.5138 93.0468 14.2032 92.7548 14.7932C92.4668 15.3831 92.0618 15.8422 91.5418 16.1703C91.0248 16.4984 90.4218 16.6625 89.7318 16.6625ZM89.7318 15.6085C90.2558 15.6085 90.6868 15.4743 91.0248 15.2058C91.3628 14.9373 91.6128 14.5844 91.7758 14.1469C91.9378 13.7094 92.0188 13.2354 92.0188 12.725C92.0188 12.2146 91.9378 11.739 91.7758 11.2981C91.6128 10.8573 91.3628 10.501 91.0248 10.2293C90.6868 9.95752 90.2558 9.82162 89.7318 9.82162C89.2088 9.82162 88.7778 9.95752 88.4398 10.2293C88.1016 10.501 87.8514 10.8573 87.689 11.2981C87.5266 11.739 87.4453 12.2146 87.4453 12.725C87.4453 13.2354 87.5266 13.7094 87.689 14.1469C87.8514 14.5844 88.1016 14.9373 88.4398 15.2058C88.7778 15.4743 89.2088 15.6085 89.7318 15.6085ZM99.7958 13.3812V8.86702H100.97V16.5034H99.7958V15.2108H99.7168C99.5378 15.5986 99.2588 15.9284 98.8808 16.2001C98.5038 16.4686 98.0258 16.6028 97.4498 16.6028C96.9718 16.6028 96.5478 16.4984 96.1768 16.2896C95.8058 16.0775 95.5138 15.7593 95.3018 15.3351C95.0898 14.9075 94.9838 14.3689 94.9838 13.7193V8.86702H96.1568V13.6398C96.1568 14.1966 96.3128 14.6407 96.6238 14.9722C96.9388 15.3036 97.3398 15.4693 97.8268 15.4693C98.1188 15.4693 98.4158 15.3947 98.7168 15.2456C99.0218 15.0964 99.2778 14.8677 99.4828 14.5595C99.6918 14.2513 99.7958 13.8585 99.7958 13.3812ZM106.44 8.86702V9.86142H102.482V8.86702H106.44ZM103.636 7.03751H104.809V14.3159C104.809 14.6473 104.857 14.8959 104.953 15.0616C105.052 15.224 105.178 15.3334 105.331 15.3898C105.487 15.4428 105.651 15.4693 105.823 15.4693C105.952 15.4693 106.058 15.4627 106.141 15.4494C106.224 15.4329 106.29 15.4196 106.34 15.4096L106.579 16.4636C106.499 16.4935 106.388 16.5233 106.246 16.5531C106.103 16.5863 105.922 16.6028 105.704 16.6028C105.372 16.6028 105.047 16.5316 104.729 16.3891C104.414 16.2465 104.153 16.0294 103.944 15.7378C103.738 15.4461 103.636 15.0782 103.636 14.6341V7.03751ZM115.244 16.6625C114.555 16.6625 113.95 16.4984 113.43 16.1703C112.913 15.8422 112.508 15.3831 112.216 14.7932C111.928 14.2032 111.784 13.5138 111.784 12.725C111.784 11.9295 111.928 11.2352 112.216 10.6419C112.508 10.0486 112.913 9.58792 113.43 9.25982C113.95 8.93172 114.555 8.76762 115.244 8.76762C115.934 8.76762 116.537 8.93172 117.054 9.25982C117.574 9.58792 117.979 10.0486 118.267 10.6419C118.559 11.2352 118.704 11.9295 118.704 12.725C118.704 13.5138 118.559 14.2032 118.267 14.7932C117.979 15.3831 117.574 15.8422 117.054 16.1703C116.537 16.4984 115.934 16.6625 115.244 16.6625ZM115.244 15.6085C115.768 15.6085 116.199 15.4743 116.537 15.2058C116.875 14.9373 117.125 14.5844 117.288 14.1469C117.45 13.7094 117.531 13.2354 117.531 12.725C117.531 12.2146 117.45 11.739 117.288 11.2981C117.125 10.8573 116.875 10.501 116.537 10.2293C116.199 9.95752 115.768 9.82162 115.244 9.82162C114.721 9.82162 114.29 9.95752 113.952 10.2293C113.614 10.501 113.363 10.8573 113.201 11.2981C113.038 11.739 112.957 12.2146 112.957 12.725C112.957 13.2354 113.038 13.7094 113.201 14.1469C113.363 14.5844 113.614 14.9373 113.952 15.2058C114.29 15.4743 114.721 15.6085 115.244 15.6085ZM123.896 8.86702V9.86142H119.78V8.86702H123.896ZM121.012 16.5034V7.81312C121.012 7.37558 121.115 7.011 121.321 6.71933C121.526 6.42766 121.793 6.20891 122.121 6.06308C122.449 5.91725 122.796 5.84433 123.16 5.84433C123.449 5.84433 123.684 5.86753 123.866 5.91393C124.048 5.96033 124.184 6.00342 124.274 6.04319L123.936 7.0574C123.876 7.03751 123.793 7.01265 123.687 6.98282C123.584 6.95299 123.449 6.93808 123.28 6.93808C122.892 6.93808 122.612 7.03585 122.439 7.2314C122.27 7.42695 122.186 7.71362 122.186 8.09152V16.5034H121.012ZM132.64 16.6426C132.056 16.6426 131.531 16.5266 131.064 16.2946C130.596 16.0626 130.222 15.7444 129.94 15.34C129.658 14.9357 129.504 14.475 129.478 13.9579H130.671C130.717 14.4186 130.926 14.7998 131.297 15.1014C131.672 15.3997 132.119 15.5489 132.64 15.5489C133.057 15.5489 133.429 15.4511 133.753 15.2555C134.082 15.06 134.338 14.7915 134.524 14.4501C134.713 14.1054 134.807 13.716 134.807 13.2818C134.807 12.8377 134.71 12.4416 134.514 12.0936C134.322 11.7423 134.057 11.4655 133.719 11.2633C133.381 11.0612 132.994 10.9584 132.56 10.9551C132.249 10.9518 131.929 10.9998 131.601 11.0993C131.273 11.1954 131.002 11.3197 130.79 11.4722L129.637 11.3329L130.253 6.3216H135.543V7.41535H131.288L130.93 10.4182H130.989C131.198 10.2525 131.46 10.1149 131.775 10.0055C132.09 9.89622 132.418 9.84152 132.759 9.84152C133.382 9.84152 133.937 9.99062 134.425 10.2889C134.915 10.5839 135.3 10.9882 135.578 11.502C135.86 12.0157 136.001 12.6024 136.001 13.2619C136.001 13.9115 135.855 14.4916 135.563 15.002C135.275 15.5091 134.877 15.9101 134.37 16.2051C133.863 16.4968 133.286 16.6426 132.64 16.6426ZM147.342 10.5773L146.288 10.8756C146.222 10.6999 146.124 10.5292 145.995 10.3635C145.869 10.1945 145.696 10.0552 145.478 9.94592C145.259 9.83652 144.979 9.78182 144.637 9.78182C144.17 9.78182 143.781 9.88952 143.469 10.105C143.161 10.3171 143.007 10.5872 143.007 10.9153C143.007 11.207 143.113 11.4373 143.325 11.6064C143.537 11.7754 143.869 11.9163 144.319 12.029L145.453 12.3074C146.136 12.4731 146.644 12.7266 146.979 13.068C147.314 13.4061 147.481 13.8419 147.481 14.3756C147.481 14.8131 147.355 15.2042 147.103 15.5489C146.855 15.8936 146.507 16.1653 146.059 16.3642C145.612 16.5631 145.092 16.6625 144.498 16.6625C143.719 16.6625 143.075 16.4935 142.564 16.1554C142.054 15.8173 141.731 15.3235 141.595 14.6739L142.709 14.3954C142.815 14.8064 143.015 15.1147 143.31 15.3202C143.608 15.5257 143.998 15.6284 144.478 15.6284C145.025 15.6284 145.459 15.5124 145.781 15.2804C146.106 15.0451 146.268 14.7633 146.268 14.4352C146.268 14.1701 146.175 13.948 145.99 13.769C145.804 13.5867 145.519 13.4508 145.135 13.3614L143.862 13.0631C143.163 12.8973 142.649 12.6405 142.321 12.2925C141.996 11.9411 141.834 11.502 141.834 10.975C141.834 10.5441 141.954 10.163 142.196 9.83152C142.442 9.50012 142.775 9.23992 143.196 9.05102C143.62 8.86212 144.101 8.76762 144.637 8.76762C145.393 8.76762 145.986 8.93332 146.417 9.26482C146.852 9.59622 147.16 10.0337 147.342 10.5773ZM152.568 8.86702V9.86142H148.611V8.86702H152.568ZM149.764 7.03751H150.938V14.3159C150.938 14.6473 150.986 14.8959 151.082 15.0616C151.181 15.224 151.307 15.3334 151.46 15.3898C151.616 15.4428 151.78 15.4693 151.952 15.4693C152.081 15.4693 152.187 15.4627 152.27 15.4494C152.353 15.4329 152.419 15.4196 152.469 15.4096L152.708 16.4636C152.628 16.4935 152.517 16.5233 152.375 16.5531C152.232 16.5863 152.051 16.6028 151.833 16.6028C151.501 16.6028 151.176 16.5316 150.858 16.3891C150.543 16.2465 150.281 16.0294 150.073 15.7378C149.867 15.4461 149.764 15.0782 149.764 14.6341V7.03751ZM156.58 16.6824C156.097 16.6824 155.657 16.5912 155.263 16.4089C154.869 16.2233 154.555 15.9565 154.323 15.6085C154.091 15.2572 153.975 14.8329 153.975 14.3358C153.975 13.8983 154.062 13.5436 154.234 13.2719C154.406 12.9968 154.637 12.7813 154.925 12.6256C155.213 12.4698 155.531 12.3538 155.879 12.2775C156.231 12.198 156.584 12.135 156.938 12.0886C157.402 12.029 157.779 11.9842 158.067 11.9544C158.359 11.9213 158.571 11.8666 158.703 11.7903C158.839 11.7141 158.907 11.5815 158.907 11.3926V11.3528C158.907 10.8623 158.773 10.4811 158.504 10.2094C158.239 9.93762 157.837 9.80172 157.296 9.80172C156.736 9.80172 156.297 9.92432 155.979 10.1696C155.661 10.4149 155.437 10.6767 155.308 10.9551L154.194 10.5574C154.393 10.0934 154.658 9.73212 154.99 9.47362C155.324 9.21172 155.689 9.02942 156.083 8.92672C156.481 8.82062 156.872 8.76762 157.257 8.76762C157.502 8.76762 157.784 8.79742 158.102 8.85712C158.423 8.91342 158.733 9.03112 159.031 9.21012C159.333 9.38912 159.583 9.65922 159.782 10.0204C159.981 10.3817 160.08 10.8656 160.08 11.4722V16.5034H158.907V15.4693H158.848C158.768 15.635 158.635 15.8123 158.45 16.0013C158.264 16.1902 158.017 16.3509 157.709 16.4835C157.401 16.6161 157.025 16.6824 156.58 16.6824ZM156.759 15.6284C157.223 15.6284 157.615 15.5373 157.933 15.355C158.254 15.1727 158.496 14.9373 158.659 14.649C158.824 14.3606 158.907 14.0574 158.907 13.7392V12.6653C158.857 12.725 158.748 12.7797 158.579 12.8294C158.413 12.8758 158.221 12.9172 158.002 12.9537C157.787 12.9868 157.576 13.0167 157.371 13.0432C157.169 13.0664 157.005 13.0863 156.879 13.1028C156.574 13.1426 156.289 13.2072 156.024 13.2967C155.762 13.3829 155.55 13.5138 155.387 13.6895C155.228 13.8618 155.149 14.0971 155.149 14.3954C155.149 14.8031 155.299 15.1114 155.601 15.3202C155.906 15.5257 156.292 15.6284 156.759 15.6284ZM162.222 16.5034V8.86702H163.356V10.0204H163.435C163.574 9.64262 163.826 9.33602 164.191 9.10072C164.555 8.86542 164.966 8.74772 165.424 8.74772C165.51 8.74772 165.618 8.74942 165.747 8.75272C165.876 8.75602 165.974 8.76102 166.04 8.76762V9.96082C166 9.95082 165.909 9.93592 165.767 9.91602C165.628 9.89282 165.48 9.88122 165.324 9.88122C164.953 9.88122 164.622 9.95912 164.33 10.1149C164.042 10.2674 163.813 10.4795 163.644 10.7513C163.478 11.0197 163.395 11.3263 163.395 11.671V16.5034H162.222ZM172.84 10.5773L171.786 10.8756C171.72 10.6999 171.622 10.5292 171.493 10.3635C171.367 10.1945 171.194 10.0552 170.976 9.94592C170.757 9.83652 170.477 9.78182 170.136 9.78182C169.668 9.78182 169.279 9.88952 168.967 10.105C168.659 10.3171 168.505 10.5872 168.505 10.9153C168.505 11.207 168.611 11.4373 168.823 11.6064C169.035 11.7754 169.367 11.9163 169.817 12.029L170.951 12.3074C171.634 12.4731 172.142 12.7266 172.477 13.068C172.812 13.4061 172.979 13.8419 172.979 14.3756C172.979 14.8131 172.853 15.2042 172.601 15.5489C172.353 15.8936 172.005 16.1653 171.557 16.3642C171.11 16.5631 170.59 16.6625 169.996 16.6625C169.217 16.6625 168.573 16.4935 168.062 16.1554C167.552 15.8173 167.229 15.3235 167.093 14.6739L168.207 14.3954C168.313 14.8064 168.513 15.1147 168.808 15.3202C169.106 15.5257 169.496 15.6284 169.976 15.6284C170.523 15.6284 170.958 15.5124 171.279 15.2804C171.604 15.0451 171.766 14.7633 171.766 14.4352C171.766 14.1701 171.673 13.948 171.488 13.769C171.302 13.5867 171.017 13.4508 170.633 13.3614L169.36 13.0631C168.661 12.8973 168.147 12.6405 167.819 12.2925C167.494 11.9411 167.332 11.502 167.332 10.975C167.332 10.5441 167.453 10.163 167.694 9.83152C167.94 9.50012 168.273 9.23992 168.694 9.05102C169.118 8.86212 169.599 8.76762 170.136 8.76762C170.891 8.76762 171.484 8.93332 171.915 9.26482C172.35 9.59622 172.658 10.0337 172.84 10.5773Z" fill="#0A0A0A"/>
<path d="M58.5064 23.9669C58.6561 23.5063 59.3078 23.5063 59.4575 23.9669L60.8517 28.258C60.9186 28.464 61.1106 28.6035 61.3272 28.6035H65.8391C66.3235 28.6035 66.5249 29.2233 66.133 29.508L62.4828 32.16C62.3076 32.2873 62.2342 32.513 62.3012 32.719L63.6954 37.0101C63.8451 37.4708 63.3179 37.8538 62.926 37.5691L59.2758 34.9171C59.1006 34.7898 58.8633 34.7898 58.688 34.9171L55.0378 37.5691C54.646 37.8538 54.1187 37.4708 54.2684 37.0101L55.6627 32.719C55.7296 32.513 55.6563 32.2873 55.481 32.16L51.8308 29.508C51.439 29.2233 51.6404 28.6035 52.1247 28.6035H56.6366C56.8532 28.6035 57.0452 28.464 57.1121 28.258L58.5064 23.9669Z" fill="#9CBCFF"/>
<path d="M111.819 23.9669C111.969 23.5063 112.62 23.5063 112.77 23.9669L114.164 28.258C114.231 28.464 114.423 28.6035 114.64 28.6035H119.152C119.636 28.6035 119.838 29.2233 119.446 29.508L115.796 32.16C115.62 32.2873 115.547 32.513 115.614 32.719L117.008 37.0101C117.158 37.4708 116.631 37.8538 116.239 37.5691L112.589 34.9171C112.413 34.7898 112.176 34.7898 112.001 34.9171L108.351 37.5691C107.959 37.8538 107.431 37.4708 107.581 37.0101L108.975 32.719C109.042 32.513 108.969 32.2873 108.794 32.16L105.144 29.508C104.752 29.2233 104.953 28.6035 105.437 28.6035H109.949C110.166 28.6035 110.358 28.464 110.425 28.258L111.819 23.9669Z" fill="#9CBCFF"/>
<path d="M165.132 23.9669C165.281 23.5063 165.933 23.5063 166.083 23.9669L167.477 28.258C167.544 28.464 167.736 28.6035 167.952 28.6035H172.464C172.949 28.6035 173.15 29.2233 172.758 29.508L169.108 32.16C168.933 32.2873 168.859 32.513 168.926 32.719L170.321 37.0101C170.47 37.4708 169.943 37.8538 169.551 37.5691L165.901 34.9171C165.726 34.7898 165.488 34.7898 165.313 34.9171L161.663 37.5691C161.271 37.8538 160.744 37.4708 160.894 37.0101L162.288 32.719C162.355 32.513 162.281 32.2873 162.106 32.16L158.456 29.508C158.064 29.2233 158.266 28.6035 158.75 28.6035H163.262C163.478 28.6035 163.67 28.464 163.737 28.258L165.132 23.9669Z" fill="#9CBCFF"/>
<path d="M85.1626 23.9669C85.3123 23.5063 85.964 23.5063 86.1137 23.9669L87.508 28.258C87.5749 28.464 87.7669 28.6035 87.9835 28.6035H92.4958C92.9798 28.6035 93.1808 29.2233 92.7888 29.508L89.1388 32.16C88.9638 32.2873 88.8908 32.513 88.9578 32.719L90.3518 37.0101C90.5018 37.4708 89.9738 37.8538 89.5818 37.5691L85.9321 34.9171C85.7568 34.7898 85.5195 34.7898 85.3443 34.9171L81.6941 37.5691C81.3022 37.8538 80.775 37.4708 80.9247 37.0101L82.3189 32.719C82.3859 32.513 82.3125 32.2873 82.1373 32.16L78.4871 29.508C78.0952 29.2233 78.2966 28.6035 78.781 28.6035H83.2929C83.5095 28.6035 83.7015 28.464 83.7684 28.258L85.1626 23.9669Z" fill="#9CBCFF"/>
<path d="M138.475 23.9669C138.625 23.5063 139.277 23.5063 139.426 23.9669L140.821 28.258C140.888 28.464 141.08 28.6035 141.296 28.6035H145.808C146.292 28.6035 146.494 29.2233 146.102 29.508L142.452 32.16C142.277 32.2873 142.203 32.513 142.27 32.719L143.664 37.0101C143.814 37.4708 143.287 37.8538 142.895 37.5691L139.245 34.9171C139.07 34.7898 138.832 34.7898 138.657 34.9171L135.007 37.5691C134.615 37.8538 134.088 37.4708 134.237 37.0101L135.632 32.719C135.699 32.513 135.625 32.2873 135.45 32.16L131.8 29.508C131.408 29.2233 131.609 28.6035 132.094 28.6035H136.606C136.822 28.6035 137.014 28.464 137.081 28.258L138.475 23.9669Z" fill="#9CBCFF"/>
<defs>
<linearGradient id="paint0_linear_444_7823" x1="20.715" y1="6.69415" x2="34.5005" y2="72.3763" gradientUnits="userSpaceOnUse">
<stop stop-color="#1661FF"/>
<stop offset="0.86" stop-color="#0E39BA"/>
</linearGradient>
<linearGradient id="paint1_linear_444_7823" x1="20.715" y1="6.69415" x2="34.5005" y2="72.3763" gradientUnits="userSpaceOnUse">
<stop stop-color="#1661FF"/>
<stop offset="0.86" stop-color="#0E39BA"/>
</linearGradient>
</defs>
</svg>
