<svg width="150" height="51" viewBox="0 0 150 51" fill="none" xmlns="http://www.w3.org/2000/svg">
<path d="M31.1544 1.0249C30.9814 1.4032 30.8165 1.77888 30.6382 2.14667C29.2441 5.02334 27.8473 7.89739 26.4611 10.7767C26.3307 11.0499 26.1791 11.1629 25.8572 11.176C21.5231 11.3415 17.934 13.0623 15.1484 16.3304C12.6341 19.278 11.4555 22.7405 11.8253 26.5655C12.4053 32.5606 15.5927 36.8191 21.3076 38.947C26.3866 40.8359 31.157 39.9191 35.4565 36.651C35.5363 36.5905 35.6241 36.5406 35.7572 36.4566C37.569 39.5565 39.3649 42.6302 41.1608 45.7013C33.203 51.6963 20.4802 52.6132 10.9154 45.3519C0.709432 37.6046 -1.90325 23.8176 4.33047 13.1069C10.6626 2.22023 22.6858 -0.877119 31.1544 1.0249Z" fill="#F1492E"/>
<path d="M44.0289 43.2607C43.4888 42.3439 42.9833 41.4927 42.4858 40.6389C40.9932 38.0827 39.498 35.5266 38.0187 32.9625C37.8564 32.684 37.6595 32.6262 37.3668 32.6262C33.5649 32.6315 29.7656 32.6289 25.9636 32.6289C25.788 32.6289 25.6124 32.6289 25.3464 32.6289C25.4368 32.4345 25.4874 32.3031 25.5566 32.1849C27.4589 28.922 29.3638 25.6644 31.2582 22.3963C31.4524 22.0627 31.6679 21.9418 32.067 21.9418C35.8982 21.9602 39.7294 21.955 43.558 21.9445C43.8773 21.9445 44.0608 22.0233 44.2285 22.3096C46.176 25.6644 48.1422 29.0087 50.087 32.3635C50.1748 32.5133 50.1669 32.8023 50.0791 32.9546C48.1555 36.2884 46.2132 39.6117 44.271 42.935C44.2205 43.0243 44.1513 43.1005 44.0289 43.2607Z" fill="#F1492E"/>
<path d="M35.7596 7.77129C35.0706 7.08562 34.4081 6.44986 33.7828 5.78258C33.711 5.70377 33.7828 5.42004 33.8706 5.2808C34.8604 3.69666 36.3104 2.72464 38.1515 2.40939C40.1496 2.06524 42.0226 2.41727 43.6296 3.73082C44.7444 4.64242 45.1382 5.85876 45.077 7.24324C45.0051 8.89832 44.1697 10.1409 42.8022 11.0079C41.722 11.6909 40.562 12.2479 39.4419 12.8679C38.6623 13.3013 37.9413 13.7979 37.6008 14.6674C37.5343 14.8408 37.5076 15.0273 37.4491 15.2717C39.9926 15.2717 42.4696 15.2717 45.0184 15.2717C45.0184 15.9941 45.0184 16.6666 45.0184 17.3392C45.0184 18.2902 45.0184 18.2902 44.0473 18.2902C40.7828 18.2902 37.521 18.2902 34.2564 18.2876C33.6339 18.2876 33.6365 18.2849 33.6418 17.6833C33.6605 15.671 34.0702 13.7768 35.4484 12.2058C36.5073 11 37.8828 10.2224 39.3088 9.51568C39.8543 9.24509 40.405 8.96137 40.8919 8.60146C41.8071 7.92629 42.028 6.83867 41.4533 6.07156C41.0701 5.5619 40.5168 5.36224 39.8968 5.30708C38.1967 5.15733 36.9489 5.86665 36.0656 7.26952C35.9725 7.42452 35.8847 7.57426 35.7596 7.77129Z" fill="#F1492E"/>
<path d="M78.4196 13.1331C78.3728 12.9969 78.2866 12.8773 78.1717 12.789C78.0567 12.7007 77.9181 12.6475 77.7729 12.636L73.5257 12.3029L71.6878 8.28748C71.6292 8.15815 71.534 8.0483 71.4136 7.97119C71.2933 7.89409 71.1528 7.85302 71.0093 7.85294C70.8658 7.85286 70.7253 7.89378 70.6049 7.97076C70.4844 8.04773 70.3891 8.15747 70.3304 8.28674L68.4925 12.3029L64.2452 12.636C64.1025 12.6472 63.9661 12.6987 63.8523 12.7843C63.7384 12.87 63.652 12.9862 63.6034 13.1191C63.5547 13.252 63.5459 13.3959 63.5779 13.5336C63.61 13.6713 63.6815 13.797 63.7841 13.8956L66.9227 16.9154L65.8127 21.6595C65.779 21.8031 65.7898 21.9534 65.8437 22.0909C65.8976 22.2284 65.9921 22.3467 66.115 22.4304C66.2379 22.5142 66.3834 22.5596 66.5328 22.5608C66.6821 22.5619 66.8284 22.5187 66.9525 22.4367L71.0091 19.7676L75.0656 22.4367C75.1925 22.5199 75.3422 22.5627 75.4944 22.5594C75.6467 22.5561 75.7943 22.5069 75.9174 22.4183C76.0405 22.3297 76.1332 22.2061 76.1829 22.064C76.2327 21.9219 76.2372 21.7682 76.1958 21.6235L74.8332 16.9176L78.2125 13.9162C78.4337 13.7191 78.515 13.4117 78.4196 13.1331Z" fill="#F1492E"/>
<path d="M96.2996 13.1331C96.2528 12.9969 96.1666 12.8773 96.0517 12.789C95.9367 12.7007 95.7981 12.6475 95.6529 12.636L91.4057 12.3029L89.5678 8.28748C89.5092 8.15815 89.414 8.0483 89.2937 7.97119C89.1733 7.89409 89.0328 7.85302 88.8893 7.85294C88.7458 7.85286 88.6053 7.89378 88.4849 7.97076C88.3644 8.04773 88.2691 8.15747 88.2104 8.28674L86.3725 12.3029L82.1252 12.636C81.9825 12.6472 81.8461 12.6987 81.7323 12.7843C81.6185 12.87 81.532 12.9862 81.4834 13.1191C81.4347 13.252 81.4259 13.3959 81.458 13.5336C81.49 13.6713 81.5616 13.797 81.6641 13.8956L84.8028 16.9154L83.6927 21.6595C83.659 21.8031 83.6698 21.9534 83.7237 22.0909C83.7776 22.2284 83.8721 22.3467 83.995 22.4304C84.1179 22.5142 84.2635 22.5596 84.4128 22.5608C84.5621 22.5619 84.7084 22.5187 84.8326 22.4367L88.8891 19.7676L92.9456 22.4367C93.0725 22.5199 93.2222 22.5627 93.3745 22.5594C93.5267 22.5561 93.6744 22.5069 93.7974 22.4183C93.9205 22.3297 94.0132 22.2061 94.0629 22.064C94.1127 21.9219 94.1172 21.7682 94.0758 21.6235L92.7132 16.9176L96.0925 13.9162C96.3138 13.7191 96.395 13.4117 96.2996 13.1331Z" fill="#F1492E"/>
<path d="M114.18 13.1331C114.133 12.9969 114.047 12.8773 113.932 12.789C113.817 12.7007 113.678 12.6475 113.533 12.636L109.286 12.3029L107.448 8.28748C107.389 8.15815 107.294 8.0483 107.174 7.97119C107.053 7.89409 106.913 7.85302 106.769 7.85294C106.626 7.85286 106.485 7.89378 106.365 7.97076C106.244 8.04773 106.149 8.15747 106.09 8.28674L104.252 12.3029L100.005 12.636C99.8625 12.6472 99.7261 12.6987 99.6123 12.7843C99.4985 12.87 99.4121 12.9862 99.3634 13.1191C99.3148 13.252 99.3059 13.3959 99.338 13.5336C99.37 13.6713 99.4416 13.797 99.5441 13.8956L102.683 16.9154L101.573 21.6595C101.539 21.8031 101.55 21.9534 101.604 22.0909C101.658 22.2284 101.752 22.3467 101.875 22.4304C101.998 22.5142 102.143 22.5596 102.293 22.5608C102.442 22.5619 102.588 22.5187 102.713 22.4367L106.769 19.7676L110.826 22.4367C110.953 22.5199 111.102 22.5627 111.254 22.5594C111.407 22.5561 111.554 22.5069 111.677 22.4183C111.801 22.3297 111.893 22.2061 111.943 22.064C111.993 21.9219 111.997 21.7682 111.956 21.6235L110.593 16.9176L113.973 13.9162C114.194 13.7191 114.275 13.4117 114.18 13.1331Z" fill="#F1492E"/>
<path d="M132.06 13.1331C132.013 12.9969 131.927 12.8773 131.812 12.789C131.697 12.7007 131.558 12.6475 131.413 12.636L127.166 12.3029L125.328 8.28748C125.269 8.15815 125.174 8.0483 125.054 7.97119C124.933 7.89409 124.793 7.85302 124.649 7.85294C124.506 7.85286 124.365 7.89378 124.245 7.97076C124.124 8.04773 124.029 8.15747 123.97 8.28674L122.132 12.3029L117.885 12.636C117.743 12.6472 117.606 12.6987 117.492 12.7843C117.378 12.87 117.292 12.9862 117.243 13.1191C117.195 13.252 117.186 13.3959 117.218 13.5336C117.25 13.6713 117.322 13.797 117.424 13.8956L120.563 16.9154L119.453 21.6595C119.419 21.8031 119.43 21.9534 119.484 22.0909C119.538 22.2284 119.632 22.3467 119.755 22.4304C119.878 22.5142 120.023 22.5596 120.173 22.5608C120.322 22.5619 120.468 22.5187 120.593 22.4367L124.649 19.7676L128.706 22.4367C128.833 22.5199 128.982 22.5627 129.134 22.5594C129.287 22.5561 129.434 22.5069 129.557 22.4183C129.681 22.3297 129.773 22.2061 129.823 22.064C129.873 21.9219 129.877 21.7682 129.836 21.6235L128.473 16.9176L131.853 13.9162C132.074 13.7191 132.155 13.4117 132.06 13.1331Z" fill="#F1492E"/>
<path d="M149.94 13.1331C149.893 12.9969 149.807 12.8773 149.692 12.789C149.577 12.7007 149.438 12.6475 149.293 12.636L145.046 12.3029L143.208 8.28748C143.149 8.15815 143.054 8.0483 142.934 7.97119C142.813 7.89409 142.673 7.85302 142.529 7.85294C142.386 7.85286 142.245 7.89378 142.125 7.97076C142.004 8.04773 141.909 8.15747 141.85 8.28674L140.012 12.3029L135.765 12.636C135.623 12.6472 135.486 12.6987 135.372 12.7843C135.258 12.87 135.172 12.9862 135.123 13.1191C135.075 13.252 135.066 13.3959 135.098 13.5336C135.13 13.6713 135.202 13.797 135.304 13.8956L138.443 16.9154L137.333 21.6595C137.299 21.8031 137.31 21.9534 137.364 22.0909C137.418 22.2284 137.512 22.3467 137.635 22.4304C137.758 22.5142 137.903 22.5596 138.053 22.5608C138.202 22.5619 138.348 22.5187 138.473 22.4367L142.529 19.7676L146.586 22.4367C146.713 22.5199 146.862 22.5627 147.014 22.5594C147.167 22.5561 147.314 22.5069 147.437 22.4183C147.561 22.3297 147.653 22.2061 147.703 22.064C147.753 21.9219 147.757 21.7682 147.716 21.6235L146.353 16.9176L149.733 13.9162C149.954 13.7191 150.035 13.4117 149.94 13.1331Z" fill="#F1492E"/>
<path d="M64.1759 36.7255V35.5873L68.6817 29.2079H70.5322V35.4152H71.7794V36.7255H70.5322V38.7373H69.0303V36.7255H64.1759ZM69.0974 30.7431L65.9326 35.4152H69.0974V30.7431Z" fill="#0A0A0A"/>
<path d="M73.8641 38.8299C73.587 38.8299 73.3545 38.7373 73.1668 38.552C72.979 38.3667 72.8852 38.1373 72.8852 37.8637C72.8852 37.5902 72.979 37.3608 73.1668 37.1755C73.3545 36.9902 73.587 36.8976 73.8641 36.8976C74.1323 36.8976 74.3603 36.9902 74.548 37.1755C74.7358 37.3608 74.8296 37.5902 74.8296 37.8637C74.8296 38.1373 74.7358 38.3667 74.548 38.552C74.3603 38.7373 74.1323 38.8299 73.8641 38.8299Z" fill="#0A0A0A"/>
<path d="M78.185 36.1167C78.2744 36.5579 78.4666 36.8932 78.7616 37.1226C79.0566 37.352 79.4544 37.4667 79.9551 37.4667C80.5898 37.4667 81.0547 37.2196 81.3497 36.7255C81.6447 36.2314 81.7923 35.3887 81.7923 34.1976C81.5777 34.4976 81.2737 34.7314 80.8804 34.899C80.496 35.0579 80.0758 35.1373 79.6198 35.1373C79.0387 35.1373 78.5113 35.0226 78.0375 34.7932C77.5636 34.5549 77.1882 34.2064 76.911 33.7476C76.6428 33.2799 76.5087 32.7152 76.5087 32.0534C76.5087 31.0829 76.7948 30.3108 77.367 29.7373C77.9481 29.1549 78.7437 28.8637 79.7539 28.8637C80.9698 28.8637 81.8325 29.2652 82.3421 30.0681C82.8606 30.8623 83.1199 32.0843 83.1199 33.7343C83.1199 34.8726 83.0215 35.8034 82.8248 36.527C82.6371 37.2505 82.3063 37.7976 81.8325 38.1682C81.3587 38.5387 80.7016 38.724 79.8612 38.724C78.9046 38.724 78.1671 38.477 77.6486 37.9829C77.13 37.4887 76.8395 36.8667 76.7769 36.1167H78.185ZM79.888 33.8667C80.4244 33.8667 80.8446 33.7034 81.1486 33.377C81.4615 33.0417 81.6179 32.6005 81.6179 32.0534C81.6179 31.4446 81.4525 30.9726 81.1218 30.6373C80.7999 30.2931 80.3574 30.1211 79.7942 30.1211C79.2309 30.1211 78.7839 30.2976 78.4532 30.6505C78.1313 30.9946 77.9704 31.449 77.9704 32.0137C77.9704 32.552 78.1269 32.9976 78.4398 33.3505C78.7616 33.6946 79.2444 33.8667 79.888 33.8667Z" fill="#0A0A0A"/>
<path d="M93.3186 38.7373L91.173 35.0579H90.0063V38.7373H88.4776V29.5387H91.696C92.4112 29.5387 93.0146 29.6623 93.5063 29.9093C94.007 30.1564 94.378 30.4873 94.6193 30.902C94.8697 31.3167 94.9948 31.7799 94.9948 32.2917C94.9948 32.8917 94.816 33.4387 94.4584 33.9329C94.1098 34.4182 93.5689 34.749 92.8358 34.9255L95.1423 38.7373H93.3186ZM90.0063 33.8534H91.696C92.2681 33.8534 92.6973 33.7123 92.9833 33.4299C93.2784 33.1476 93.4259 32.7682 93.4259 32.2917C93.4259 31.8152 93.2828 31.4446 92.9967 31.1799C92.7107 30.9064 92.2771 30.7696 91.696 30.7696H90.0063V33.8534Z" fill="#0A0A0A"/>
<path d="M96.4409 35.0579C96.4409 34.3255 96.5929 33.677 96.8969 33.1123C97.2097 32.5476 97.6299 32.1108 98.1574 31.802C98.6938 31.4843 99.2838 31.3255 99.9275 31.3255C100.509 31.3255 101.014 31.4402 101.443 31.6696C101.881 31.8902 102.23 32.1681 102.489 32.5034V31.4446H104.031V38.7373H102.489V37.652C102.23 37.9961 101.876 38.2829 101.429 38.5123C100.982 38.7417 100.473 38.8564 99.9007 38.8564C99.266 38.8564 98.6849 38.6976 98.1574 38.3799C97.6299 38.0534 97.2097 37.6034 96.8969 37.0299C96.5929 36.4476 96.4409 35.7902 96.4409 35.0579ZM102.489 35.0843C102.489 34.5814 102.382 34.1446 102.167 33.774C101.961 33.4034 101.689 33.1211 101.349 32.927C101.009 32.7329 100.643 32.6358 100.249 32.6358C99.856 32.6358 99.4895 32.7329 99.1497 32.927C98.81 33.1123 98.5329 33.3902 98.3183 33.7608C98.1127 34.1226 98.0099 34.5549 98.0099 35.0579C98.0099 35.5608 98.1127 36.002 98.3183 36.3814C98.5329 36.7608 98.81 37.052 99.1497 37.2549C99.4984 37.449 99.8649 37.5461 100.249 37.5461C100.643 37.5461 101.009 37.449 101.349 37.2549C101.689 37.0608 101.961 36.7784 102.167 36.4079C102.382 36.0284 102.489 35.5873 102.489 35.0843Z" fill="#0A0A0A"/>
<path d="M107.822 32.6755V36.7123C107.822 36.9858 107.885 37.1843 108.01 37.3079C108.144 37.4226 108.368 37.4799 108.681 37.4799H109.619V38.7373H108.412C107.724 38.7373 107.197 38.5784 106.83 38.2608C106.464 37.9431 106.28 37.427 106.28 36.7123V32.6755H105.409V31.4446H106.28V29.6314H107.822V31.4446H109.619V32.6755H107.822Z" fill="#0A0A0A"/>
<path d="M111.806 30.4784C111.529 30.4784 111.297 30.3858 111.109 30.2005C110.921 30.0152 110.827 29.7858 110.827 29.5123C110.827 29.2387 110.921 29.0093 111.109 28.824C111.297 28.6387 111.529 28.5461 111.806 28.5461C112.074 28.5461 112.302 28.6387 112.49 28.824C112.678 29.0093 112.772 29.2387 112.772 29.5123C112.772 29.7858 112.678 30.0152 112.49 30.2005C112.302 30.3858 112.074 30.4784 111.806 30.4784ZM112.557 31.4446V38.7373H111.028V31.4446H112.557Z" fill="#0A0A0A"/>
<path d="M118.292 31.3255C118.873 31.3255 119.392 31.4446 119.848 31.6829C120.313 31.9211 120.675 32.274 120.934 32.7417C121.193 33.2093 121.323 33.774 121.323 34.4358V38.7373H119.808V34.6608C119.808 34.0079 119.642 33.5093 119.311 33.1652C118.981 32.8123 118.529 32.6358 117.957 32.6358C117.385 32.6358 116.929 32.8123 116.589 33.1652C116.258 33.5093 116.093 34.0079 116.093 34.6608V38.7373H114.564V31.4446H116.093V32.2784C116.343 31.9784 116.661 31.7446 117.045 31.577C117.438 31.4093 117.854 31.3255 118.292 31.3255Z" fill="#0A0A0A"/>
<path d="M126.25 31.3255C126.822 31.3255 127.327 31.4402 127.765 31.6696C128.212 31.8902 128.561 32.1681 128.811 32.5034V31.4446H130.353V38.8564C130.353 39.527 130.21 40.1226 129.924 40.6432C129.638 41.1726 129.222 41.5873 128.677 41.8873C128.141 42.1873 127.497 42.3373 126.746 42.3373C125.745 42.3373 124.913 42.1034 124.252 41.6358C123.59 41.177 123.215 40.5505 123.125 39.7564H124.641C124.757 40.1358 125.003 40.4402 125.378 40.6696C125.763 40.9079 126.219 41.027 126.746 41.027C127.363 41.027 127.859 40.8417 128.235 40.4711C128.619 40.1005 128.811 39.5623 128.811 38.8564V37.6387C128.552 37.9829 128.199 38.274 127.752 38.5123C127.314 38.7417 126.813 38.8564 126.25 38.8564C125.606 38.8564 125.016 38.6976 124.48 38.3799C123.952 38.0534 123.532 37.6034 123.219 37.0299C122.915 36.4476 122.763 35.7902 122.763 35.0579C122.763 34.3255 122.915 33.677 123.219 33.1123C123.532 32.5476 123.952 32.1108 124.48 31.802C125.016 31.4843 125.606 31.3255 126.25 31.3255ZM128.811 35.0843C128.811 34.5814 128.704 34.1446 128.489 33.774C128.284 33.4034 128.011 33.1211 127.671 32.927C127.332 32.7329 126.965 32.6358 126.572 32.6358C126.178 32.6358 125.812 32.7329 125.472 32.927C125.132 33.1123 124.855 33.3902 124.641 33.7608C124.435 34.1226 124.332 34.5549 124.332 35.0579C124.332 35.5608 124.435 36.002 124.641 36.3814C124.855 36.7608 125.132 37.052 125.472 37.2549C125.821 37.449 126.187 37.5461 126.572 37.5461C126.965 37.5461 127.332 37.449 127.671 37.2549C128.011 37.0608 128.284 36.7784 128.489 36.4079C128.704 36.0284 128.811 35.5873 128.811 35.0843Z" fill="#0A0A0A"/>
<path d="M135.043 38.8564C134.462 38.8564 133.939 38.7549 133.474 38.552C133.018 38.3402 132.656 38.0579 132.388 37.7049C132.12 37.3432 131.977 36.9417 131.959 36.5005H133.541C133.568 36.8093 133.716 37.0696 133.984 37.2814C134.261 37.4843 134.605 37.5858 135.016 37.5858C135.446 37.5858 135.776 37.5064 136.009 37.3476C136.25 37.1799 136.371 36.9682 136.371 36.7123C136.371 36.4387 136.237 36.2358 135.969 36.1034C135.709 35.9711 135.294 35.8255 134.721 35.6667C134.167 35.5167 133.716 35.3711 133.367 35.2299C133.018 35.0887 132.714 34.8726 132.455 34.5814C132.205 34.2902 132.08 33.9064 132.08 33.4299C132.08 33.0417 132.196 32.6887 132.428 32.3711C132.661 32.0446 132.992 31.7887 133.421 31.6034C133.859 31.4182 134.359 31.3255 134.923 31.3255C135.763 31.3255 136.438 31.5373 136.948 31.9608C137.466 32.3755 137.743 32.9446 137.779 33.6681H136.25C136.223 33.3417 136.089 33.0814 135.848 32.8873C135.607 32.6931 135.28 32.5961 134.869 32.5961C134.467 32.5961 134.158 32.6711 133.944 32.8211C133.729 32.9711 133.622 33.1696 133.622 33.4167C133.622 33.6108 133.693 33.774 133.836 33.9064C133.979 34.0387 134.154 34.1446 134.359 34.224C134.565 34.2946 134.869 34.3873 135.271 34.502C135.808 34.6432 136.246 34.7887 136.585 34.9387C136.934 35.0799 137.234 35.2917 137.484 35.574C137.734 35.8564 137.864 36.2314 137.873 36.699C137.873 37.1137 137.757 37.4843 137.524 37.8108C137.292 38.1373 136.961 38.3932 136.532 38.5784C136.112 38.7637 135.615 38.8564 135.043 38.8564Z" fill="#0A0A0A"/>
</svg>
