<svg width="139" height="25" viewBox="0 0 139 25" fill="none" xmlns="http://www.w3.org/2000/svg">
<path d="M23.9021 9.05547C23.8267 8.83334 23.6881 8.63816 23.5033 8.49402C23.3184 8.34988 23.0955 8.26309 22.862 8.24438L16.0306 7.70085L13.0744 1.14852C12.9803 0.937483 12.8272 0.758238 12.6335 0.632418C12.4399 0.506598 12.214 0.43958 11.9832 0.439453C11.7524 0.439326 11.5264 0.506096 11.3326 0.631703C11.1389 0.75731 10.9855 0.936387 10.8912 1.14732L7.93502 7.70085L1.10364 8.24438C0.874121 8.26259 0.654696 8.34662 0.471619 8.48642C0.288543 8.62623 0.149568 8.81589 0.0713207 9.03271C-0.0069265 9.24953 -0.0211327 9.48433 0.0304017 9.70903C0.0819362 9.93372 0.197029 10.1388 0.361911 10.2997L5.41025 15.2275L3.62482 22.9688C3.57061 23.2032 3.58798 23.4484 3.67469 23.6727C3.7614 23.897 3.91344 24.0901 4.11108 24.2268C4.30872 24.3635 4.54284 24.4376 4.78305 24.4394C5.02327 24.4412 5.25848 24.3707 5.45818 24.2371L11.9828 19.8816L18.5074 24.2371C18.7115 24.3728 18.9522 24.4426 19.1972 24.4372C19.4421 24.4319 19.6796 24.3515 19.8775 24.207C20.0755 24.0624 20.2245 23.8607 20.3046 23.6288C20.3846 23.397 20.3918 23.1461 20.3252 22.91L18.1336 15.2311L23.5689 10.3333C23.9248 10.0117 24.0554 9.51021 23.9021 9.05547Z" fill="#FFD700"/>
<path d="M52.6607 9.05547C52.5854 8.83334 52.4468 8.63816 52.2619 8.49402C52.0771 8.34988 51.8541 8.26309 51.6206 8.24438L44.7892 7.70085L41.8331 1.14852C41.7389 0.937483 41.5858 0.758238 41.3922 0.632418C41.1985 0.506598 40.9727 0.43958 40.7418 0.439453C40.511 0.439326 40.2851 0.506096 40.0913 0.631703C39.8975 0.75731 39.7442 0.936387 39.6498 1.14732L36.6937 7.70085L29.8623 8.24438C29.6328 8.26259 29.4133 8.34662 29.2303 8.48642C29.0472 8.62623 28.9082 8.81589 28.83 9.03271C28.7517 9.24953 28.7375 9.48433 28.789 9.70903C28.8406 9.93372 28.9557 10.1388 29.1206 10.2997L34.1689 15.2275L32.3835 22.9688C32.3293 23.2032 32.3466 23.4484 32.4333 23.6727C32.5201 23.897 32.6721 24.0901 32.8697 24.2268C33.0674 24.3635 33.3015 24.4376 33.5417 24.4394C33.7819 24.4412 34.0171 24.3707 34.2168 24.2371L40.7415 19.8816L47.2661 24.2371C47.4702 24.3728 47.7109 24.4426 47.9558 24.4372C48.2008 24.4319 48.4382 24.3515 48.6362 24.207C48.8341 24.0624 48.9832 23.8607 49.0632 23.6288C49.1432 23.397 49.1504 23.1461 49.0839 22.91L46.8922 15.2311L52.3276 10.3333C52.6835 10.0117 52.8141 9.51021 52.6607 9.05547Z" fill="#FFD700"/>
<path d="M81.4194 9.05547C81.344 8.83334 81.2054 8.63816 81.0206 8.49402C80.8357 8.34988 80.6128 8.26309 80.3792 8.24438L73.5479 7.70085L70.5917 1.14852C70.4976 0.937483 70.3445 0.758238 70.1508 0.632418C69.9572 0.506598 69.7313 0.43958 69.5005 0.439453C69.2697 0.439326 69.0437 0.506096 68.8499 0.631703C68.6562 0.75731 68.5028 0.936387 68.4085 1.14732L65.4523 7.70085L58.6209 8.24438C58.3914 8.26259 58.172 8.34662 57.9889 8.48642C57.8058 8.62623 57.6669 8.81589 57.5886 9.03271C57.5104 9.24953 57.4962 9.48433 57.5477 9.70903C57.5992 9.93372 57.7143 10.1388 57.8792 10.2997L62.9275 15.2275L61.1421 22.9688C61.0879 23.2032 61.1053 23.4484 61.192 23.6727C61.2787 23.897 61.4307 24.0901 61.6284 24.2268C61.826 24.3635 62.0601 24.4376 62.3004 24.4394C62.5406 24.4412 62.7758 24.3707 62.9755 24.2371L69.5001 19.8816L76.0247 24.2371C76.2288 24.3728 76.4695 24.4426 76.7145 24.4372C76.9594 24.4319 77.1968 24.3515 77.3948 24.207C77.5928 24.0624 77.7418 23.8607 77.8219 23.6288C77.9019 23.397 77.9091 23.1461 77.8425 22.91L75.6509 15.2311L81.0862 10.3333C81.4421 10.0117 81.5727 9.51021 81.4194 9.05547Z" fill="#FFD700"/>
<path d="M110.178 9.05547C110.103 8.83334 109.964 8.63816 109.779 8.49402C109.594 8.34988 109.371 8.26309 109.138 8.24438L102.307 7.70085L99.3504 1.14852C99.2562 0.937483 99.1031 0.758238 98.9095 0.632418C98.7158 0.506598 98.49 0.43958 98.2591 0.439453C98.0283 0.439326 97.8024 0.506096 97.6086 0.631703C97.4148 0.75731 97.2615 0.936387 97.1671 1.14732L94.211 7.70085L87.3796 8.24438C87.1501 8.26259 86.9306 8.34662 86.7476 8.48642C86.5645 8.62623 86.4255 8.81589 86.3473 9.03271C86.269 9.24953 86.2548 9.48433 86.3063 9.70903C86.3579 9.93372 86.473 10.1388 86.6379 10.2997L91.6862 15.2275L89.9008 22.9688C89.8465 23.2032 89.8639 23.4484 89.9506 23.6727C90.0373 23.897 90.1894 24.0901 90.387 24.2268C90.5847 24.3635 90.8188 24.4376 91.059 24.4394C91.2992 24.4412 91.5344 24.3707 91.7341 24.2371L98.2587 19.8816L104.783 24.2371C104.987 24.3728 105.228 24.4426 105.473 24.4372C105.718 24.4319 105.955 24.3515 106.153 24.207C106.351 24.0624 106.5 23.8607 106.58 23.6288C106.661 23.397 106.668 23.1461 106.601 22.91L104.41 15.2311L109.845 10.3333C110.201 10.0117 110.331 9.51021 110.178 9.05547Z" fill="#FFD700"/>
<path d="M138.937 9.05547C138.861 8.83334 138.723 8.63816 138.538 8.49402C138.353 8.34988 138.13 8.26309 137.897 8.24438L131.065 7.70085L128.109 1.14852C128.015 0.937483 127.862 0.758238 127.668 0.632418C127.474 0.506598 127.249 0.43958 127.018 0.439453C126.787 0.439326 126.561 0.506096 126.367 0.631703C126.173 0.75731 126.02 0.936387 125.926 1.14732L122.97 7.70085L116.138 8.24438C115.909 8.26259 115.689 8.34662 115.506 8.48642C115.323 8.62623 115.184 8.81589 115.106 9.03271C115.028 9.24953 115.013 9.48433 115.065 9.70903C115.117 9.93372 115.232 10.1388 115.396 10.2997L120.445 15.2275L118.659 22.9688C118.605 23.2032 118.623 23.4484 118.709 23.6727C118.796 23.897 118.948 24.0901 119.146 24.2268C119.343 24.3635 119.577 24.4376 119.818 24.4394C120.058 24.4412 120.293 24.3707 120.493 24.2371L127.017 19.8816L133.542 24.2371C133.746 24.3728 133.987 24.4426 134.232 24.4372C134.477 24.4319 134.714 24.3515 134.912 24.207C135.11 24.0624 135.259 23.8607 135.339 23.6288C135.419 23.397 135.426 23.1461 135.36 22.91L133.168 15.2311L138.604 10.3333C138.959 10.0117 139.09 9.51021 138.937 9.05547Z" fill="#FFD700"/>
</svg>
