<svg width="210" height="35" viewBox="0 0 210 35" fill="none" xmlns="http://www.w3.org/2000/svg">
<path d="M50.1934 18.7426C52.2436 18.977 53.3826 20.0611 53.3826 21.8191C53.3826 23.2256 52.2436 24.4269 50.7915 24.4269C49.5385 24.4269 48.5419 24.1045 47.5738 22.8445L43.929 25.5988C45.9507 27.8843 48.3711 28.7926 50.7915 28.7926C54.5217 28.7926 57.9671 25.7453 57.9671 21.4969C57.9671 17.2776 54.9772 14.7577 51.3609 14.5233C49.1114 14.3769 48.3995 13.4685 48.3995 12.4723C48.3995 11.271 49.1968 10.5386 50.3643 10.5386C51.1046 10.5386 52.0443 11.0074 52.6139 11.6226L56.0877 9.01493C54.4647 7.02255 52.4715 6.20214 50.3643 6.20214C47.4314 6.20214 44.1283 8.80981 44.1283 12.5016C44.1283 15.9297 46.5202 18.3031 50.1934 18.7426Z" fill="black"/>
<path d="M74.3583 21.0283C74.3583 19.0651 75.6973 17.4536 77.4623 17.4536C79.0853 17.4536 80.4236 18.7722 80.4236 21.0283V28.412H84.4385V21.0283C84.4385 16.7504 82.3029 13.293 77.8897 13.293C76.4087 13.293 74.1311 13.7619 72.7637 15.6371C71.9096 14.2893 70.0019 13.293 67.8948 13.293C66.642 13.293 65.0188 13.8204 64.364 14.6408V13.6153H60.3205V28.412H64.364V21.0283C64.364 19.0651 65.7022 17.4536 67.2114 17.4536C69.0338 17.4536 70.315 18.4791 70.315 21.0283V28.412H74.3583V21.0283Z" fill="black"/>
<path d="M97.0665 13.6153V14.6408C96.4403 13.9377 94.8457 13.293 93.5642 13.293C89.7197 13.293 86.5021 16.7504 86.5021 21.0283C86.5021 25.2474 89.6345 28.7341 93.5642 28.7341C94.8741 28.7341 96.4403 28.2067 97.0665 27.3571V28.412H101.11V13.6153H97.0665ZM93.9625 24.603C92.1123 24.603 90.6029 23.1379 90.6029 21.0283C90.6029 18.948 92.1123 17.4536 93.9625 17.4536C95.8425 17.4536 97.2376 18.948 97.2376 21.0283C97.2376 23.1379 95.8425 24.603 93.9625 24.603Z" fill="black"/>
<path d="M112.181 13.3516C111.81 13.293 111.526 13.293 111.185 13.293C110.073 13.293 108.877 13.6739 107.995 14.6408V13.6153H103.951V28.412H107.995V21.0283C107.995 18.6549 109.333 17.4536 110.898 17.4536C111.354 17.4536 111.782 17.5122 112.181 17.6587V13.3516Z" fill="black"/>
<path d="M122.392 17.4553V13.617H118.975V8.66516L114.931 11.6832V13.617H112.767V17.4553H114.931V22.2898C114.931 26.1281 118.006 28.7358 122.306 28.7358V24.6046C120.455 24.6046 118.975 23.8427 118.975 22.1725V17.4553H122.392Z" fill="black"/>
<path d="M124.251 6.58251V28.4112H128.294V6.58251H124.251Z" fill="black"/>
<path d="M141.454 23.1086C140.798 24.1634 139.575 24.603 138.35 24.603C137.924 24.603 137.525 24.5736 137.154 24.4272L145.184 18.5084C144.301 15.7542 141.568 13.293 138.009 13.293C133.88 13.293 130.548 16.7504 130.548 21.0283C130.548 25.2474 134.022 28.7341 138.35 28.7341C140.913 28.7341 143.448 27.533 144.671 25.6578L141.454 23.1086ZM134.648 21.0283C134.648 18.948 136.158 17.4536 138.009 17.4536C138.778 17.4536 139.432 17.7174 140.002 18.1568L134.763 21.9951C134.676 21.7022 134.648 21.3799 134.648 21.0283Z" fill="black"/>
<path d="M157.188 13.6153V14.6408C156.561 13.9377 154.966 13.293 153.685 13.293C149.841 13.293 146.623 16.7504 146.623 21.0283C146.623 25.2474 149.756 28.7341 153.685 28.7341C154.994 28.7341 156.561 28.2067 157.188 27.3571V28.412H161.23V13.6153H157.188ZM154.084 24.603C152.232 24.603 150.724 23.1379 150.724 21.0283C150.724 18.948 152.232 17.4536 154.084 17.4536C155.963 17.4536 157.357 18.948 157.357 21.0283C157.357 23.1379 155.963 24.603 154.084 24.603Z" fill="black"/>
<path d="M174.04 6.58251V14.6401C173.413 13.9369 171.818 13.2923 170.536 13.2923C166.693 13.2923 163.475 16.7497 163.475 21.0276C163.475 25.2467 166.608 28.7334 170.536 28.7334C171.846 28.7334 173.413 28.206 174.04 27.3563V28.4112H178.082V6.58251H174.04ZM170.935 24.6022C169.084 24.6022 167.575 23.1371 167.575 21.0276C167.575 18.9472 169.084 17.4529 170.935 17.4529C172.815 17.4529 174.21 18.9472 174.21 21.0276C174.21 23.1371 172.815 24.6022 170.935 24.6022Z" fill="black"/>
<path d="M183.403 24.3117C182.093 24.3117 181.21 25.3079 181.21 26.5678C181.21 27.7691 182.093 28.7946 183.403 28.7946C184.741 28.7946 185.595 27.7691 185.595 26.5678C185.595 25.3079 184.712 24.3117 183.403 24.3117Z" fill="black"/>
<path d="M198.704 13.6153V14.6408C198.077 13.9377 196.483 13.293 195.202 13.293C191.357 13.293 188.14 16.7504 188.14 21.0283C188.14 25.2474 191.272 28.7341 195.202 28.7341C196.511 28.7341 198.077 28.2067 198.704 27.3571V28.412H202.747V13.6153H198.704ZM195.601 24.603C193.748 24.603 192.24 23.1379 192.24 21.0283C192.24 18.948 193.748 17.4536 195.601 17.4536C197.479 17.4536 198.874 18.948 198.874 21.0283C198.874 23.1379 197.479 24.603 195.601 24.603Z" fill="black"/>
<path d="M207.579 11.008C208.946 11.008 210 9.9238 210 8.63469C210 7.43333 208.946 6.34927 207.579 6.34927C206.327 6.34927 205.245 7.46259 205.245 8.63469C205.245 9.9238 206.327 11.008 207.579 11.008ZM209.631 13.6157H205.586V28.4123H209.631V13.6157Z" fill="black"/>
<path d="M0 4.40416C0 1.97182 1.93275 0 4.31691 0H29.9897C32.3739 0 34.3066 1.97182 34.3066 4.40416V30.5959C34.3066 33.0282 32.3739 35 29.9897 35H4.31691C1.93275 35 0 33.0282 0 30.5959V4.40416Z" fill="#6E58F1"/>
<path d="M4.95631 14.8099C4.95631 11.7909 7.34607 9.34343 10.2941 9.34343H10.601C11.848 9.34343 12.859 10.3787 12.859 11.6557V17.964C12.859 19.241 11.848 20.2763 10.601 20.2763H10.294C7.34607 20.2763 4.95631 17.829 4.95631 14.8099Z" fill="white"/>
<path d="M14.0704 10.2995C14.0704 9.7132 14.4066 9.18161 14.929 8.9419L22.6992 5.37649C23.6602 4.93552 24.7458 5.65563 24.7458 6.73412V22.9852C24.7458 24.0707 23.6475 24.7907 22.6849 24.3362L14.9148 20.6675C14.4 20.4245 14.0704 19.897 14.0704 19.3165V18.5642C14.0704 17.9452 14.4445 17.3909 15.01 17.1724L19.3408 15.4983C19.9673 15.2561 19.9673 14.3486 19.3408 14.1064L15.01 12.4324C14.4445 12.2137 14.0704 11.6595 14.0704 11.0406V10.2995Z" fill="white"/>
<path d="M29.3532 16.0991V15.7677C29.3532 13.938 27.9048 12.4547 26.1181 12.4547C26.0288 12.4547 25.9564 12.5289 25.9564 12.6204V19.2464C25.9564 19.3379 26.0288 19.412 26.1181 19.412C27.9048 19.412 29.3532 17.9287 29.3532 16.0991Z" fill="white"/>
<path d="M10.0562 22.3018C10.0562 22.0211 10.2895 21.7936 10.5773 21.7936H13.5438C13.8316 21.7936 14.0648 22.0211 14.0648 22.3018V27.3184C14.0648 28.3981 13.1675 29.2733 12.0605 29.2733C10.9536 29.2733 10.0562 28.3981 10.0562 27.3184V22.3018Z" fill="white"/>
</svg>
